G75*
%MOIN*%
%OFA0B0*%
%FSLAX25Y25*%
%IPPOS*%
%LPD*%
%AMOC8*
5,1,8,0,0,1.08239X$1,22.5*
%
%ADD10C,0.00000*%
%ADD11C,0.05150*%
%ADD12C,0.11220*%
%ADD13OC8,0.05200*%
%ADD14R,0.05937X0.05937*%
%ADD15R,0.05150X0.05150*%
%ADD16C,0.05200*%
%ADD17C,0.07400*%
%ADD18C,0.05200*%
%ADD19C,0.01200*%
%ADD20C,0.02578*%
%ADD21C,0.00600*%
D10*
X0005300Y0010249D02*
X0005300Y0207099D01*
X0202150Y0207099D01*
X0202150Y0010249D01*
X0005300Y0010249D01*
X0174331Y0049749D02*
X0174333Y0049837D01*
X0174339Y0049925D01*
X0174349Y0050013D01*
X0174363Y0050101D01*
X0174380Y0050187D01*
X0174402Y0050273D01*
X0174427Y0050357D01*
X0174457Y0050441D01*
X0174489Y0050523D01*
X0174526Y0050603D01*
X0174566Y0050682D01*
X0174610Y0050759D01*
X0174657Y0050834D01*
X0174707Y0050906D01*
X0174761Y0050977D01*
X0174817Y0051044D01*
X0174877Y0051110D01*
X0174939Y0051172D01*
X0175005Y0051232D01*
X0175072Y0051288D01*
X0175143Y0051342D01*
X0175215Y0051392D01*
X0175290Y0051439D01*
X0175367Y0051483D01*
X0175446Y0051523D01*
X0175526Y0051560D01*
X0175608Y0051592D01*
X0175692Y0051622D01*
X0175776Y0051647D01*
X0175862Y0051669D01*
X0175948Y0051686D01*
X0176036Y0051700D01*
X0176124Y0051710D01*
X0176212Y0051716D01*
X0176300Y0051718D01*
X0176388Y0051716D01*
X0176476Y0051710D01*
X0176564Y0051700D01*
X0176652Y0051686D01*
X0176738Y0051669D01*
X0176824Y0051647D01*
X0176908Y0051622D01*
X0176992Y0051592D01*
X0177074Y0051560D01*
X0177154Y0051523D01*
X0177233Y0051483D01*
X0177310Y0051439D01*
X0177385Y0051392D01*
X0177457Y0051342D01*
X0177528Y0051288D01*
X0177595Y0051232D01*
X0177661Y0051172D01*
X0177723Y0051110D01*
X0177783Y0051044D01*
X0177839Y0050977D01*
X0177893Y0050906D01*
X0177943Y0050834D01*
X0177990Y0050759D01*
X0178034Y0050682D01*
X0178074Y0050603D01*
X0178111Y0050523D01*
X0178143Y0050441D01*
X0178173Y0050357D01*
X0178198Y0050273D01*
X0178220Y0050187D01*
X0178237Y0050101D01*
X0178251Y0050013D01*
X0178261Y0049925D01*
X0178267Y0049837D01*
X0178269Y0049749D01*
X0178267Y0049661D01*
X0178261Y0049573D01*
X0178251Y0049485D01*
X0178237Y0049397D01*
X0178220Y0049311D01*
X0178198Y0049225D01*
X0178173Y0049141D01*
X0178143Y0049057D01*
X0178111Y0048975D01*
X0178074Y0048895D01*
X0178034Y0048816D01*
X0177990Y0048739D01*
X0177943Y0048664D01*
X0177893Y0048592D01*
X0177839Y0048521D01*
X0177783Y0048454D01*
X0177723Y0048388D01*
X0177661Y0048326D01*
X0177595Y0048266D01*
X0177528Y0048210D01*
X0177457Y0048156D01*
X0177385Y0048106D01*
X0177310Y0048059D01*
X0177233Y0048015D01*
X0177154Y0047975D01*
X0177074Y0047938D01*
X0176992Y0047906D01*
X0176908Y0047876D01*
X0176824Y0047851D01*
X0176738Y0047829D01*
X0176652Y0047812D01*
X0176564Y0047798D01*
X0176476Y0047788D01*
X0176388Y0047782D01*
X0176300Y0047780D01*
X0176212Y0047782D01*
X0176124Y0047788D01*
X0176036Y0047798D01*
X0175948Y0047812D01*
X0175862Y0047829D01*
X0175776Y0047851D01*
X0175692Y0047876D01*
X0175608Y0047906D01*
X0175526Y0047938D01*
X0175446Y0047975D01*
X0175367Y0048015D01*
X0175290Y0048059D01*
X0175215Y0048106D01*
X0175143Y0048156D01*
X0175072Y0048210D01*
X0175005Y0048266D01*
X0174939Y0048326D01*
X0174877Y0048388D01*
X0174817Y0048454D01*
X0174761Y0048521D01*
X0174707Y0048592D01*
X0174657Y0048664D01*
X0174610Y0048739D01*
X0174566Y0048816D01*
X0174526Y0048895D01*
X0174489Y0048975D01*
X0174457Y0049057D01*
X0174427Y0049141D01*
X0174402Y0049225D01*
X0174380Y0049311D01*
X0174363Y0049397D01*
X0174349Y0049485D01*
X0174339Y0049573D01*
X0174333Y0049661D01*
X0174331Y0049749D01*
X0182831Y0060249D02*
X0182833Y0060337D01*
X0182839Y0060425D01*
X0182849Y0060513D01*
X0182863Y0060601D01*
X0182880Y0060687D01*
X0182902Y0060773D01*
X0182927Y0060857D01*
X0182957Y0060941D01*
X0182989Y0061023D01*
X0183026Y0061103D01*
X0183066Y0061182D01*
X0183110Y0061259D01*
X0183157Y0061334D01*
X0183207Y0061406D01*
X0183261Y0061477D01*
X0183317Y0061544D01*
X0183377Y0061610D01*
X0183439Y0061672D01*
X0183505Y0061732D01*
X0183572Y0061788D01*
X0183643Y0061842D01*
X0183715Y0061892D01*
X0183790Y0061939D01*
X0183867Y0061983D01*
X0183946Y0062023D01*
X0184026Y0062060D01*
X0184108Y0062092D01*
X0184192Y0062122D01*
X0184276Y0062147D01*
X0184362Y0062169D01*
X0184448Y0062186D01*
X0184536Y0062200D01*
X0184624Y0062210D01*
X0184712Y0062216D01*
X0184800Y0062218D01*
X0184888Y0062216D01*
X0184976Y0062210D01*
X0185064Y0062200D01*
X0185152Y0062186D01*
X0185238Y0062169D01*
X0185324Y0062147D01*
X0185408Y0062122D01*
X0185492Y0062092D01*
X0185574Y0062060D01*
X0185654Y0062023D01*
X0185733Y0061983D01*
X0185810Y0061939D01*
X0185885Y0061892D01*
X0185957Y0061842D01*
X0186028Y0061788D01*
X0186095Y0061732D01*
X0186161Y0061672D01*
X0186223Y0061610D01*
X0186283Y0061544D01*
X0186339Y0061477D01*
X0186393Y0061406D01*
X0186443Y0061334D01*
X0186490Y0061259D01*
X0186534Y0061182D01*
X0186574Y0061103D01*
X0186611Y0061023D01*
X0186643Y0060941D01*
X0186673Y0060857D01*
X0186698Y0060773D01*
X0186720Y0060687D01*
X0186737Y0060601D01*
X0186751Y0060513D01*
X0186761Y0060425D01*
X0186767Y0060337D01*
X0186769Y0060249D01*
X0186767Y0060161D01*
X0186761Y0060073D01*
X0186751Y0059985D01*
X0186737Y0059897D01*
X0186720Y0059811D01*
X0186698Y0059725D01*
X0186673Y0059641D01*
X0186643Y0059557D01*
X0186611Y0059475D01*
X0186574Y0059395D01*
X0186534Y0059316D01*
X0186490Y0059239D01*
X0186443Y0059164D01*
X0186393Y0059092D01*
X0186339Y0059021D01*
X0186283Y0058954D01*
X0186223Y0058888D01*
X0186161Y0058826D01*
X0186095Y0058766D01*
X0186028Y0058710D01*
X0185957Y0058656D01*
X0185885Y0058606D01*
X0185810Y0058559D01*
X0185733Y0058515D01*
X0185654Y0058475D01*
X0185574Y0058438D01*
X0185492Y0058406D01*
X0185408Y0058376D01*
X0185324Y0058351D01*
X0185238Y0058329D01*
X0185152Y0058312D01*
X0185064Y0058298D01*
X0184976Y0058288D01*
X0184888Y0058282D01*
X0184800Y0058280D01*
X0184712Y0058282D01*
X0184624Y0058288D01*
X0184536Y0058298D01*
X0184448Y0058312D01*
X0184362Y0058329D01*
X0184276Y0058351D01*
X0184192Y0058376D01*
X0184108Y0058406D01*
X0184026Y0058438D01*
X0183946Y0058475D01*
X0183867Y0058515D01*
X0183790Y0058559D01*
X0183715Y0058606D01*
X0183643Y0058656D01*
X0183572Y0058710D01*
X0183505Y0058766D01*
X0183439Y0058826D01*
X0183377Y0058888D01*
X0183317Y0058954D01*
X0183261Y0059021D01*
X0183207Y0059092D01*
X0183157Y0059164D01*
X0183110Y0059239D01*
X0183066Y0059316D01*
X0183026Y0059395D01*
X0182989Y0059475D01*
X0182957Y0059557D01*
X0182927Y0059641D01*
X0182902Y0059725D01*
X0182880Y0059811D01*
X0182863Y0059897D01*
X0182849Y0059985D01*
X0182839Y0060073D01*
X0182833Y0060161D01*
X0182831Y0060249D01*
X0191831Y0050749D02*
X0191833Y0050837D01*
X0191839Y0050925D01*
X0191849Y0051013D01*
X0191863Y0051101D01*
X0191880Y0051187D01*
X0191902Y0051273D01*
X0191927Y0051357D01*
X0191957Y0051441D01*
X0191989Y0051523D01*
X0192026Y0051603D01*
X0192066Y0051682D01*
X0192110Y0051759D01*
X0192157Y0051834D01*
X0192207Y0051906D01*
X0192261Y0051977D01*
X0192317Y0052044D01*
X0192377Y0052110D01*
X0192439Y0052172D01*
X0192505Y0052232D01*
X0192572Y0052288D01*
X0192643Y0052342D01*
X0192715Y0052392D01*
X0192790Y0052439D01*
X0192867Y0052483D01*
X0192946Y0052523D01*
X0193026Y0052560D01*
X0193108Y0052592D01*
X0193192Y0052622D01*
X0193276Y0052647D01*
X0193362Y0052669D01*
X0193448Y0052686D01*
X0193536Y0052700D01*
X0193624Y0052710D01*
X0193712Y0052716D01*
X0193800Y0052718D01*
X0193888Y0052716D01*
X0193976Y0052710D01*
X0194064Y0052700D01*
X0194152Y0052686D01*
X0194238Y0052669D01*
X0194324Y0052647D01*
X0194408Y0052622D01*
X0194492Y0052592D01*
X0194574Y0052560D01*
X0194654Y0052523D01*
X0194733Y0052483D01*
X0194810Y0052439D01*
X0194885Y0052392D01*
X0194957Y0052342D01*
X0195028Y0052288D01*
X0195095Y0052232D01*
X0195161Y0052172D01*
X0195223Y0052110D01*
X0195283Y0052044D01*
X0195339Y0051977D01*
X0195393Y0051906D01*
X0195443Y0051834D01*
X0195490Y0051759D01*
X0195534Y0051682D01*
X0195574Y0051603D01*
X0195611Y0051523D01*
X0195643Y0051441D01*
X0195673Y0051357D01*
X0195698Y0051273D01*
X0195720Y0051187D01*
X0195737Y0051101D01*
X0195751Y0051013D01*
X0195761Y0050925D01*
X0195767Y0050837D01*
X0195769Y0050749D01*
X0195767Y0050661D01*
X0195761Y0050573D01*
X0195751Y0050485D01*
X0195737Y0050397D01*
X0195720Y0050311D01*
X0195698Y0050225D01*
X0195673Y0050141D01*
X0195643Y0050057D01*
X0195611Y0049975D01*
X0195574Y0049895D01*
X0195534Y0049816D01*
X0195490Y0049739D01*
X0195443Y0049664D01*
X0195393Y0049592D01*
X0195339Y0049521D01*
X0195283Y0049454D01*
X0195223Y0049388D01*
X0195161Y0049326D01*
X0195095Y0049266D01*
X0195028Y0049210D01*
X0194957Y0049156D01*
X0194885Y0049106D01*
X0194810Y0049059D01*
X0194733Y0049015D01*
X0194654Y0048975D01*
X0194574Y0048938D01*
X0194492Y0048906D01*
X0194408Y0048876D01*
X0194324Y0048851D01*
X0194238Y0048829D01*
X0194152Y0048812D01*
X0194064Y0048798D01*
X0193976Y0048788D01*
X0193888Y0048782D01*
X0193800Y0048780D01*
X0193712Y0048782D01*
X0193624Y0048788D01*
X0193536Y0048798D01*
X0193448Y0048812D01*
X0193362Y0048829D01*
X0193276Y0048851D01*
X0193192Y0048876D01*
X0193108Y0048906D01*
X0193026Y0048938D01*
X0192946Y0048975D01*
X0192867Y0049015D01*
X0192790Y0049059D01*
X0192715Y0049106D01*
X0192643Y0049156D01*
X0192572Y0049210D01*
X0192505Y0049266D01*
X0192439Y0049326D01*
X0192377Y0049388D01*
X0192317Y0049454D01*
X0192261Y0049521D01*
X0192207Y0049592D01*
X0192157Y0049664D01*
X0192110Y0049739D01*
X0192066Y0049816D01*
X0192026Y0049895D01*
X0191989Y0049975D01*
X0191957Y0050057D01*
X0191927Y0050141D01*
X0191902Y0050225D01*
X0191880Y0050311D01*
X0191863Y0050397D01*
X0191849Y0050485D01*
X0191839Y0050573D01*
X0191833Y0050661D01*
X0191831Y0050749D01*
X0190831Y0164249D02*
X0190833Y0164337D01*
X0190839Y0164425D01*
X0190849Y0164513D01*
X0190863Y0164601D01*
X0190880Y0164687D01*
X0190902Y0164773D01*
X0190927Y0164857D01*
X0190957Y0164941D01*
X0190989Y0165023D01*
X0191026Y0165103D01*
X0191066Y0165182D01*
X0191110Y0165259D01*
X0191157Y0165334D01*
X0191207Y0165406D01*
X0191261Y0165477D01*
X0191317Y0165544D01*
X0191377Y0165610D01*
X0191439Y0165672D01*
X0191505Y0165732D01*
X0191572Y0165788D01*
X0191643Y0165842D01*
X0191715Y0165892D01*
X0191790Y0165939D01*
X0191867Y0165983D01*
X0191946Y0166023D01*
X0192026Y0166060D01*
X0192108Y0166092D01*
X0192192Y0166122D01*
X0192276Y0166147D01*
X0192362Y0166169D01*
X0192448Y0166186D01*
X0192536Y0166200D01*
X0192624Y0166210D01*
X0192712Y0166216D01*
X0192800Y0166218D01*
X0192888Y0166216D01*
X0192976Y0166210D01*
X0193064Y0166200D01*
X0193152Y0166186D01*
X0193238Y0166169D01*
X0193324Y0166147D01*
X0193408Y0166122D01*
X0193492Y0166092D01*
X0193574Y0166060D01*
X0193654Y0166023D01*
X0193733Y0165983D01*
X0193810Y0165939D01*
X0193885Y0165892D01*
X0193957Y0165842D01*
X0194028Y0165788D01*
X0194095Y0165732D01*
X0194161Y0165672D01*
X0194223Y0165610D01*
X0194283Y0165544D01*
X0194339Y0165477D01*
X0194393Y0165406D01*
X0194443Y0165334D01*
X0194490Y0165259D01*
X0194534Y0165182D01*
X0194574Y0165103D01*
X0194611Y0165023D01*
X0194643Y0164941D01*
X0194673Y0164857D01*
X0194698Y0164773D01*
X0194720Y0164687D01*
X0194737Y0164601D01*
X0194751Y0164513D01*
X0194761Y0164425D01*
X0194767Y0164337D01*
X0194769Y0164249D01*
X0194767Y0164161D01*
X0194761Y0164073D01*
X0194751Y0163985D01*
X0194737Y0163897D01*
X0194720Y0163811D01*
X0194698Y0163725D01*
X0194673Y0163641D01*
X0194643Y0163557D01*
X0194611Y0163475D01*
X0194574Y0163395D01*
X0194534Y0163316D01*
X0194490Y0163239D01*
X0194443Y0163164D01*
X0194393Y0163092D01*
X0194339Y0163021D01*
X0194283Y0162954D01*
X0194223Y0162888D01*
X0194161Y0162826D01*
X0194095Y0162766D01*
X0194028Y0162710D01*
X0193957Y0162656D01*
X0193885Y0162606D01*
X0193810Y0162559D01*
X0193733Y0162515D01*
X0193654Y0162475D01*
X0193574Y0162438D01*
X0193492Y0162406D01*
X0193408Y0162376D01*
X0193324Y0162351D01*
X0193238Y0162329D01*
X0193152Y0162312D01*
X0193064Y0162298D01*
X0192976Y0162288D01*
X0192888Y0162282D01*
X0192800Y0162280D01*
X0192712Y0162282D01*
X0192624Y0162288D01*
X0192536Y0162298D01*
X0192448Y0162312D01*
X0192362Y0162329D01*
X0192276Y0162351D01*
X0192192Y0162376D01*
X0192108Y0162406D01*
X0192026Y0162438D01*
X0191946Y0162475D01*
X0191867Y0162515D01*
X0191790Y0162559D01*
X0191715Y0162606D01*
X0191643Y0162656D01*
X0191572Y0162710D01*
X0191505Y0162766D01*
X0191439Y0162826D01*
X0191377Y0162888D01*
X0191317Y0162954D01*
X0191261Y0163021D01*
X0191207Y0163092D01*
X0191157Y0163164D01*
X0191110Y0163239D01*
X0191066Y0163316D01*
X0191026Y0163395D01*
X0190989Y0163475D01*
X0190957Y0163557D01*
X0190927Y0163641D01*
X0190902Y0163725D01*
X0190880Y0163811D01*
X0190863Y0163897D01*
X0190849Y0163985D01*
X0190839Y0164073D01*
X0190833Y0164161D01*
X0190831Y0164249D01*
X0190831Y0180249D02*
X0190833Y0180337D01*
X0190839Y0180425D01*
X0190849Y0180513D01*
X0190863Y0180601D01*
X0190880Y0180687D01*
X0190902Y0180773D01*
X0190927Y0180857D01*
X0190957Y0180941D01*
X0190989Y0181023D01*
X0191026Y0181103D01*
X0191066Y0181182D01*
X0191110Y0181259D01*
X0191157Y0181334D01*
X0191207Y0181406D01*
X0191261Y0181477D01*
X0191317Y0181544D01*
X0191377Y0181610D01*
X0191439Y0181672D01*
X0191505Y0181732D01*
X0191572Y0181788D01*
X0191643Y0181842D01*
X0191715Y0181892D01*
X0191790Y0181939D01*
X0191867Y0181983D01*
X0191946Y0182023D01*
X0192026Y0182060D01*
X0192108Y0182092D01*
X0192192Y0182122D01*
X0192276Y0182147D01*
X0192362Y0182169D01*
X0192448Y0182186D01*
X0192536Y0182200D01*
X0192624Y0182210D01*
X0192712Y0182216D01*
X0192800Y0182218D01*
X0192888Y0182216D01*
X0192976Y0182210D01*
X0193064Y0182200D01*
X0193152Y0182186D01*
X0193238Y0182169D01*
X0193324Y0182147D01*
X0193408Y0182122D01*
X0193492Y0182092D01*
X0193574Y0182060D01*
X0193654Y0182023D01*
X0193733Y0181983D01*
X0193810Y0181939D01*
X0193885Y0181892D01*
X0193957Y0181842D01*
X0194028Y0181788D01*
X0194095Y0181732D01*
X0194161Y0181672D01*
X0194223Y0181610D01*
X0194283Y0181544D01*
X0194339Y0181477D01*
X0194393Y0181406D01*
X0194443Y0181334D01*
X0194490Y0181259D01*
X0194534Y0181182D01*
X0194574Y0181103D01*
X0194611Y0181023D01*
X0194643Y0180941D01*
X0194673Y0180857D01*
X0194698Y0180773D01*
X0194720Y0180687D01*
X0194737Y0180601D01*
X0194751Y0180513D01*
X0194761Y0180425D01*
X0194767Y0180337D01*
X0194769Y0180249D01*
X0194767Y0180161D01*
X0194761Y0180073D01*
X0194751Y0179985D01*
X0194737Y0179897D01*
X0194720Y0179811D01*
X0194698Y0179725D01*
X0194673Y0179641D01*
X0194643Y0179557D01*
X0194611Y0179475D01*
X0194574Y0179395D01*
X0194534Y0179316D01*
X0194490Y0179239D01*
X0194443Y0179164D01*
X0194393Y0179092D01*
X0194339Y0179021D01*
X0194283Y0178954D01*
X0194223Y0178888D01*
X0194161Y0178826D01*
X0194095Y0178766D01*
X0194028Y0178710D01*
X0193957Y0178656D01*
X0193885Y0178606D01*
X0193810Y0178559D01*
X0193733Y0178515D01*
X0193654Y0178475D01*
X0193574Y0178438D01*
X0193492Y0178406D01*
X0193408Y0178376D01*
X0193324Y0178351D01*
X0193238Y0178329D01*
X0193152Y0178312D01*
X0193064Y0178298D01*
X0192976Y0178288D01*
X0192888Y0178282D01*
X0192800Y0178280D01*
X0192712Y0178282D01*
X0192624Y0178288D01*
X0192536Y0178298D01*
X0192448Y0178312D01*
X0192362Y0178329D01*
X0192276Y0178351D01*
X0192192Y0178376D01*
X0192108Y0178406D01*
X0192026Y0178438D01*
X0191946Y0178475D01*
X0191867Y0178515D01*
X0191790Y0178559D01*
X0191715Y0178606D01*
X0191643Y0178656D01*
X0191572Y0178710D01*
X0191505Y0178766D01*
X0191439Y0178826D01*
X0191377Y0178888D01*
X0191317Y0178954D01*
X0191261Y0179021D01*
X0191207Y0179092D01*
X0191157Y0179164D01*
X0191110Y0179239D01*
X0191066Y0179316D01*
X0191026Y0179395D01*
X0190989Y0179475D01*
X0190957Y0179557D01*
X0190927Y0179641D01*
X0190902Y0179725D01*
X0190880Y0179811D01*
X0190863Y0179897D01*
X0190849Y0179985D01*
X0190839Y0180073D01*
X0190833Y0180161D01*
X0190831Y0180249D01*
X0190831Y0197749D02*
X0190833Y0197837D01*
X0190839Y0197925D01*
X0190849Y0198013D01*
X0190863Y0198101D01*
X0190880Y0198187D01*
X0190902Y0198273D01*
X0190927Y0198357D01*
X0190957Y0198441D01*
X0190989Y0198523D01*
X0191026Y0198603D01*
X0191066Y0198682D01*
X0191110Y0198759D01*
X0191157Y0198834D01*
X0191207Y0198906D01*
X0191261Y0198977D01*
X0191317Y0199044D01*
X0191377Y0199110D01*
X0191439Y0199172D01*
X0191505Y0199232D01*
X0191572Y0199288D01*
X0191643Y0199342D01*
X0191715Y0199392D01*
X0191790Y0199439D01*
X0191867Y0199483D01*
X0191946Y0199523D01*
X0192026Y0199560D01*
X0192108Y0199592D01*
X0192192Y0199622D01*
X0192276Y0199647D01*
X0192362Y0199669D01*
X0192448Y0199686D01*
X0192536Y0199700D01*
X0192624Y0199710D01*
X0192712Y0199716D01*
X0192800Y0199718D01*
X0192888Y0199716D01*
X0192976Y0199710D01*
X0193064Y0199700D01*
X0193152Y0199686D01*
X0193238Y0199669D01*
X0193324Y0199647D01*
X0193408Y0199622D01*
X0193492Y0199592D01*
X0193574Y0199560D01*
X0193654Y0199523D01*
X0193733Y0199483D01*
X0193810Y0199439D01*
X0193885Y0199392D01*
X0193957Y0199342D01*
X0194028Y0199288D01*
X0194095Y0199232D01*
X0194161Y0199172D01*
X0194223Y0199110D01*
X0194283Y0199044D01*
X0194339Y0198977D01*
X0194393Y0198906D01*
X0194443Y0198834D01*
X0194490Y0198759D01*
X0194534Y0198682D01*
X0194574Y0198603D01*
X0194611Y0198523D01*
X0194643Y0198441D01*
X0194673Y0198357D01*
X0194698Y0198273D01*
X0194720Y0198187D01*
X0194737Y0198101D01*
X0194751Y0198013D01*
X0194761Y0197925D01*
X0194767Y0197837D01*
X0194769Y0197749D01*
X0194767Y0197661D01*
X0194761Y0197573D01*
X0194751Y0197485D01*
X0194737Y0197397D01*
X0194720Y0197311D01*
X0194698Y0197225D01*
X0194673Y0197141D01*
X0194643Y0197057D01*
X0194611Y0196975D01*
X0194574Y0196895D01*
X0194534Y0196816D01*
X0194490Y0196739D01*
X0194443Y0196664D01*
X0194393Y0196592D01*
X0194339Y0196521D01*
X0194283Y0196454D01*
X0194223Y0196388D01*
X0194161Y0196326D01*
X0194095Y0196266D01*
X0194028Y0196210D01*
X0193957Y0196156D01*
X0193885Y0196106D01*
X0193810Y0196059D01*
X0193733Y0196015D01*
X0193654Y0195975D01*
X0193574Y0195938D01*
X0193492Y0195906D01*
X0193408Y0195876D01*
X0193324Y0195851D01*
X0193238Y0195829D01*
X0193152Y0195812D01*
X0193064Y0195798D01*
X0192976Y0195788D01*
X0192888Y0195782D01*
X0192800Y0195780D01*
X0192712Y0195782D01*
X0192624Y0195788D01*
X0192536Y0195798D01*
X0192448Y0195812D01*
X0192362Y0195829D01*
X0192276Y0195851D01*
X0192192Y0195876D01*
X0192108Y0195906D01*
X0192026Y0195938D01*
X0191946Y0195975D01*
X0191867Y0196015D01*
X0191790Y0196059D01*
X0191715Y0196106D01*
X0191643Y0196156D01*
X0191572Y0196210D01*
X0191505Y0196266D01*
X0191439Y0196326D01*
X0191377Y0196388D01*
X0191317Y0196454D01*
X0191261Y0196521D01*
X0191207Y0196592D01*
X0191157Y0196664D01*
X0191110Y0196739D01*
X0191066Y0196816D01*
X0191026Y0196895D01*
X0190989Y0196975D01*
X0190957Y0197057D01*
X0190927Y0197141D01*
X0190902Y0197225D01*
X0190880Y0197311D01*
X0190863Y0197397D01*
X0190849Y0197485D01*
X0190839Y0197573D01*
X0190833Y0197661D01*
X0190831Y0197749D01*
X0037331Y0201749D02*
X0037333Y0201837D01*
X0037339Y0201925D01*
X0037349Y0202013D01*
X0037363Y0202101D01*
X0037380Y0202187D01*
X0037402Y0202273D01*
X0037427Y0202357D01*
X0037457Y0202441D01*
X0037489Y0202523D01*
X0037526Y0202603D01*
X0037566Y0202682D01*
X0037610Y0202759D01*
X0037657Y0202834D01*
X0037707Y0202906D01*
X0037761Y0202977D01*
X0037817Y0203044D01*
X0037877Y0203110D01*
X0037939Y0203172D01*
X0038005Y0203232D01*
X0038072Y0203288D01*
X0038143Y0203342D01*
X0038215Y0203392D01*
X0038290Y0203439D01*
X0038367Y0203483D01*
X0038446Y0203523D01*
X0038526Y0203560D01*
X0038608Y0203592D01*
X0038692Y0203622D01*
X0038776Y0203647D01*
X0038862Y0203669D01*
X0038948Y0203686D01*
X0039036Y0203700D01*
X0039124Y0203710D01*
X0039212Y0203716D01*
X0039300Y0203718D01*
X0039388Y0203716D01*
X0039476Y0203710D01*
X0039564Y0203700D01*
X0039652Y0203686D01*
X0039738Y0203669D01*
X0039824Y0203647D01*
X0039908Y0203622D01*
X0039992Y0203592D01*
X0040074Y0203560D01*
X0040154Y0203523D01*
X0040233Y0203483D01*
X0040310Y0203439D01*
X0040385Y0203392D01*
X0040457Y0203342D01*
X0040528Y0203288D01*
X0040595Y0203232D01*
X0040661Y0203172D01*
X0040723Y0203110D01*
X0040783Y0203044D01*
X0040839Y0202977D01*
X0040893Y0202906D01*
X0040943Y0202834D01*
X0040990Y0202759D01*
X0041034Y0202682D01*
X0041074Y0202603D01*
X0041111Y0202523D01*
X0041143Y0202441D01*
X0041173Y0202357D01*
X0041198Y0202273D01*
X0041220Y0202187D01*
X0041237Y0202101D01*
X0041251Y0202013D01*
X0041261Y0201925D01*
X0041267Y0201837D01*
X0041269Y0201749D01*
X0041267Y0201661D01*
X0041261Y0201573D01*
X0041251Y0201485D01*
X0041237Y0201397D01*
X0041220Y0201311D01*
X0041198Y0201225D01*
X0041173Y0201141D01*
X0041143Y0201057D01*
X0041111Y0200975D01*
X0041074Y0200895D01*
X0041034Y0200816D01*
X0040990Y0200739D01*
X0040943Y0200664D01*
X0040893Y0200592D01*
X0040839Y0200521D01*
X0040783Y0200454D01*
X0040723Y0200388D01*
X0040661Y0200326D01*
X0040595Y0200266D01*
X0040528Y0200210D01*
X0040457Y0200156D01*
X0040385Y0200106D01*
X0040310Y0200059D01*
X0040233Y0200015D01*
X0040154Y0199975D01*
X0040074Y0199938D01*
X0039992Y0199906D01*
X0039908Y0199876D01*
X0039824Y0199851D01*
X0039738Y0199829D01*
X0039652Y0199812D01*
X0039564Y0199798D01*
X0039476Y0199788D01*
X0039388Y0199782D01*
X0039300Y0199780D01*
X0039212Y0199782D01*
X0039124Y0199788D01*
X0039036Y0199798D01*
X0038948Y0199812D01*
X0038862Y0199829D01*
X0038776Y0199851D01*
X0038692Y0199876D01*
X0038608Y0199906D01*
X0038526Y0199938D01*
X0038446Y0199975D01*
X0038367Y0200015D01*
X0038290Y0200059D01*
X0038215Y0200106D01*
X0038143Y0200156D01*
X0038072Y0200210D01*
X0038005Y0200266D01*
X0037939Y0200326D01*
X0037877Y0200388D01*
X0037817Y0200454D01*
X0037761Y0200521D01*
X0037707Y0200592D01*
X0037657Y0200664D01*
X0037610Y0200739D01*
X0037566Y0200816D01*
X0037526Y0200895D01*
X0037489Y0200975D01*
X0037457Y0201057D01*
X0037427Y0201141D01*
X0037402Y0201225D01*
X0037380Y0201311D01*
X0037363Y0201397D01*
X0037349Y0201485D01*
X0037339Y0201573D01*
X0037333Y0201661D01*
X0037331Y0201749D01*
X0019831Y0201749D02*
X0019833Y0201837D01*
X0019839Y0201925D01*
X0019849Y0202013D01*
X0019863Y0202101D01*
X0019880Y0202187D01*
X0019902Y0202273D01*
X0019927Y0202357D01*
X0019957Y0202441D01*
X0019989Y0202523D01*
X0020026Y0202603D01*
X0020066Y0202682D01*
X0020110Y0202759D01*
X0020157Y0202834D01*
X0020207Y0202906D01*
X0020261Y0202977D01*
X0020317Y0203044D01*
X0020377Y0203110D01*
X0020439Y0203172D01*
X0020505Y0203232D01*
X0020572Y0203288D01*
X0020643Y0203342D01*
X0020715Y0203392D01*
X0020790Y0203439D01*
X0020867Y0203483D01*
X0020946Y0203523D01*
X0021026Y0203560D01*
X0021108Y0203592D01*
X0021192Y0203622D01*
X0021276Y0203647D01*
X0021362Y0203669D01*
X0021448Y0203686D01*
X0021536Y0203700D01*
X0021624Y0203710D01*
X0021712Y0203716D01*
X0021800Y0203718D01*
X0021888Y0203716D01*
X0021976Y0203710D01*
X0022064Y0203700D01*
X0022152Y0203686D01*
X0022238Y0203669D01*
X0022324Y0203647D01*
X0022408Y0203622D01*
X0022492Y0203592D01*
X0022574Y0203560D01*
X0022654Y0203523D01*
X0022733Y0203483D01*
X0022810Y0203439D01*
X0022885Y0203392D01*
X0022957Y0203342D01*
X0023028Y0203288D01*
X0023095Y0203232D01*
X0023161Y0203172D01*
X0023223Y0203110D01*
X0023283Y0203044D01*
X0023339Y0202977D01*
X0023393Y0202906D01*
X0023443Y0202834D01*
X0023490Y0202759D01*
X0023534Y0202682D01*
X0023574Y0202603D01*
X0023611Y0202523D01*
X0023643Y0202441D01*
X0023673Y0202357D01*
X0023698Y0202273D01*
X0023720Y0202187D01*
X0023737Y0202101D01*
X0023751Y0202013D01*
X0023761Y0201925D01*
X0023767Y0201837D01*
X0023769Y0201749D01*
X0023767Y0201661D01*
X0023761Y0201573D01*
X0023751Y0201485D01*
X0023737Y0201397D01*
X0023720Y0201311D01*
X0023698Y0201225D01*
X0023673Y0201141D01*
X0023643Y0201057D01*
X0023611Y0200975D01*
X0023574Y0200895D01*
X0023534Y0200816D01*
X0023490Y0200739D01*
X0023443Y0200664D01*
X0023393Y0200592D01*
X0023339Y0200521D01*
X0023283Y0200454D01*
X0023223Y0200388D01*
X0023161Y0200326D01*
X0023095Y0200266D01*
X0023028Y0200210D01*
X0022957Y0200156D01*
X0022885Y0200106D01*
X0022810Y0200059D01*
X0022733Y0200015D01*
X0022654Y0199975D01*
X0022574Y0199938D01*
X0022492Y0199906D01*
X0022408Y0199876D01*
X0022324Y0199851D01*
X0022238Y0199829D01*
X0022152Y0199812D01*
X0022064Y0199798D01*
X0021976Y0199788D01*
X0021888Y0199782D01*
X0021800Y0199780D01*
X0021712Y0199782D01*
X0021624Y0199788D01*
X0021536Y0199798D01*
X0021448Y0199812D01*
X0021362Y0199829D01*
X0021276Y0199851D01*
X0021192Y0199876D01*
X0021108Y0199906D01*
X0021026Y0199938D01*
X0020946Y0199975D01*
X0020867Y0200015D01*
X0020790Y0200059D01*
X0020715Y0200106D01*
X0020643Y0200156D01*
X0020572Y0200210D01*
X0020505Y0200266D01*
X0020439Y0200326D01*
X0020377Y0200388D01*
X0020317Y0200454D01*
X0020261Y0200521D01*
X0020207Y0200592D01*
X0020157Y0200664D01*
X0020110Y0200739D01*
X0020066Y0200816D01*
X0020026Y0200895D01*
X0019989Y0200975D01*
X0019957Y0201057D01*
X0019927Y0201141D01*
X0019902Y0201225D01*
X0019880Y0201311D01*
X0019863Y0201397D01*
X0019849Y0201485D01*
X0019839Y0201573D01*
X0019833Y0201661D01*
X0019831Y0201749D01*
D11*
X0041028Y0038398D03*
X0036304Y0035249D03*
X0041028Y0032099D03*
X0036304Y0028950D03*
X0041028Y0025800D03*
D12*
X0020950Y0017729D03*
X0020950Y0046469D03*
D13*
X0029454Y0053398D03*
X0040654Y0053398D03*
X0051950Y0058347D03*
X0061950Y0058347D03*
X0056950Y0048898D03*
X0061950Y0041398D03*
X0051950Y0041398D03*
X0051950Y0027146D03*
X0061950Y0027146D03*
X0061950Y0016497D03*
X0051950Y0016497D03*
X0070650Y0035052D03*
X0061950Y0070198D03*
X0051950Y0070198D03*
X0040654Y0093398D03*
X0029454Y0093398D03*
X0110650Y0035052D03*
X0120450Y0048245D03*
X0121450Y0020044D03*
X0111450Y0020044D03*
X0156450Y0020694D03*
X0166450Y0020694D03*
X0160450Y0048245D03*
X0156394Y0101099D03*
X0177556Y0119898D03*
D14*
X0102698Y0017548D03*
X0071202Y0017548D03*
D15*
X0079076Y0017548D03*
X0086950Y0017548D03*
X0094824Y0017548D03*
D16*
X0177556Y0099898D03*
X0156394Y0121099D03*
D17*
X0158800Y0088249D03*
X0158800Y0078249D03*
X0158800Y0068249D03*
X0137800Y0036249D03*
X0137800Y0016249D03*
X0184800Y0015749D03*
X0184800Y0035749D03*
X0197800Y0075249D03*
X0197800Y0085249D03*
X0197800Y0095249D03*
X0197800Y0105249D03*
X0197800Y0115249D03*
X0197800Y0125249D03*
X0197800Y0135249D03*
X0197800Y0145249D03*
X0010906Y0156398D03*
X0010906Y0166398D03*
X0010906Y0176398D03*
X0010906Y0186398D03*
X0010906Y0196398D03*
X0010300Y0145249D03*
X0010300Y0135249D03*
X0010300Y0125249D03*
X0010300Y0115249D03*
X0010300Y0105249D03*
X0010300Y0095249D03*
X0010300Y0085249D03*
X0010300Y0075249D03*
D18*
X0107700Y0075249D02*
X0112900Y0075249D01*
X0112900Y0085249D02*
X0107700Y0085249D01*
X0107700Y0095249D02*
X0112900Y0095249D01*
X0112900Y0105249D02*
X0107700Y0105249D01*
X0107700Y0115249D02*
X0112900Y0115249D01*
X0112900Y0125249D02*
X0107700Y0125249D01*
X0107700Y0135249D02*
X0112900Y0135249D01*
X0112900Y0145249D02*
X0107700Y0145249D01*
X0107700Y0155249D02*
X0112900Y0155249D01*
X0112900Y0165249D02*
X0107700Y0165249D01*
X0107700Y0175249D02*
X0112900Y0175249D01*
X0112900Y0185249D02*
X0107700Y0185249D01*
X0107700Y0195249D02*
X0112900Y0195249D01*
X0137700Y0195249D02*
X0142900Y0195249D01*
X0142900Y0185249D02*
X0137700Y0185249D01*
X0137700Y0175249D02*
X0142900Y0175249D01*
X0142900Y0165249D02*
X0137700Y0165249D01*
X0137700Y0155249D02*
X0142900Y0155249D01*
X0142900Y0145249D02*
X0137700Y0145249D01*
X0137700Y0135249D02*
X0142900Y0135249D01*
X0142900Y0125249D02*
X0137700Y0125249D01*
X0137700Y0115249D02*
X0142900Y0115249D01*
X0142900Y0105249D02*
X0137700Y0105249D01*
X0137700Y0095249D02*
X0142900Y0095249D01*
X0142900Y0085249D02*
X0137700Y0085249D01*
X0137700Y0075249D02*
X0142900Y0075249D01*
X0142900Y0065249D02*
X0137700Y0065249D01*
X0112900Y0065249D02*
X0107700Y0065249D01*
D19*
X0110300Y0075249D02*
X0115300Y0080249D01*
X0125300Y0080249D01*
X0131800Y0082749D02*
X0127800Y0086749D01*
X0118800Y0086749D01*
X0110300Y0095249D01*
X0120800Y0093249D02*
X0138000Y0111449D01*
X0144474Y0111449D01*
X0146700Y0113675D01*
X0146700Y0120149D01*
X0147650Y0121099D01*
X0156394Y0121099D01*
X0131800Y0082749D02*
X0131800Y0065775D01*
X0136126Y0061449D01*
X0139600Y0061449D01*
X0145800Y0055249D01*
X0150300Y0069749D02*
X0150300Y0026843D01*
X0156450Y0020694D01*
X0137800Y0016249D02*
X0125300Y0029749D01*
X0125300Y0070249D01*
X0080300Y0066875D02*
X0080300Y0108249D01*
X0070300Y0112749D02*
X0070300Y0069245D01*
X0063202Y0062147D01*
X0060376Y0062147D01*
X0058150Y0059921D01*
X0058150Y0057094D01*
X0043228Y0042173D01*
X0039465Y0042173D01*
X0037254Y0039962D01*
X0037254Y0036198D01*
X0036304Y0035249D01*
X0041028Y0032099D02*
X0048150Y0039220D01*
X0048150Y0042972D01*
X0050376Y0045198D01*
X0055276Y0045198D01*
X0055376Y0045098D01*
X0058524Y0045098D01*
X0080300Y0066875D01*
X0075300Y0050249D02*
X0065750Y0040698D01*
X0065750Y0039824D01*
X0063524Y0037598D01*
X0055924Y0037598D01*
X0053074Y0034749D01*
X0050800Y0034749D01*
X0049950Y0038475D02*
X0045300Y0033825D01*
X0045300Y0030249D01*
X0049950Y0038475D02*
X0049950Y0039398D01*
X0051950Y0041398D01*
X0057800Y0034249D02*
X0061102Y0030946D01*
X0072524Y0030946D01*
X0085922Y0017548D01*
X0086950Y0017548D01*
X0044454Y0051824D02*
X0044454Y0081272D01*
X0044277Y0081272D01*
X0035300Y0090249D01*
X0035300Y0096902D01*
X0026954Y0105249D01*
X0026954Y0141902D01*
X0045300Y0160249D01*
X0055300Y0180249D02*
X0080300Y0155249D01*
X0110300Y0155249D01*
X0110300Y0165249D02*
X0080300Y0165249D01*
X0055300Y0190249D01*
X0015300Y0100249D02*
X0023154Y0092395D01*
X0023154Y0091824D01*
X0025380Y0089598D01*
X0025950Y0089598D01*
X0040654Y0074894D01*
X0040654Y0053398D01*
X0039080Y0049598D02*
X0035280Y0053398D01*
X0029454Y0053398D01*
X0039080Y0049598D02*
X0042228Y0049598D01*
X0044454Y0051824D01*
X0045477Y0080249D02*
X0055300Y0080249D01*
X0045477Y0080249D02*
X0044454Y0081272D01*
D20*
X0055300Y0080249D03*
X0075300Y0050249D03*
X0057800Y0034249D03*
X0050800Y0034749D03*
X0015300Y0100249D03*
X0070300Y0112749D03*
X0080300Y0108249D03*
X0120800Y0093249D03*
X0125300Y0080249D03*
X0125300Y0070249D03*
X0145800Y0055249D03*
X0150300Y0069749D03*
X0045300Y0160249D03*
X0055300Y0180249D03*
X0055300Y0190249D03*
D21*
X0057297Y0192196D02*
X0104954Y0192196D01*
X0105378Y0191773D02*
X0104224Y0192926D01*
X0103600Y0194433D01*
X0103600Y0196064D01*
X0104224Y0197571D01*
X0105378Y0198725D01*
X0106884Y0199349D01*
X0113716Y0199349D01*
X0115222Y0198725D01*
X0116376Y0197571D01*
X0117000Y0196064D01*
X0117000Y0194433D01*
X0116376Y0192926D01*
X0115222Y0191773D01*
X0113716Y0191149D01*
X0106884Y0191149D01*
X0105378Y0191773D01*
X0105801Y0191598D02*
X0057760Y0191598D01*
X0057664Y0191829D02*
X0056880Y0192613D01*
X0055855Y0193038D01*
X0054745Y0193038D01*
X0053720Y0192613D01*
X0052936Y0191829D01*
X0052511Y0190804D01*
X0052511Y0189694D01*
X0052936Y0188669D01*
X0053720Y0187884D01*
X0054745Y0187460D01*
X0055119Y0187460D01*
X0078200Y0164379D01*
X0079430Y0163149D01*
X0104132Y0163149D01*
X0104224Y0162926D01*
X0105378Y0161773D01*
X0106884Y0161149D01*
X0113716Y0161149D01*
X0115222Y0161773D01*
X0116376Y0162926D01*
X0117000Y0164433D01*
X0117000Y0166064D01*
X0116376Y0167571D01*
X0115222Y0168725D01*
X0113716Y0169349D01*
X0106884Y0169349D01*
X0105378Y0168725D01*
X0104224Y0167571D01*
X0104132Y0167349D01*
X0081170Y0167349D01*
X0058089Y0190430D01*
X0058089Y0190804D01*
X0057664Y0191829D01*
X0058008Y0190999D02*
X0200650Y0190999D01*
X0200650Y0190401D02*
X0058118Y0190401D01*
X0058716Y0189802D02*
X0200650Y0189802D01*
X0200650Y0189204D02*
X0114066Y0189204D01*
X0113716Y0189349D02*
X0115222Y0188725D01*
X0116376Y0187571D01*
X0117000Y0186064D01*
X0117000Y0184433D01*
X0116376Y0182926D01*
X0115222Y0181773D01*
X0113716Y0181149D01*
X0106884Y0181149D01*
X0105378Y0181773D01*
X0104224Y0182926D01*
X0103600Y0184433D01*
X0103600Y0186064D01*
X0104224Y0187571D01*
X0105378Y0188725D01*
X0106884Y0189349D01*
X0113716Y0189349D01*
X0115342Y0188605D02*
X0135703Y0188605D01*
X0135853Y0188705D02*
X0135214Y0188278D01*
X0134671Y0187735D01*
X0134244Y0187096D01*
X0133950Y0186386D01*
X0133800Y0185633D01*
X0133800Y0185549D01*
X0140000Y0185549D01*
X0140000Y0189149D01*
X0137316Y0189149D01*
X0136562Y0188999D01*
X0135853Y0188705D01*
X0134942Y0188007D02*
X0115940Y0188007D01*
X0116443Y0187408D02*
X0134452Y0187408D01*
X0134125Y0186810D02*
X0116691Y0186810D01*
X0116939Y0186211D02*
X0133915Y0186211D01*
X0133800Y0185613D02*
X0117000Y0185613D01*
X0117000Y0185014D02*
X0140000Y0185014D01*
X0140000Y0184949D02*
X0133800Y0184949D01*
X0133800Y0184865D01*
X0133950Y0184111D01*
X0134244Y0183401D01*
X0134671Y0182763D01*
X0135214Y0182219D01*
X0135853Y0181793D01*
X0136562Y0181499D01*
X0137316Y0181349D01*
X0140000Y0181349D01*
X0140000Y0184949D01*
X0140000Y0185549D01*
X0140600Y0185549D01*
X0140600Y0189149D01*
X0143284Y0189149D01*
X0144038Y0188999D01*
X0144747Y0188705D01*
X0145386Y0188278D01*
X0145929Y0187735D01*
X0146356Y0187096D01*
X0146650Y0186386D01*
X0146800Y0185633D01*
X0146800Y0185549D01*
X0140600Y0185549D01*
X0140600Y0184949D01*
X0146800Y0184949D01*
X0146800Y0184865D01*
X0146650Y0184111D01*
X0146356Y0183401D01*
X0145929Y0182763D01*
X0145386Y0182219D01*
X0144747Y0181793D01*
X0144038Y0181499D01*
X0143284Y0181349D01*
X0140600Y0181349D01*
X0140600Y0184949D01*
X0140000Y0184949D01*
X0140000Y0184416D02*
X0140600Y0184416D01*
X0140600Y0185014D02*
X0200650Y0185014D01*
X0200650Y0184416D02*
X0146711Y0184416D01*
X0146528Y0183817D02*
X0200650Y0183817D01*
X0200650Y0183219D02*
X0194694Y0183219D01*
X0194765Y0183189D02*
X0193490Y0183717D01*
X0192110Y0183717D01*
X0190835Y0183189D01*
X0189860Y0182214D01*
X0189331Y0180939D01*
X0189331Y0179559D01*
X0189860Y0178284D01*
X0190835Y0177308D01*
X0192110Y0176780D01*
X0193490Y0176780D01*
X0194765Y0177308D01*
X0195740Y0178284D01*
X0196268Y0179559D01*
X0196268Y0180939D01*
X0195740Y0182214D01*
X0194765Y0183189D01*
X0195334Y0182620D02*
X0200650Y0182620D01*
X0200650Y0182022D02*
X0195820Y0182022D01*
X0196068Y0181423D02*
X0200650Y0181423D01*
X0200650Y0180825D02*
X0196268Y0180825D01*
X0196268Y0180226D02*
X0200650Y0180226D01*
X0200650Y0179628D02*
X0196268Y0179628D01*
X0196049Y0179029D02*
X0200650Y0179029D01*
X0200650Y0178430D02*
X0195801Y0178430D01*
X0195288Y0177832D02*
X0200650Y0177832D01*
X0200650Y0177233D02*
X0194584Y0177233D01*
X0191016Y0177233D02*
X0146516Y0177233D01*
X0146376Y0177571D02*
X0145222Y0178725D01*
X0143716Y0179349D01*
X0136884Y0179349D01*
X0135378Y0178725D01*
X0134224Y0177571D01*
X0133600Y0176064D01*
X0133600Y0174433D01*
X0134224Y0172926D01*
X0135378Y0171773D01*
X0136884Y0171149D01*
X0143716Y0171149D01*
X0145222Y0171773D01*
X0146376Y0172926D01*
X0147000Y0174433D01*
X0147000Y0176064D01*
X0146376Y0177571D01*
X0146115Y0177832D02*
X0190312Y0177832D01*
X0189799Y0178430D02*
X0145517Y0178430D01*
X0144488Y0179029D02*
X0189551Y0179029D01*
X0189331Y0179628D02*
X0068891Y0179628D01*
X0068293Y0180226D02*
X0189331Y0180226D01*
X0189331Y0180825D02*
X0067694Y0180825D01*
X0067096Y0181423D02*
X0106222Y0181423D01*
X0105129Y0182022D02*
X0066497Y0182022D01*
X0065899Y0182620D02*
X0104530Y0182620D01*
X0104103Y0183219D02*
X0065300Y0183219D01*
X0064702Y0183817D02*
X0103855Y0183817D01*
X0103607Y0184416D02*
X0064103Y0184416D01*
X0063505Y0185014D02*
X0103600Y0185014D01*
X0103600Y0185613D02*
X0062906Y0185613D01*
X0062308Y0186211D02*
X0103661Y0186211D01*
X0103909Y0186810D02*
X0061709Y0186810D01*
X0061110Y0187408D02*
X0104157Y0187408D01*
X0104660Y0188007D02*
X0060512Y0188007D01*
X0059913Y0188605D02*
X0105258Y0188605D01*
X0106534Y0189204D02*
X0059315Y0189204D01*
X0056368Y0186211D02*
X0016106Y0186211D01*
X0016106Y0185613D02*
X0056966Y0185613D01*
X0057565Y0185014D02*
X0015961Y0185014D01*
X0016106Y0185364D02*
X0016106Y0187433D01*
X0015315Y0189344D01*
X0013852Y0190807D01*
X0012423Y0191398D01*
X0013852Y0191990D01*
X0015315Y0193453D01*
X0016106Y0195364D01*
X0016106Y0197433D01*
X0015315Y0199344D01*
X0013852Y0200807D01*
X0011941Y0201598D01*
X0009872Y0201598D01*
X0007961Y0200807D01*
X0006800Y0199646D01*
X0006800Y0205599D01*
X0200650Y0205599D01*
X0200650Y0149697D01*
X0198834Y0150449D01*
X0196766Y0150449D01*
X0194854Y0149657D01*
X0193392Y0148194D01*
X0192600Y0146283D01*
X0192600Y0144214D01*
X0193392Y0142303D01*
X0194854Y0140840D01*
X0196283Y0140249D01*
X0194854Y0139657D01*
X0193392Y0138194D01*
X0192600Y0136283D01*
X0192600Y0134214D01*
X0193392Y0132303D01*
X0194854Y0130840D01*
X0196283Y0130249D01*
X0194854Y0129657D01*
X0193392Y0128194D01*
X0192600Y0126283D01*
X0192600Y0124214D01*
X0193392Y0122303D01*
X0194854Y0120840D01*
X0196283Y0120249D01*
X0194854Y0119657D01*
X0193392Y0118194D01*
X0192600Y0116283D01*
X0192600Y0114214D01*
X0193392Y0112303D01*
X0194854Y0110840D01*
X0196283Y0110249D01*
X0194854Y0109657D01*
X0193392Y0108194D01*
X0192600Y0106283D01*
X0192600Y0104214D01*
X0193392Y0102303D01*
X0194854Y0100840D01*
X0196283Y0100249D01*
X0194854Y0099657D01*
X0193392Y0098194D01*
X0192600Y0096283D01*
X0192600Y0094214D01*
X0193392Y0092303D01*
X0194854Y0090840D01*
X0196283Y0090249D01*
X0194854Y0089657D01*
X0193392Y0088194D01*
X0192600Y0086283D01*
X0192600Y0084214D01*
X0193392Y0082303D01*
X0194854Y0080840D01*
X0196602Y0080117D01*
X0195881Y0079882D01*
X0195179Y0079525D01*
X0194543Y0079063D01*
X0193986Y0078506D01*
X0193524Y0077869D01*
X0193166Y0077168D01*
X0192923Y0076420D01*
X0192800Y0075642D01*
X0192800Y0075549D01*
X0197500Y0075549D01*
X0197500Y0074949D01*
X0192800Y0074949D01*
X0192800Y0074855D01*
X0192923Y0074078D01*
X0193166Y0073329D01*
X0193524Y0072628D01*
X0193986Y0071992D01*
X0194543Y0071435D01*
X0195179Y0070972D01*
X0195881Y0070615D01*
X0196629Y0070372D01*
X0197406Y0070249D01*
X0197500Y0070249D01*
X0197500Y0074949D01*
X0198100Y0074949D01*
X0198100Y0070249D01*
X0198194Y0070249D01*
X0198971Y0070372D01*
X0199719Y0070615D01*
X0200421Y0070972D01*
X0200650Y0071139D01*
X0200650Y0011749D01*
X0188154Y0011749D01*
X0189208Y0012803D01*
X0190000Y0014714D01*
X0190000Y0016783D01*
X0189208Y0018694D01*
X0187746Y0020157D01*
X0185834Y0020949D01*
X0183766Y0020949D01*
X0181854Y0020157D01*
X0180392Y0018694D01*
X0179600Y0016783D01*
X0179600Y0014714D01*
X0180392Y0012803D01*
X0181446Y0011749D01*
X0140524Y0011749D01*
X0140746Y0011840D01*
X0142208Y0013303D01*
X0143000Y0015214D01*
X0143000Y0017283D01*
X0142208Y0019194D01*
X0140746Y0020657D01*
X0138834Y0021449D01*
X0136766Y0021449D01*
X0136102Y0021174D01*
X0127400Y0030572D01*
X0127400Y0068405D01*
X0127664Y0068669D01*
X0128089Y0069694D01*
X0128089Y0070804D01*
X0127664Y0071829D01*
X0126880Y0072613D01*
X0125855Y0073038D01*
X0124745Y0073038D01*
X0123720Y0072613D01*
X0122936Y0071829D01*
X0122511Y0070804D01*
X0122511Y0069694D01*
X0122936Y0068669D01*
X0123200Y0068405D01*
X0123200Y0051010D01*
X0122065Y0052145D01*
X0120750Y0052145D01*
X0120750Y0048545D01*
X0120150Y0048545D01*
X0120150Y0052145D01*
X0118834Y0052145D01*
X0116550Y0049860D01*
X0116550Y0048545D01*
X0120150Y0048545D01*
X0120150Y0047945D01*
X0120750Y0047945D01*
X0120750Y0044345D01*
X0122065Y0044345D01*
X0123200Y0045480D01*
X0123200Y0029789D01*
X0123168Y0028960D01*
X0123200Y0028926D01*
X0123200Y0028879D01*
X0123787Y0028292D01*
X0133027Y0018313D01*
X0132600Y0017283D01*
X0132600Y0015214D01*
X0133392Y0013303D01*
X0134854Y0011840D01*
X0135076Y0011749D01*
X0025025Y0011749D01*
X0026977Y0013702D01*
X0028060Y0016315D01*
X0028060Y0019143D01*
X0026977Y0021757D01*
X0024977Y0023757D01*
X0022364Y0024839D01*
X0019535Y0024839D01*
X0016922Y0023757D01*
X0014922Y0021757D01*
X0013839Y0019143D01*
X0013839Y0016315D01*
X0014922Y0013702D01*
X0016875Y0011749D01*
X0006800Y0011749D01*
X0006800Y0071678D01*
X0007043Y0071435D01*
X0007679Y0070972D01*
X0008381Y0070615D01*
X0009129Y0070372D01*
X0009906Y0070249D01*
X0010000Y0070249D01*
X0010000Y0074949D01*
X0010600Y0074949D01*
X0010600Y0075549D01*
X0015300Y0075549D01*
X0015300Y0075642D01*
X0015177Y0076420D01*
X0014934Y0077168D01*
X0014576Y0077869D01*
X0014114Y0078506D01*
X0013557Y0079063D01*
X0012921Y0079525D01*
X0012219Y0079882D01*
X0011498Y0080117D01*
X0013246Y0080840D01*
X0014708Y0082303D01*
X0015500Y0084214D01*
X0015500Y0086283D01*
X0014708Y0088194D01*
X0013246Y0089657D01*
X0011817Y0090249D01*
X0013246Y0090840D01*
X0014708Y0092303D01*
X0015500Y0094214D01*
X0015500Y0096283D01*
X0015013Y0097460D01*
X0015119Y0097460D01*
X0021054Y0091525D01*
X0021054Y0090955D01*
X0023280Y0088729D01*
X0024510Y0087498D01*
X0025081Y0087498D01*
X0038554Y0074025D01*
X0038554Y0057097D01*
X0036554Y0055097D01*
X0036554Y0055094D01*
X0036150Y0055498D01*
X0033152Y0055498D01*
X0031152Y0057498D01*
X0027755Y0057498D01*
X0025354Y0055097D01*
X0025354Y0052121D01*
X0024977Y0052497D01*
X0022364Y0053580D01*
X0019535Y0053580D01*
X0016922Y0052497D01*
X0014922Y0050497D01*
X0013839Y0047884D01*
X0013839Y0045055D01*
X0014922Y0042442D01*
X0016922Y0040442D01*
X0019535Y0039359D01*
X0022364Y0039359D01*
X0024977Y0040442D01*
X0026977Y0042442D01*
X0028060Y0045055D01*
X0028060Y0047884D01*
X0027275Y0049779D01*
X0027755Y0049298D01*
X0031152Y0049298D01*
X0033152Y0051298D01*
X0034410Y0051298D01*
X0038210Y0047498D01*
X0043098Y0047498D01*
X0044328Y0048729D01*
X0045324Y0049724D01*
X0046554Y0050955D01*
X0046554Y0078149D01*
X0053456Y0078149D01*
X0053720Y0077884D01*
X0054745Y0077460D01*
X0055855Y0077460D01*
X0056880Y0077884D01*
X0057664Y0078669D01*
X0058089Y0079694D01*
X0058089Y0080804D01*
X0057664Y0081829D01*
X0056880Y0082613D01*
X0055855Y0083038D01*
X0054745Y0083038D01*
X0053720Y0082613D01*
X0053456Y0082349D01*
X0046347Y0082349D01*
X0045324Y0083372D01*
X0045147Y0083372D01*
X0039220Y0089298D01*
X0042353Y0089298D01*
X0044754Y0091700D01*
X0044754Y0095097D01*
X0042353Y0097498D01*
X0038956Y0097498D01*
X0037400Y0095942D01*
X0037400Y0097772D01*
X0036170Y0099002D01*
X0029054Y0106119D01*
X0029054Y0141033D01*
X0045481Y0157460D01*
X0045855Y0157460D01*
X0046880Y0157884D01*
X0047664Y0158669D01*
X0048089Y0159694D01*
X0048089Y0160804D01*
X0047664Y0161829D01*
X0046880Y0162613D01*
X0045855Y0163038D01*
X0044745Y0163038D01*
X0043720Y0162613D01*
X0042936Y0161829D01*
X0042511Y0160804D01*
X0042511Y0160430D01*
X0026084Y0144002D01*
X0026084Y0144002D01*
X0024854Y0142772D01*
X0024854Y0104379D01*
X0033200Y0096033D01*
X0033200Y0095450D01*
X0031152Y0097498D01*
X0027755Y0097498D01*
X0025354Y0095097D01*
X0025354Y0092594D01*
X0025254Y0092694D01*
X0025254Y0093265D01*
X0024023Y0094495D01*
X0018089Y0100430D01*
X0018089Y0100804D01*
X0017664Y0101829D01*
X0016880Y0102613D01*
X0015855Y0103038D01*
X0015013Y0103038D01*
X0015500Y0104214D01*
X0015500Y0106283D01*
X0014708Y0108194D01*
X0013246Y0109657D01*
X0011817Y0110249D01*
X0013246Y0110840D01*
X0014708Y0112303D01*
X0015500Y0114214D01*
X0015500Y0116283D01*
X0014708Y0118194D01*
X0013246Y0119657D01*
X0011817Y0120249D01*
X0013246Y0120840D01*
X0014708Y0122303D01*
X0015500Y0124214D01*
X0015500Y0126283D01*
X0014708Y0128194D01*
X0013246Y0129657D01*
X0011817Y0130249D01*
X0013246Y0130840D01*
X0014708Y0132303D01*
X0015500Y0134214D01*
X0015500Y0136283D01*
X0014708Y0138194D01*
X0013246Y0139657D01*
X0011817Y0140249D01*
X0013246Y0140840D01*
X0014708Y0142303D01*
X0015500Y0144214D01*
X0015500Y0146283D01*
X0014708Y0148194D01*
X0013246Y0149657D01*
X0011334Y0150449D01*
X0009266Y0150449D01*
X0007354Y0149657D01*
X0006800Y0149103D01*
X0006800Y0153151D01*
X0007961Y0151990D01*
X0009872Y0151198D01*
X0011941Y0151198D01*
X0013852Y0151990D01*
X0015315Y0153453D01*
X0016106Y0155364D01*
X0016106Y0157433D01*
X0015315Y0159344D01*
X0013852Y0160807D01*
X0012423Y0161398D01*
X0013852Y0161990D01*
X0015315Y0163453D01*
X0016106Y0165364D01*
X0016106Y0167433D01*
X0015315Y0169344D01*
X0013852Y0170807D01*
X0012105Y0171530D01*
X0012826Y0171765D01*
X0013527Y0172122D01*
X0014164Y0172585D01*
X0014720Y0173141D01*
X0015183Y0173778D01*
X0015540Y0174479D01*
X0015783Y0175228D01*
X0015906Y0176005D01*
X0015906Y0176098D01*
X0011206Y0176098D01*
X0011206Y0176698D01*
X0015906Y0176698D01*
X0015906Y0176792D01*
X0015783Y0177569D01*
X0015540Y0178318D01*
X0015183Y0179019D01*
X0014720Y0179656D01*
X0014164Y0180212D01*
X0013527Y0180675D01*
X0012826Y0181032D01*
X0012105Y0181266D01*
X0013852Y0181990D01*
X0015315Y0183453D01*
X0016106Y0185364D01*
X0015713Y0184416D02*
X0058163Y0184416D01*
X0058762Y0183817D02*
X0015466Y0183817D01*
X0015080Y0183219D02*
X0059360Y0183219D01*
X0059959Y0182620D02*
X0056863Y0182620D01*
X0056880Y0182613D02*
X0055855Y0183038D01*
X0054745Y0183038D01*
X0053720Y0182613D01*
X0052936Y0181829D01*
X0052511Y0180804D01*
X0052511Y0179694D01*
X0052936Y0178669D01*
X0053720Y0177884D01*
X0054745Y0177460D01*
X0055119Y0177460D01*
X0078200Y0154379D01*
X0079430Y0153149D01*
X0104132Y0153149D01*
X0104224Y0152926D01*
X0105378Y0151773D01*
X0106884Y0151149D01*
X0113716Y0151149D01*
X0115222Y0151773D01*
X0116376Y0152926D01*
X0117000Y0154433D01*
X0117000Y0156064D01*
X0116376Y0157571D01*
X0115222Y0158725D01*
X0113716Y0159349D01*
X0106884Y0159349D01*
X0105378Y0158725D01*
X0104224Y0157571D01*
X0104132Y0157349D01*
X0081170Y0157349D01*
X0058089Y0180430D01*
X0058089Y0180804D01*
X0057664Y0181829D01*
X0056880Y0182613D01*
X0057471Y0182022D02*
X0060557Y0182022D01*
X0061156Y0181423D02*
X0057832Y0181423D01*
X0058080Y0180825D02*
X0061754Y0180825D01*
X0062353Y0180226D02*
X0058293Y0180226D01*
X0058891Y0179628D02*
X0062951Y0179628D01*
X0063550Y0179029D02*
X0059490Y0179029D01*
X0060088Y0178430D02*
X0064148Y0178430D01*
X0064747Y0177832D02*
X0060687Y0177832D01*
X0061285Y0177233D02*
X0065345Y0177233D01*
X0065944Y0176635D02*
X0061884Y0176635D01*
X0062482Y0176036D02*
X0066543Y0176036D01*
X0067141Y0175438D02*
X0063081Y0175438D01*
X0063679Y0174839D02*
X0067740Y0174839D01*
X0068338Y0174241D02*
X0064278Y0174241D01*
X0064876Y0173642D02*
X0068937Y0173642D01*
X0069535Y0173044D02*
X0065475Y0173044D01*
X0066073Y0172445D02*
X0070134Y0172445D01*
X0070732Y0171847D02*
X0066672Y0171847D01*
X0067270Y0171248D02*
X0071331Y0171248D01*
X0071929Y0170650D02*
X0067869Y0170650D01*
X0068467Y0170051D02*
X0072528Y0170051D01*
X0073126Y0169453D02*
X0069066Y0169453D01*
X0069664Y0168854D02*
X0073725Y0168854D01*
X0074323Y0168256D02*
X0070263Y0168256D01*
X0070861Y0167657D02*
X0074922Y0167657D01*
X0075520Y0167059D02*
X0071460Y0167059D01*
X0072058Y0166460D02*
X0076119Y0166460D01*
X0076717Y0165862D02*
X0072657Y0165862D01*
X0073255Y0165263D02*
X0077316Y0165263D01*
X0077914Y0164665D02*
X0073854Y0164665D01*
X0074452Y0164066D02*
X0078513Y0164066D01*
X0079111Y0163468D02*
X0075051Y0163468D01*
X0075649Y0162869D02*
X0104281Y0162869D01*
X0104880Y0162271D02*
X0076248Y0162271D01*
X0076846Y0161672D02*
X0105621Y0161672D01*
X0106714Y0159278D02*
X0079241Y0159278D01*
X0079839Y0158680D02*
X0105333Y0158680D01*
X0104734Y0158081D02*
X0080438Y0158081D01*
X0081036Y0157483D02*
X0104187Y0157483D01*
X0104456Y0152695D02*
X0040716Y0152695D01*
X0041314Y0153293D02*
X0079286Y0153293D01*
X0078687Y0153892D02*
X0041913Y0153892D01*
X0042511Y0154490D02*
X0078089Y0154490D01*
X0077490Y0155089D02*
X0043110Y0155089D01*
X0043708Y0155687D02*
X0076892Y0155687D01*
X0076293Y0156286D02*
X0044307Y0156286D01*
X0044905Y0156884D02*
X0075695Y0156884D01*
X0075096Y0157483D02*
X0045910Y0157483D01*
X0047077Y0158081D02*
X0074498Y0158081D01*
X0073899Y0158680D02*
X0047669Y0158680D01*
X0047917Y0159278D02*
X0073301Y0159278D01*
X0072702Y0159877D02*
X0048089Y0159877D01*
X0048089Y0160475D02*
X0072104Y0160475D01*
X0071505Y0161074D02*
X0047977Y0161074D01*
X0047729Y0161672D02*
X0070907Y0161672D01*
X0070308Y0162271D02*
X0047222Y0162271D01*
X0046262Y0162869D02*
X0069710Y0162869D01*
X0069111Y0163468D02*
X0015321Y0163468D01*
X0015569Y0164066D02*
X0068513Y0164066D01*
X0067914Y0164665D02*
X0015817Y0164665D01*
X0016065Y0165263D02*
X0067316Y0165263D01*
X0066717Y0165862D02*
X0016106Y0165862D01*
X0016106Y0166460D02*
X0066119Y0166460D01*
X0065520Y0167059D02*
X0016106Y0167059D01*
X0016013Y0167657D02*
X0064922Y0167657D01*
X0064323Y0168256D02*
X0015765Y0168256D01*
X0015517Y0168854D02*
X0063725Y0168854D01*
X0063126Y0169453D02*
X0015206Y0169453D01*
X0014607Y0170051D02*
X0062528Y0170051D01*
X0061929Y0170650D02*
X0014009Y0170650D01*
X0012786Y0171248D02*
X0061331Y0171248D01*
X0060732Y0171847D02*
X0012987Y0171847D01*
X0013972Y0172445D02*
X0060134Y0172445D01*
X0059535Y0173044D02*
X0014623Y0173044D01*
X0015084Y0173642D02*
X0058937Y0173642D01*
X0058338Y0174241D02*
X0015419Y0174241D01*
X0015657Y0174839D02*
X0057740Y0174839D01*
X0057141Y0175438D02*
X0015816Y0175438D01*
X0015906Y0176036D02*
X0056543Y0176036D01*
X0055944Y0176635D02*
X0011206Y0176635D01*
X0014741Y0179628D02*
X0052539Y0179628D01*
X0052511Y0180226D02*
X0014145Y0180226D01*
X0013233Y0180825D02*
X0052520Y0180825D01*
X0052768Y0181423D02*
X0012483Y0181423D01*
X0013883Y0182022D02*
X0053129Y0182022D01*
X0053737Y0182620D02*
X0014482Y0182620D01*
X0015175Y0179029D02*
X0052786Y0179029D01*
X0053174Y0178430D02*
X0015483Y0178430D01*
X0015698Y0177832D02*
X0053847Y0177832D01*
X0055345Y0177233D02*
X0015836Y0177233D01*
X0016106Y0186810D02*
X0055769Y0186810D01*
X0055171Y0187408D02*
X0016106Y0187408D01*
X0015869Y0188007D02*
X0053598Y0188007D01*
X0052999Y0188605D02*
X0015621Y0188605D01*
X0015373Y0189204D02*
X0052714Y0189204D01*
X0052511Y0189802D02*
X0014856Y0189802D01*
X0014258Y0190401D02*
X0052511Y0190401D01*
X0052592Y0190999D02*
X0013387Y0190999D01*
X0012905Y0191598D02*
X0052840Y0191598D01*
X0053303Y0192196D02*
X0014058Y0192196D01*
X0014657Y0192795D02*
X0054159Y0192795D01*
X0056441Y0192795D02*
X0104356Y0192795D01*
X0104031Y0193393D02*
X0015255Y0193393D01*
X0015538Y0193992D02*
X0103783Y0193992D01*
X0103600Y0194590D02*
X0015786Y0194590D01*
X0016034Y0195189D02*
X0103600Y0195189D01*
X0103600Y0195787D02*
X0016106Y0195787D01*
X0016106Y0196386D02*
X0103733Y0196386D01*
X0103981Y0196984D02*
X0016106Y0196984D01*
X0016044Y0197583D02*
X0104236Y0197583D01*
X0104834Y0198181D02*
X0015796Y0198181D01*
X0015548Y0198780D02*
X0019904Y0198780D01*
X0019835Y0198808D02*
X0021110Y0198280D01*
X0022490Y0198280D01*
X0023765Y0198808D01*
X0024740Y0199784D01*
X0025268Y0201059D01*
X0025268Y0202439D01*
X0024740Y0203714D01*
X0023765Y0204689D01*
X0022490Y0205217D01*
X0021110Y0205217D01*
X0019835Y0204689D01*
X0018860Y0203714D01*
X0018331Y0202439D01*
X0018331Y0201059D01*
X0018860Y0199784D01*
X0019835Y0198808D01*
X0019265Y0199378D02*
X0015280Y0199378D01*
X0014682Y0199977D02*
X0018780Y0199977D01*
X0018532Y0200575D02*
X0014083Y0200575D01*
X0012965Y0201174D02*
X0018331Y0201174D01*
X0018331Y0201772D02*
X0006800Y0201772D01*
X0006800Y0201174D02*
X0008847Y0201174D01*
X0007729Y0200575D02*
X0006800Y0200575D01*
X0006800Y0199977D02*
X0007131Y0199977D01*
X0006800Y0202371D02*
X0018331Y0202371D01*
X0018551Y0202969D02*
X0006800Y0202969D01*
X0006800Y0203568D02*
X0018799Y0203568D01*
X0019312Y0204166D02*
X0006800Y0204166D01*
X0006800Y0204765D02*
X0020018Y0204765D01*
X0023582Y0204765D02*
X0037518Y0204765D01*
X0037335Y0204689D02*
X0036360Y0203714D01*
X0035831Y0202439D01*
X0035831Y0201059D01*
X0036360Y0199784D01*
X0037335Y0198808D01*
X0038610Y0198280D01*
X0039990Y0198280D01*
X0041265Y0198808D01*
X0042240Y0199784D01*
X0042768Y0201059D01*
X0042768Y0202439D01*
X0042240Y0203714D01*
X0041265Y0204689D01*
X0039990Y0205217D01*
X0038610Y0205217D01*
X0037335Y0204689D01*
X0036812Y0204166D02*
X0024288Y0204166D01*
X0024801Y0203568D02*
X0036299Y0203568D01*
X0036051Y0202969D02*
X0025049Y0202969D01*
X0025268Y0202371D02*
X0035831Y0202371D01*
X0035831Y0201772D02*
X0025268Y0201772D01*
X0025268Y0201174D02*
X0035831Y0201174D01*
X0036032Y0200575D02*
X0025068Y0200575D01*
X0024820Y0199977D02*
X0036280Y0199977D01*
X0036765Y0199378D02*
X0024335Y0199378D01*
X0023696Y0198780D02*
X0037404Y0198780D01*
X0041196Y0198780D02*
X0105511Y0198780D01*
X0115089Y0198780D02*
X0135511Y0198780D01*
X0135378Y0198725D02*
X0134224Y0197571D01*
X0133600Y0196064D01*
X0133600Y0194433D01*
X0134224Y0192926D01*
X0135378Y0191773D01*
X0136884Y0191149D01*
X0143716Y0191149D01*
X0145222Y0191773D01*
X0146376Y0192926D01*
X0147000Y0194433D01*
X0147000Y0196064D01*
X0146376Y0197571D01*
X0145222Y0198725D01*
X0143716Y0199349D01*
X0136884Y0199349D01*
X0135378Y0198725D01*
X0134834Y0198181D02*
X0115766Y0198181D01*
X0116364Y0197583D02*
X0134236Y0197583D01*
X0133981Y0196984D02*
X0116619Y0196984D01*
X0116867Y0196386D02*
X0133733Y0196386D01*
X0133600Y0195787D02*
X0117000Y0195787D01*
X0117000Y0195189D02*
X0133600Y0195189D01*
X0133600Y0194590D02*
X0117000Y0194590D01*
X0116817Y0193992D02*
X0133783Y0193992D01*
X0134031Y0193393D02*
X0116569Y0193393D01*
X0116244Y0192795D02*
X0134356Y0192795D01*
X0134954Y0192196D02*
X0115646Y0192196D01*
X0114799Y0191598D02*
X0135801Y0191598D01*
X0140000Y0188605D02*
X0140600Y0188605D01*
X0140600Y0188007D02*
X0140000Y0188007D01*
X0140000Y0187408D02*
X0140600Y0187408D01*
X0140600Y0186810D02*
X0140000Y0186810D01*
X0140000Y0186211D02*
X0140600Y0186211D01*
X0140600Y0185613D02*
X0140000Y0185613D01*
X0140000Y0183817D02*
X0140600Y0183817D01*
X0140600Y0183219D02*
X0140000Y0183219D01*
X0140000Y0182620D02*
X0140600Y0182620D01*
X0140600Y0182022D02*
X0140000Y0182022D01*
X0140000Y0181423D02*
X0140600Y0181423D01*
X0143657Y0181423D02*
X0189532Y0181423D01*
X0189780Y0182022D02*
X0145090Y0182022D01*
X0145787Y0182620D02*
X0190266Y0182620D01*
X0190906Y0183219D02*
X0146234Y0183219D01*
X0146800Y0185613D02*
X0200650Y0185613D01*
X0200650Y0186211D02*
X0146685Y0186211D01*
X0146475Y0186810D02*
X0200650Y0186810D01*
X0200650Y0187408D02*
X0146148Y0187408D01*
X0145658Y0188007D02*
X0200650Y0188007D01*
X0200650Y0188605D02*
X0144897Y0188605D01*
X0144799Y0191598D02*
X0200650Y0191598D01*
X0200650Y0192196D02*
X0145646Y0192196D01*
X0146244Y0192795D02*
X0200650Y0192795D01*
X0200650Y0193393D02*
X0146569Y0193393D01*
X0146817Y0193992D02*
X0200650Y0193992D01*
X0200650Y0194590D02*
X0194238Y0194590D01*
X0194765Y0194808D02*
X0195740Y0195784D01*
X0196268Y0197059D01*
X0196268Y0198439D01*
X0195740Y0199714D01*
X0194765Y0200689D01*
X0193490Y0201217D01*
X0192110Y0201217D01*
X0190835Y0200689D01*
X0189860Y0199714D01*
X0189331Y0198439D01*
X0189331Y0197059D01*
X0189860Y0195784D01*
X0190835Y0194808D01*
X0192110Y0194280D01*
X0193490Y0194280D01*
X0194765Y0194808D01*
X0195145Y0195189D02*
X0200650Y0195189D01*
X0200650Y0195787D02*
X0195742Y0195787D01*
X0195990Y0196386D02*
X0200650Y0196386D01*
X0200650Y0196984D02*
X0196238Y0196984D01*
X0196268Y0197583D02*
X0200650Y0197583D01*
X0200650Y0198181D02*
X0196268Y0198181D01*
X0196127Y0198780D02*
X0200650Y0198780D01*
X0200650Y0199378D02*
X0195879Y0199378D01*
X0195477Y0199977D02*
X0200650Y0199977D01*
X0200650Y0200575D02*
X0194879Y0200575D01*
X0193595Y0201174D02*
X0200650Y0201174D01*
X0200650Y0201772D02*
X0042768Y0201772D01*
X0042768Y0201174D02*
X0192005Y0201174D01*
X0190721Y0200575D02*
X0042568Y0200575D01*
X0042320Y0199977D02*
X0190123Y0199977D01*
X0189721Y0199378D02*
X0041835Y0199378D01*
X0042768Y0202371D02*
X0200650Y0202371D01*
X0200650Y0202969D02*
X0042549Y0202969D01*
X0042301Y0203568D02*
X0200650Y0203568D01*
X0200650Y0204166D02*
X0041788Y0204166D01*
X0041082Y0204765D02*
X0200650Y0204765D01*
X0200650Y0205364D02*
X0006800Y0205364D01*
X0014731Y0162869D02*
X0044338Y0162869D01*
X0043378Y0162271D02*
X0014132Y0162271D01*
X0013084Y0161672D02*
X0042871Y0161672D01*
X0042623Y0161074D02*
X0013207Y0161074D01*
X0014183Y0160475D02*
X0042511Y0160475D01*
X0041958Y0159877D02*
X0014782Y0159877D01*
X0015342Y0159278D02*
X0041359Y0159278D01*
X0040761Y0158680D02*
X0015590Y0158680D01*
X0015838Y0158081D02*
X0040162Y0158081D01*
X0039564Y0157483D02*
X0016086Y0157483D01*
X0016106Y0156884D02*
X0038965Y0156884D01*
X0038367Y0156286D02*
X0016106Y0156286D01*
X0016106Y0155687D02*
X0037768Y0155687D01*
X0037170Y0155089D02*
X0015992Y0155089D01*
X0015744Y0154490D02*
X0036571Y0154490D01*
X0035973Y0153892D02*
X0015496Y0153892D01*
X0015155Y0153293D02*
X0035374Y0153293D01*
X0034776Y0152695D02*
X0014556Y0152695D01*
X0013958Y0152096D02*
X0034177Y0152096D01*
X0033579Y0151497D02*
X0012663Y0151497D01*
X0011692Y0150300D02*
X0032382Y0150300D01*
X0031783Y0149702D02*
X0013137Y0149702D01*
X0013799Y0149103D02*
X0031185Y0149103D01*
X0030586Y0148505D02*
X0014398Y0148505D01*
X0014828Y0147906D02*
X0029988Y0147906D01*
X0029389Y0147308D02*
X0015076Y0147308D01*
X0015323Y0146709D02*
X0028791Y0146709D01*
X0028192Y0146111D02*
X0015500Y0146111D01*
X0015500Y0145512D02*
X0027594Y0145512D01*
X0026995Y0144914D02*
X0015500Y0144914D01*
X0015500Y0144315D02*
X0026397Y0144315D01*
X0025798Y0143717D02*
X0015294Y0143717D01*
X0015046Y0143118D02*
X0025200Y0143118D01*
X0024854Y0142520D02*
X0014798Y0142520D01*
X0014326Y0141921D02*
X0024854Y0141921D01*
X0024854Y0141323D02*
X0013728Y0141323D01*
X0012965Y0140724D02*
X0024854Y0140724D01*
X0024854Y0140126D02*
X0012114Y0140126D01*
X0013375Y0139527D02*
X0024854Y0139527D01*
X0024854Y0138929D02*
X0013974Y0138929D01*
X0014572Y0138330D02*
X0024854Y0138330D01*
X0024854Y0137732D02*
X0014900Y0137732D01*
X0015148Y0137133D02*
X0024854Y0137133D01*
X0024854Y0136535D02*
X0015396Y0136535D01*
X0015500Y0135936D02*
X0024854Y0135936D01*
X0024854Y0135338D02*
X0015500Y0135338D01*
X0015500Y0134739D02*
X0024854Y0134739D01*
X0024854Y0134141D02*
X0015469Y0134141D01*
X0015222Y0133542D02*
X0024854Y0133542D01*
X0024854Y0132944D02*
X0014974Y0132944D01*
X0014726Y0132345D02*
X0024854Y0132345D01*
X0024854Y0131747D02*
X0014152Y0131747D01*
X0013553Y0131148D02*
X0024854Y0131148D01*
X0024854Y0130550D02*
X0012543Y0130550D01*
X0012536Y0129951D02*
X0024854Y0129951D01*
X0024854Y0129353D02*
X0013550Y0129353D01*
X0014149Y0128754D02*
X0024854Y0128754D01*
X0024854Y0128156D02*
X0014724Y0128156D01*
X0014972Y0127557D02*
X0024854Y0127557D01*
X0024854Y0126959D02*
X0015220Y0126959D01*
X0015468Y0126360D02*
X0024854Y0126360D01*
X0024854Y0125762D02*
X0015500Y0125762D01*
X0015500Y0125163D02*
X0024854Y0125163D01*
X0024854Y0124564D02*
X0015500Y0124564D01*
X0015397Y0123966D02*
X0024854Y0123966D01*
X0024854Y0123367D02*
X0015149Y0123367D01*
X0014901Y0122769D02*
X0024854Y0122769D01*
X0024854Y0122170D02*
X0014576Y0122170D01*
X0013977Y0121572D02*
X0024854Y0121572D01*
X0024854Y0120973D02*
X0013379Y0120973D01*
X0012958Y0119776D02*
X0024854Y0119776D01*
X0024854Y0119178D02*
X0013725Y0119178D01*
X0014323Y0118579D02*
X0024854Y0118579D01*
X0024854Y0117981D02*
X0014797Y0117981D01*
X0015045Y0117382D02*
X0024854Y0117382D01*
X0024854Y0116784D02*
X0015293Y0116784D01*
X0015500Y0116185D02*
X0024854Y0116185D01*
X0024854Y0115587D02*
X0015500Y0115587D01*
X0015500Y0114988D02*
X0024854Y0114988D01*
X0024854Y0114390D02*
X0015500Y0114390D01*
X0015325Y0113791D02*
X0024854Y0113791D01*
X0024854Y0113193D02*
X0015077Y0113193D01*
X0014829Y0112594D02*
X0024854Y0112594D01*
X0024854Y0111996D02*
X0014401Y0111996D01*
X0013802Y0111397D02*
X0024854Y0111397D01*
X0024854Y0110799D02*
X0013145Y0110799D01*
X0013301Y0109602D02*
X0024854Y0109602D01*
X0024854Y0110200D02*
X0011934Y0110200D01*
X0013900Y0109003D02*
X0024854Y0109003D01*
X0024854Y0108405D02*
X0014498Y0108405D01*
X0014869Y0107806D02*
X0024854Y0107806D01*
X0024854Y0107208D02*
X0015117Y0107208D01*
X0015365Y0106609D02*
X0024854Y0106609D01*
X0024854Y0106011D02*
X0015500Y0106011D01*
X0015500Y0105412D02*
X0024854Y0105412D01*
X0024854Y0104814D02*
X0015500Y0104814D01*
X0015500Y0104215D02*
X0025017Y0104215D01*
X0025616Y0103617D02*
X0015252Y0103617D01*
X0015902Y0103018D02*
X0026214Y0103018D01*
X0026813Y0102420D02*
X0017073Y0102420D01*
X0017668Y0101821D02*
X0027411Y0101821D01*
X0028010Y0101223D02*
X0017915Y0101223D01*
X0018089Y0100624D02*
X0028608Y0100624D01*
X0029207Y0100026D02*
X0018493Y0100026D01*
X0019092Y0099427D02*
X0029805Y0099427D01*
X0030404Y0098828D02*
X0019690Y0098828D01*
X0020289Y0098230D02*
X0031003Y0098230D01*
X0031601Y0097631D02*
X0020887Y0097631D01*
X0021486Y0097033D02*
X0027290Y0097033D01*
X0026691Y0096434D02*
X0022084Y0096434D01*
X0022683Y0095836D02*
X0026093Y0095836D01*
X0025494Y0095237D02*
X0023281Y0095237D01*
X0023880Y0094639D02*
X0025354Y0094639D01*
X0025354Y0094040D02*
X0024478Y0094040D01*
X0025077Y0093442D02*
X0025354Y0093442D01*
X0025354Y0092843D02*
X0025254Y0092843D01*
X0022756Y0089252D02*
X0013650Y0089252D01*
X0014249Y0088654D02*
X0023354Y0088654D01*
X0023953Y0088055D02*
X0014766Y0088055D01*
X0015014Y0087457D02*
X0025122Y0087457D01*
X0025721Y0086858D02*
X0015262Y0086858D01*
X0015500Y0086260D02*
X0026319Y0086260D01*
X0026918Y0085661D02*
X0015500Y0085661D01*
X0015500Y0085063D02*
X0027516Y0085063D01*
X0028115Y0084464D02*
X0015500Y0084464D01*
X0015356Y0083866D02*
X0028713Y0083866D01*
X0029312Y0083267D02*
X0015108Y0083267D01*
X0014860Y0082669D02*
X0029910Y0082669D01*
X0030509Y0082070D02*
X0014475Y0082070D01*
X0013877Y0081472D02*
X0031107Y0081472D01*
X0031706Y0080873D02*
X0013278Y0080873D01*
X0012624Y0079676D02*
X0032903Y0079676D01*
X0033501Y0079078D02*
X0013537Y0079078D01*
X0014133Y0078479D02*
X0034100Y0078479D01*
X0034698Y0077881D02*
X0014568Y0077881D01*
X0014876Y0077282D02*
X0035297Y0077282D01*
X0035895Y0076684D02*
X0015091Y0076684D01*
X0015230Y0076085D02*
X0036494Y0076085D01*
X0037092Y0075487D02*
X0010600Y0075487D01*
X0010600Y0074949D02*
X0015300Y0074949D01*
X0015300Y0074855D01*
X0015177Y0074078D01*
X0014934Y0073329D01*
X0014576Y0072628D01*
X0014114Y0071992D01*
X0013557Y0071435D01*
X0012921Y0070972D01*
X0012219Y0070615D01*
X0011471Y0070372D01*
X0010694Y0070249D01*
X0010600Y0070249D01*
X0010600Y0074949D01*
X0010600Y0074888D02*
X0010000Y0074888D01*
X0010000Y0074290D02*
X0010600Y0074290D01*
X0010600Y0073691D02*
X0010000Y0073691D01*
X0010000Y0073093D02*
X0010600Y0073093D01*
X0010600Y0072494D02*
X0010000Y0072494D01*
X0010000Y0071895D02*
X0010600Y0071895D01*
X0010600Y0071297D02*
X0010000Y0071297D01*
X0010000Y0070698D02*
X0010600Y0070698D01*
X0012383Y0070698D02*
X0038554Y0070698D01*
X0038554Y0070100D02*
X0006800Y0070100D01*
X0006800Y0070698D02*
X0008217Y0070698D01*
X0007233Y0071297D02*
X0006800Y0071297D01*
X0006800Y0069501D02*
X0038554Y0069501D01*
X0038554Y0068903D02*
X0006800Y0068903D01*
X0006800Y0068304D02*
X0038554Y0068304D01*
X0038554Y0067706D02*
X0006800Y0067706D01*
X0006800Y0067107D02*
X0038554Y0067107D01*
X0038554Y0066509D02*
X0006800Y0066509D01*
X0006800Y0065910D02*
X0038554Y0065910D01*
X0038554Y0065312D02*
X0006800Y0065312D01*
X0006800Y0064713D02*
X0038554Y0064713D01*
X0038554Y0064115D02*
X0006800Y0064115D01*
X0006800Y0063516D02*
X0038554Y0063516D01*
X0038554Y0062918D02*
X0006800Y0062918D01*
X0006800Y0062319D02*
X0038554Y0062319D01*
X0038554Y0061721D02*
X0006800Y0061721D01*
X0006800Y0061122D02*
X0038554Y0061122D01*
X0038554Y0060524D02*
X0006800Y0060524D01*
X0006800Y0059925D02*
X0038554Y0059925D01*
X0038554Y0059327D02*
X0006800Y0059327D01*
X0006800Y0058728D02*
X0038554Y0058728D01*
X0038554Y0058130D02*
X0006800Y0058130D01*
X0006800Y0057531D02*
X0038554Y0057531D01*
X0038390Y0056933D02*
X0031718Y0056933D01*
X0032316Y0056334D02*
X0037792Y0056334D01*
X0037193Y0055736D02*
X0032915Y0055736D01*
X0036511Y0055137D02*
X0036595Y0055137D01*
X0034761Y0050948D02*
X0032801Y0050948D01*
X0032202Y0050349D02*
X0035360Y0050349D01*
X0035958Y0049751D02*
X0031604Y0049751D01*
X0028030Y0047955D02*
X0037754Y0047955D01*
X0037155Y0048554D02*
X0027782Y0048554D01*
X0027534Y0049152D02*
X0036557Y0049152D01*
X0038595Y0044273D02*
X0035154Y0040832D01*
X0035154Y0039183D01*
X0033996Y0038703D01*
X0032849Y0037557D01*
X0032229Y0036059D01*
X0032229Y0034438D01*
X0032849Y0032941D01*
X0033691Y0032099D01*
X0032849Y0031258D01*
X0032229Y0029760D01*
X0032229Y0028139D01*
X0032849Y0026641D01*
X0033996Y0025495D01*
X0035493Y0024875D01*
X0037114Y0024875D01*
X0037250Y0024931D01*
X0037302Y0024670D01*
X0037595Y0023965D01*
X0038019Y0023330D01*
X0038558Y0022790D01*
X0039193Y0022366D01*
X0039898Y0022074D01*
X0040647Y0021925D01*
X0040728Y0021925D01*
X0040728Y0025500D01*
X0041328Y0025500D01*
X0041328Y0021925D01*
X0041410Y0021925D01*
X0042159Y0022074D01*
X0042864Y0022366D01*
X0043498Y0022790D01*
X0044038Y0023330D01*
X0044462Y0023965D01*
X0044754Y0024670D01*
X0044903Y0025418D01*
X0044903Y0025500D01*
X0041328Y0025500D01*
X0041328Y0026100D01*
X0044903Y0026100D01*
X0044903Y0026182D01*
X0044754Y0026930D01*
X0044462Y0027635D01*
X0044038Y0028270D01*
X0043500Y0028808D01*
X0044483Y0029791D01*
X0045103Y0031289D01*
X0045103Y0032910D01*
X0045017Y0033118D01*
X0049019Y0037120D01*
X0049866Y0037967D01*
X0050295Y0037538D01*
X0050245Y0037538D01*
X0049220Y0037113D01*
X0048436Y0036329D01*
X0048011Y0035304D01*
X0048011Y0034194D01*
X0048436Y0033169D01*
X0049220Y0032384D01*
X0050245Y0031960D01*
X0051355Y0031960D01*
X0052380Y0032384D01*
X0052644Y0032649D01*
X0053944Y0032649D01*
X0055011Y0033716D01*
X0055011Y0033694D01*
X0055436Y0032669D01*
X0056220Y0031884D01*
X0057245Y0031460D01*
X0057619Y0031460D01*
X0059002Y0030077D01*
X0059042Y0030037D01*
X0057850Y0028845D01*
X0057850Y0025448D01*
X0060251Y0023046D01*
X0063648Y0023046D01*
X0066050Y0025448D01*
X0066050Y0028845D01*
X0066048Y0028846D01*
X0071654Y0028846D01*
X0078878Y0021623D01*
X0075879Y0021623D01*
X0075532Y0021276D01*
X0074791Y0022017D01*
X0067612Y0022017D01*
X0066733Y0021138D01*
X0066733Y0013958D01*
X0067612Y0013080D01*
X0074791Y0013080D01*
X0075532Y0013820D01*
X0075879Y0013473D01*
X0082272Y0013473D01*
X0083013Y0014214D01*
X0083753Y0013473D01*
X0090146Y0013473D01*
X0090887Y0014214D01*
X0091627Y0013473D01*
X0098020Y0013473D01*
X0098367Y0013820D01*
X0099108Y0013080D01*
X0106287Y0013080D01*
X0107166Y0013958D01*
X0107166Y0021138D01*
X0106287Y0022017D01*
X0099108Y0022017D01*
X0098367Y0021276D01*
X0098020Y0021623D01*
X0091627Y0021623D01*
X0090887Y0020882D01*
X0090146Y0021623D01*
X0084817Y0021623D01*
X0073918Y0032522D01*
X0074750Y0033354D01*
X0074750Y0036750D01*
X0072349Y0039152D01*
X0068952Y0039152D01*
X0066550Y0036750D01*
X0066550Y0033354D01*
X0066858Y0033046D01*
X0061972Y0033046D01*
X0060589Y0034430D01*
X0060589Y0034804D01*
X0060301Y0035498D01*
X0064393Y0035498D01*
X0065624Y0036729D01*
X0066619Y0037724D01*
X0067850Y0038955D01*
X0067850Y0039829D01*
X0075481Y0047460D01*
X0075855Y0047460D01*
X0076880Y0047884D01*
X0077664Y0048669D01*
X0078089Y0049694D01*
X0078089Y0050804D01*
X0077664Y0051829D01*
X0076880Y0052613D01*
X0075855Y0053038D01*
X0074745Y0053038D01*
X0073720Y0052613D01*
X0072936Y0051829D01*
X0072511Y0050804D01*
X0072511Y0050430D01*
X0065614Y0043532D01*
X0063648Y0045498D01*
X0061893Y0045498D01*
X0081170Y0064775D01*
X0082400Y0066005D01*
X0082400Y0106405D01*
X0082664Y0106669D01*
X0083089Y0107694D01*
X0083089Y0108804D01*
X0082664Y0109829D01*
X0081880Y0110613D01*
X0080855Y0111038D01*
X0079745Y0111038D01*
X0078720Y0110613D01*
X0077936Y0109829D01*
X0077511Y0108804D01*
X0077511Y0107694D01*
X0077936Y0106669D01*
X0078200Y0106405D01*
X0078200Y0067745D01*
X0061050Y0050594D01*
X0061050Y0050597D01*
X0058648Y0052998D01*
X0057023Y0052998D01*
X0059019Y0054994D01*
X0059019Y0054994D01*
X0059262Y0055237D01*
X0060251Y0054247D01*
X0063648Y0054247D01*
X0066050Y0056649D01*
X0066050Y0060046D01*
X0065060Y0061035D01*
X0072400Y0068375D01*
X0072400Y0110905D01*
X0072664Y0111169D01*
X0073089Y0112194D01*
X0073089Y0113304D01*
X0072664Y0114329D01*
X0071880Y0115113D01*
X0070855Y0115538D01*
X0069745Y0115538D01*
X0068720Y0115113D01*
X0067936Y0114329D01*
X0067511Y0113304D01*
X0067511Y0112194D01*
X0067936Y0111169D01*
X0068200Y0110905D01*
X0068200Y0070115D01*
X0062333Y0064247D01*
X0059506Y0064247D01*
X0058276Y0063017D01*
X0056050Y0060791D01*
X0056050Y0057964D01*
X0055850Y0057764D01*
X0055850Y0058047D01*
X0052250Y0058047D01*
X0052250Y0058647D01*
X0055850Y0058647D01*
X0055850Y0059963D01*
X0053565Y0062247D01*
X0052250Y0062247D01*
X0052250Y0058647D01*
X0051650Y0058647D01*
X0051650Y0062247D01*
X0050334Y0062247D01*
X0048050Y0059963D01*
X0048050Y0058647D01*
X0051650Y0058647D01*
X0051650Y0058047D01*
X0052250Y0058047D01*
X0052250Y0054447D01*
X0052533Y0054447D01*
X0042359Y0044273D01*
X0038595Y0044273D01*
X0038087Y0043765D02*
X0027526Y0043765D01*
X0027278Y0043167D02*
X0037489Y0043167D01*
X0036890Y0042568D02*
X0027030Y0042568D01*
X0026506Y0041970D02*
X0036292Y0041970D01*
X0035693Y0041371D02*
X0025907Y0041371D01*
X0025309Y0040773D02*
X0035154Y0040773D01*
X0035154Y0040174D02*
X0024332Y0040174D01*
X0022887Y0039576D02*
X0035154Y0039576D01*
X0034657Y0038977D02*
X0006800Y0038977D01*
X0006800Y0038379D02*
X0033671Y0038379D01*
X0033073Y0037780D02*
X0006800Y0037780D01*
X0006800Y0037182D02*
X0032694Y0037182D01*
X0032446Y0036583D02*
X0006800Y0036583D01*
X0006800Y0035985D02*
X0032229Y0035985D01*
X0032229Y0035386D02*
X0006800Y0035386D01*
X0006800Y0034788D02*
X0032229Y0034788D01*
X0032332Y0034189D02*
X0006800Y0034189D01*
X0006800Y0033591D02*
X0032580Y0033591D01*
X0032828Y0032992D02*
X0006800Y0032992D01*
X0006800Y0032394D02*
X0033396Y0032394D01*
X0033387Y0031795D02*
X0006800Y0031795D01*
X0006800Y0031197D02*
X0032824Y0031197D01*
X0032576Y0030598D02*
X0006800Y0030598D01*
X0006800Y0030000D02*
X0032328Y0030000D01*
X0032229Y0029401D02*
X0006800Y0029401D01*
X0006800Y0028803D02*
X0032229Y0028803D01*
X0032229Y0028204D02*
X0006800Y0028204D01*
X0006800Y0027606D02*
X0032450Y0027606D01*
X0032698Y0027007D02*
X0006800Y0027007D01*
X0006800Y0026409D02*
X0033082Y0026409D01*
X0033681Y0025810D02*
X0006800Y0025810D01*
X0006800Y0025212D02*
X0034680Y0025212D01*
X0037326Y0024613D02*
X0022910Y0024613D01*
X0024355Y0024015D02*
X0037574Y0024015D01*
X0037961Y0023416D02*
X0025318Y0023416D01*
X0025917Y0022818D02*
X0038531Y0022818D01*
X0039548Y0022219D02*
X0026515Y0022219D01*
X0027034Y0021621D02*
X0067216Y0021621D01*
X0066733Y0021022D02*
X0027282Y0021022D01*
X0027530Y0020424D02*
X0060078Y0020424D01*
X0060251Y0020597D02*
X0057850Y0018195D01*
X0057850Y0014799D01*
X0060251Y0012397D01*
X0063648Y0012397D01*
X0066050Y0014799D01*
X0066050Y0018195D01*
X0063648Y0020597D01*
X0060251Y0020597D01*
X0059479Y0019825D02*
X0054137Y0019825D01*
X0053565Y0020397D02*
X0055850Y0018112D01*
X0055850Y0016797D01*
X0052250Y0016797D01*
X0052250Y0016197D01*
X0055850Y0016197D01*
X0055850Y0014881D01*
X0053565Y0012597D01*
X0052250Y0012597D01*
X0052250Y0016197D01*
X0051650Y0016197D01*
X0051650Y0012597D01*
X0050334Y0012597D01*
X0048050Y0014881D01*
X0048050Y0016197D01*
X0051650Y0016197D01*
X0051650Y0016797D01*
X0052250Y0016797D01*
X0052250Y0020397D01*
X0053565Y0020397D01*
X0052250Y0019825D02*
X0051650Y0019825D01*
X0051650Y0020397D02*
X0050334Y0020397D01*
X0048050Y0018112D01*
X0048050Y0016797D01*
X0051650Y0016797D01*
X0051650Y0020397D01*
X0051650Y0019226D02*
X0052250Y0019226D01*
X0052250Y0018628D02*
X0051650Y0018628D01*
X0051650Y0018029D02*
X0052250Y0018029D01*
X0052250Y0017431D02*
X0051650Y0017431D01*
X0051650Y0016832D02*
X0052250Y0016832D01*
X0052250Y0016234D02*
X0057850Y0016234D01*
X0057850Y0016832D02*
X0055850Y0016832D01*
X0055850Y0017431D02*
X0057850Y0017431D01*
X0057850Y0018029D02*
X0055850Y0018029D01*
X0055334Y0018628D02*
X0058282Y0018628D01*
X0058881Y0019226D02*
X0054735Y0019226D01*
X0053565Y0023246D02*
X0055850Y0025531D01*
X0055850Y0026846D01*
X0052250Y0026846D01*
X0052250Y0027446D01*
X0055850Y0027446D01*
X0055850Y0028762D01*
X0053565Y0031046D01*
X0052250Y0031046D01*
X0052250Y0027447D01*
X0051650Y0027447D01*
X0051650Y0031046D01*
X0050334Y0031046D01*
X0048050Y0028762D01*
X0048050Y0027446D01*
X0051650Y0027446D01*
X0051650Y0026846D01*
X0052250Y0026846D01*
X0052250Y0023246D01*
X0053565Y0023246D01*
X0053735Y0023416D02*
X0059882Y0023416D01*
X0059283Y0024015D02*
X0054333Y0024015D01*
X0054932Y0024613D02*
X0058685Y0024613D01*
X0058086Y0025212D02*
X0055530Y0025212D01*
X0055850Y0025810D02*
X0057850Y0025810D01*
X0057850Y0026409D02*
X0055850Y0026409D01*
X0055850Y0027606D02*
X0057850Y0027606D01*
X0057850Y0028204D02*
X0055850Y0028204D01*
X0055809Y0028803D02*
X0057850Y0028803D01*
X0058406Y0029401D02*
X0055210Y0029401D01*
X0054612Y0030000D02*
X0059005Y0030000D01*
X0058481Y0030598D02*
X0054013Y0030598D01*
X0052250Y0030598D02*
X0051650Y0030598D01*
X0051650Y0030000D02*
X0052250Y0030000D01*
X0052250Y0029401D02*
X0051650Y0029401D01*
X0051650Y0028803D02*
X0052250Y0028803D01*
X0052250Y0028204D02*
X0051650Y0028204D01*
X0051650Y0027606D02*
X0052250Y0027606D01*
X0052250Y0027007D02*
X0057850Y0027007D01*
X0057882Y0031197D02*
X0045065Y0031197D01*
X0045103Y0031795D02*
X0056436Y0031795D01*
X0055711Y0032394D02*
X0052389Y0032394D01*
X0054287Y0032992D02*
X0055302Y0032992D01*
X0055054Y0033591D02*
X0054886Y0033591D01*
X0052424Y0037069D02*
X0052380Y0037113D01*
X0051450Y0037498D01*
X0051650Y0037498D01*
X0051650Y0041098D01*
X0052250Y0041098D01*
X0052250Y0041698D01*
X0055850Y0041698D01*
X0055850Y0042998D01*
X0057850Y0042998D01*
X0057850Y0039700D01*
X0057851Y0039698D01*
X0055765Y0039698D01*
X0055850Y0039783D01*
X0055850Y0041098D01*
X0052250Y0041098D01*
X0052250Y0037498D01*
X0052854Y0037498D01*
X0052424Y0037069D01*
X0052537Y0037182D02*
X0052214Y0037182D01*
X0052250Y0037780D02*
X0051650Y0037780D01*
X0051650Y0038379D02*
X0052250Y0038379D01*
X0052250Y0038977D02*
X0051650Y0038977D01*
X0051650Y0039576D02*
X0052250Y0039576D01*
X0052250Y0040174D02*
X0051650Y0040174D01*
X0051650Y0040773D02*
X0052250Y0040773D01*
X0052250Y0041371D02*
X0057850Y0041371D01*
X0057850Y0040773D02*
X0055850Y0040773D01*
X0055850Y0040174D02*
X0057850Y0040174D01*
X0057850Y0041970D02*
X0055850Y0041970D01*
X0055850Y0042568D02*
X0057850Y0042568D01*
X0061956Y0045561D02*
X0067642Y0045561D01*
X0067044Y0044962D02*
X0064184Y0044962D01*
X0064782Y0044364D02*
X0066445Y0044364D01*
X0065847Y0043765D02*
X0065381Y0043765D01*
X0062555Y0046159D02*
X0068241Y0046159D01*
X0068839Y0046758D02*
X0063153Y0046758D01*
X0063752Y0047357D02*
X0069438Y0047357D01*
X0070036Y0047955D02*
X0064350Y0047955D01*
X0064949Y0048554D02*
X0070635Y0048554D01*
X0071233Y0049152D02*
X0065547Y0049152D01*
X0066146Y0049751D02*
X0071832Y0049751D01*
X0072430Y0050349D02*
X0066744Y0050349D01*
X0067343Y0050948D02*
X0072571Y0050948D01*
X0072819Y0051546D02*
X0067941Y0051546D01*
X0068540Y0052145D02*
X0073252Y0052145D01*
X0074034Y0052743D02*
X0069138Y0052743D01*
X0069737Y0053342D02*
X0123200Y0053342D01*
X0123200Y0053940D02*
X0070335Y0053940D01*
X0070934Y0054539D02*
X0123200Y0054539D01*
X0123200Y0055137D02*
X0071532Y0055137D01*
X0072131Y0055736D02*
X0123200Y0055736D01*
X0123200Y0056334D02*
X0072729Y0056334D01*
X0073328Y0056933D02*
X0123200Y0056933D01*
X0123200Y0057531D02*
X0073926Y0057531D01*
X0074525Y0058130D02*
X0123200Y0058130D01*
X0123200Y0058728D02*
X0075123Y0058728D01*
X0075722Y0059327D02*
X0123200Y0059327D01*
X0123200Y0059925D02*
X0076320Y0059925D01*
X0076919Y0060524D02*
X0123200Y0060524D01*
X0123200Y0061122D02*
X0077517Y0061122D01*
X0078116Y0061721D02*
X0105504Y0061721D01*
X0105378Y0061773D02*
X0106884Y0061149D01*
X0113716Y0061149D01*
X0115222Y0061773D01*
X0116376Y0062926D01*
X0117000Y0064433D01*
X0117000Y0066064D01*
X0116376Y0067571D01*
X0115222Y0068725D01*
X0113716Y0069349D01*
X0106884Y0069349D01*
X0105378Y0068725D01*
X0104224Y0067571D01*
X0103600Y0066064D01*
X0103600Y0064433D01*
X0104224Y0062926D01*
X0105378Y0061773D01*
X0104831Y0062319D02*
X0078714Y0062319D01*
X0079313Y0062918D02*
X0104233Y0062918D01*
X0103980Y0063516D02*
X0079911Y0063516D01*
X0080510Y0064115D02*
X0103732Y0064115D01*
X0103600Y0064713D02*
X0081108Y0064713D01*
X0081707Y0065312D02*
X0103600Y0065312D01*
X0103600Y0065910D02*
X0082305Y0065910D01*
X0082400Y0066509D02*
X0103784Y0066509D01*
X0104032Y0067107D02*
X0082400Y0067107D01*
X0082400Y0067706D02*
X0104359Y0067706D01*
X0104957Y0068304D02*
X0082400Y0068304D01*
X0082400Y0068903D02*
X0105808Y0068903D01*
X0106884Y0071149D02*
X0113716Y0071149D01*
X0115222Y0071773D01*
X0116376Y0072926D01*
X0117000Y0074433D01*
X0117000Y0076064D01*
X0116376Y0077571D01*
X0115984Y0077963D01*
X0116170Y0078149D01*
X0123456Y0078149D01*
X0123720Y0077884D01*
X0124745Y0077460D01*
X0125855Y0077460D01*
X0126880Y0077884D01*
X0127664Y0078669D01*
X0128089Y0079694D01*
X0128089Y0080804D01*
X0127664Y0081829D01*
X0126880Y0082613D01*
X0125855Y0083038D01*
X0124745Y0083038D01*
X0123720Y0082613D01*
X0123456Y0082349D01*
X0115798Y0082349D01*
X0116376Y0082926D01*
X0117000Y0084433D01*
X0117000Y0085579D01*
X0117930Y0084649D01*
X0126930Y0084649D01*
X0129700Y0081879D01*
X0129700Y0064905D01*
X0130930Y0063675D01*
X0135256Y0059349D01*
X0138730Y0059349D01*
X0143011Y0055068D01*
X0143011Y0054694D01*
X0143436Y0053669D01*
X0144220Y0052884D01*
X0145245Y0052460D01*
X0146355Y0052460D01*
X0147380Y0052884D01*
X0148164Y0053669D01*
X0148200Y0053755D01*
X0148200Y0025973D01*
X0152350Y0021824D01*
X0152350Y0018995D01*
X0154751Y0016594D01*
X0158148Y0016594D01*
X0160550Y0018995D01*
X0160550Y0022392D01*
X0158148Y0024794D01*
X0155319Y0024794D01*
X0152400Y0027713D01*
X0152400Y0067905D01*
X0152664Y0068169D01*
X0153089Y0069194D01*
X0153089Y0070304D01*
X0152664Y0071329D01*
X0151880Y0072113D01*
X0150855Y0072538D01*
X0149745Y0072538D01*
X0148720Y0072113D01*
X0147936Y0071329D01*
X0147511Y0070304D01*
X0147511Y0069194D01*
X0147936Y0068169D01*
X0148200Y0067905D01*
X0148200Y0056743D01*
X0148164Y0056829D01*
X0147380Y0057613D01*
X0146355Y0058038D01*
X0145981Y0058038D01*
X0142870Y0061149D01*
X0143716Y0061149D01*
X0145222Y0061773D01*
X0146376Y0062926D01*
X0147000Y0064433D01*
X0147000Y0066064D01*
X0146376Y0067571D01*
X0145222Y0068725D01*
X0143716Y0069349D01*
X0136884Y0069349D01*
X0135378Y0068725D01*
X0134224Y0067571D01*
X0133900Y0066789D01*
X0133900Y0073709D01*
X0134224Y0072926D01*
X0135378Y0071773D01*
X0136884Y0071149D01*
X0143716Y0071149D01*
X0145222Y0071773D01*
X0146376Y0072926D01*
X0147000Y0074433D01*
X0147000Y0076064D01*
X0146376Y0077571D01*
X0145222Y0078725D01*
X0143716Y0079349D01*
X0136884Y0079349D01*
X0135378Y0078725D01*
X0134224Y0077571D01*
X0133900Y0076789D01*
X0133900Y0083619D01*
X0129900Y0087619D01*
X0128670Y0088849D01*
X0119670Y0088849D01*
X0115984Y0092535D01*
X0116376Y0092926D01*
X0117000Y0094433D01*
X0117000Y0096064D01*
X0116376Y0097571D01*
X0115222Y0098725D01*
X0113716Y0099349D01*
X0106884Y0099349D01*
X0105378Y0098725D01*
X0104224Y0097571D01*
X0103600Y0096064D01*
X0103600Y0094433D01*
X0104224Y0092926D01*
X0105378Y0091773D01*
X0106884Y0091149D01*
X0111430Y0091149D01*
X0113230Y0089349D01*
X0106884Y0089349D01*
X0105378Y0088725D01*
X0104224Y0087571D01*
X0103600Y0086064D01*
X0103600Y0084433D01*
X0104224Y0082926D01*
X0105378Y0081773D01*
X0106884Y0081149D01*
X0113230Y0081149D01*
X0113200Y0081119D01*
X0111430Y0079349D01*
X0106884Y0079349D01*
X0105378Y0078725D01*
X0104224Y0077571D01*
X0103600Y0076064D01*
X0103600Y0074433D01*
X0104224Y0072926D01*
X0105378Y0071773D01*
X0106884Y0071149D01*
X0106527Y0071297D02*
X0082400Y0071297D01*
X0082400Y0071895D02*
X0105255Y0071895D01*
X0104657Y0072494D02*
X0082400Y0072494D01*
X0082400Y0073093D02*
X0104155Y0073093D01*
X0103907Y0073691D02*
X0082400Y0073691D01*
X0082400Y0074290D02*
X0103660Y0074290D01*
X0103600Y0074888D02*
X0082400Y0074888D01*
X0082400Y0075487D02*
X0103600Y0075487D01*
X0103609Y0076085D02*
X0082400Y0076085D01*
X0082400Y0076684D02*
X0103856Y0076684D01*
X0104104Y0077282D02*
X0082400Y0077282D01*
X0082400Y0077881D02*
X0104534Y0077881D01*
X0105132Y0078479D02*
X0082400Y0078479D01*
X0082400Y0079078D02*
X0106230Y0079078D01*
X0106105Y0081472D02*
X0082400Y0081472D01*
X0082400Y0082070D02*
X0105080Y0082070D01*
X0104482Y0082669D02*
X0082400Y0082669D01*
X0082400Y0083267D02*
X0104083Y0083267D01*
X0103835Y0083866D02*
X0082400Y0083866D01*
X0082400Y0084464D02*
X0103600Y0084464D01*
X0103600Y0085063D02*
X0082400Y0085063D01*
X0082400Y0085661D02*
X0103600Y0085661D01*
X0103681Y0086260D02*
X0082400Y0086260D01*
X0082400Y0086858D02*
X0103929Y0086858D01*
X0104177Y0087457D02*
X0082400Y0087457D01*
X0082400Y0088055D02*
X0104708Y0088055D01*
X0105307Y0088654D02*
X0082400Y0088654D01*
X0082400Y0089252D02*
X0106652Y0089252D01*
X0105683Y0091646D02*
X0082400Y0091646D01*
X0082400Y0091048D02*
X0111531Y0091048D01*
X0112130Y0090449D02*
X0082400Y0090449D01*
X0082400Y0089851D02*
X0112728Y0089851D01*
X0116274Y0092245D02*
X0118197Y0092245D01*
X0118011Y0092694D02*
X0118436Y0091669D01*
X0119220Y0090884D01*
X0120245Y0090460D01*
X0121355Y0090460D01*
X0122380Y0090884D01*
X0123164Y0091669D01*
X0123589Y0092694D01*
X0123589Y0093143D01*
X0133951Y0104107D01*
X0134244Y0103401D01*
X0134671Y0102763D01*
X0135214Y0102219D01*
X0135853Y0101793D01*
X0136562Y0101499D01*
X0137316Y0101349D01*
X0140000Y0101349D01*
X0140000Y0104949D01*
X0140600Y0104949D01*
X0140600Y0105549D01*
X0140000Y0105549D01*
X0140000Y0109149D01*
X0138716Y0109149D01*
X0138905Y0109349D01*
X0145344Y0109349D01*
X0147570Y0111575D01*
X0148800Y0112805D01*
X0148800Y0118999D01*
X0152827Y0118999D01*
X0152919Y0118777D01*
X0154072Y0117623D01*
X0155579Y0116999D01*
X0157210Y0116999D01*
X0158717Y0117623D01*
X0159870Y0118777D01*
X0160494Y0120284D01*
X0160494Y0121915D01*
X0159870Y0123422D01*
X0158717Y0124575D01*
X0157210Y0125199D01*
X0155579Y0125199D01*
X0154072Y0124575D01*
X0152919Y0123422D01*
X0152827Y0123199D01*
X0146781Y0123199D01*
X0145830Y0122249D01*
X0144600Y0121019D01*
X0144600Y0118982D01*
X0143716Y0119349D01*
X0136884Y0119349D01*
X0135378Y0118725D01*
X0134224Y0117571D01*
X0133600Y0116064D01*
X0133600Y0114433D01*
X0134224Y0112926D01*
X0135378Y0111773D01*
X0135406Y0111761D01*
X0120546Y0096038D01*
X0120245Y0096038D01*
X0119220Y0095613D01*
X0118436Y0094829D01*
X0118011Y0093804D01*
X0118011Y0092694D01*
X0118011Y0092843D02*
X0116293Y0092843D01*
X0116589Y0093442D02*
X0118011Y0093442D01*
X0118109Y0094040D02*
X0116837Y0094040D01*
X0117000Y0094639D02*
X0118357Y0094639D01*
X0118844Y0095237D02*
X0117000Y0095237D01*
X0117000Y0095836D02*
X0119758Y0095836D01*
X0120921Y0096434D02*
X0116847Y0096434D01*
X0116599Y0097033D02*
X0121487Y0097033D01*
X0122052Y0097631D02*
X0116316Y0097631D01*
X0115717Y0098230D02*
X0122618Y0098230D01*
X0123184Y0098828D02*
X0114972Y0098828D01*
X0113894Y0101223D02*
X0125446Y0101223D01*
X0126012Y0101821D02*
X0115270Y0101821D01*
X0115222Y0101773D02*
X0116376Y0102926D01*
X0117000Y0104433D01*
X0117000Y0106064D01*
X0116376Y0107571D01*
X0115222Y0108725D01*
X0113716Y0109349D01*
X0106884Y0109349D01*
X0105378Y0108725D01*
X0104224Y0107571D01*
X0103600Y0106064D01*
X0103600Y0104433D01*
X0104224Y0102926D01*
X0105378Y0101773D01*
X0106884Y0101149D01*
X0113716Y0101149D01*
X0115222Y0101773D01*
X0115869Y0102420D02*
X0126577Y0102420D01*
X0127143Y0103018D02*
X0116414Y0103018D01*
X0116662Y0103617D02*
X0127709Y0103617D01*
X0128274Y0104215D02*
X0116910Y0104215D01*
X0117000Y0104814D02*
X0128840Y0104814D01*
X0129406Y0105412D02*
X0117000Y0105412D01*
X0117000Y0106011D02*
X0129971Y0106011D01*
X0130537Y0106609D02*
X0116774Y0106609D01*
X0116526Y0107208D02*
X0131102Y0107208D01*
X0131668Y0107806D02*
X0116141Y0107806D01*
X0115542Y0108405D02*
X0132234Y0108405D01*
X0132799Y0109003D02*
X0114550Y0109003D01*
X0113716Y0111149D02*
X0115222Y0111773D01*
X0116376Y0112926D01*
X0117000Y0114433D01*
X0117000Y0116064D01*
X0116376Y0117571D01*
X0115222Y0118725D01*
X0113716Y0119349D01*
X0106884Y0119349D01*
X0105378Y0118725D01*
X0104224Y0117571D01*
X0103600Y0116064D01*
X0103600Y0114433D01*
X0104224Y0112926D01*
X0105378Y0111773D01*
X0106884Y0111149D01*
X0113716Y0111149D01*
X0114315Y0111397D02*
X0135062Y0111397D01*
X0135155Y0111996D02*
X0115445Y0111996D01*
X0116044Y0112594D02*
X0134556Y0112594D01*
X0134114Y0113193D02*
X0116486Y0113193D01*
X0116734Y0113791D02*
X0133866Y0113791D01*
X0133618Y0114390D02*
X0116982Y0114390D01*
X0117000Y0114988D02*
X0133600Y0114988D01*
X0133600Y0115587D02*
X0117000Y0115587D01*
X0116950Y0116185D02*
X0133650Y0116185D01*
X0133898Y0116784D02*
X0116702Y0116784D01*
X0116454Y0117382D02*
X0134146Y0117382D01*
X0134634Y0117981D02*
X0115966Y0117981D01*
X0115368Y0118579D02*
X0135232Y0118579D01*
X0136472Y0119178D02*
X0114128Y0119178D01*
X0114038Y0121499D02*
X0113284Y0121349D01*
X0110600Y0121349D01*
X0110600Y0124949D01*
X0110600Y0125549D01*
X0110000Y0125549D01*
X0110000Y0129149D01*
X0107316Y0129149D01*
X0106562Y0128999D01*
X0105853Y0128705D01*
X0105214Y0128278D01*
X0104671Y0127735D01*
X0104244Y0127096D01*
X0103950Y0126386D01*
X0103800Y0125633D01*
X0103800Y0125549D01*
X0110000Y0125549D01*
X0110000Y0124949D01*
X0103800Y0124949D01*
X0103800Y0124865D01*
X0103950Y0124111D01*
X0104244Y0123401D01*
X0104671Y0122763D01*
X0105214Y0122219D01*
X0105853Y0121793D01*
X0106562Y0121499D01*
X0107316Y0121349D01*
X0110000Y0121349D01*
X0110000Y0124949D01*
X0110600Y0124949D01*
X0116800Y0124949D01*
X0116800Y0124865D01*
X0116650Y0124111D01*
X0116356Y0123401D01*
X0115929Y0122763D01*
X0115386Y0122219D01*
X0114747Y0121793D01*
X0114038Y0121499D01*
X0114214Y0121572D02*
X0135863Y0121572D01*
X0135378Y0121773D02*
X0136884Y0121149D01*
X0143716Y0121149D01*
X0145222Y0121773D01*
X0146376Y0122926D01*
X0147000Y0124433D01*
X0147000Y0126064D01*
X0146376Y0127571D01*
X0145222Y0128725D01*
X0143716Y0129349D01*
X0136884Y0129349D01*
X0135378Y0128725D01*
X0134224Y0127571D01*
X0133600Y0126064D01*
X0133600Y0124433D01*
X0134224Y0122926D01*
X0135378Y0121773D01*
X0134980Y0122170D02*
X0115313Y0122170D01*
X0115933Y0122769D02*
X0134382Y0122769D01*
X0134041Y0123367D02*
X0116333Y0123367D01*
X0116590Y0123966D02*
X0133794Y0123966D01*
X0133600Y0124564D02*
X0116740Y0124564D01*
X0116800Y0125549D02*
X0116800Y0125633D01*
X0116650Y0126386D01*
X0116356Y0127096D01*
X0115929Y0127735D01*
X0115386Y0128278D01*
X0114747Y0128705D01*
X0114038Y0128999D01*
X0113284Y0129149D01*
X0110600Y0129149D01*
X0110600Y0125549D01*
X0116800Y0125549D01*
X0116774Y0125762D02*
X0133600Y0125762D01*
X0133600Y0125163D02*
X0110600Y0125163D01*
X0110600Y0125762D02*
X0110000Y0125762D01*
X0110000Y0126360D02*
X0110600Y0126360D01*
X0110600Y0126959D02*
X0110000Y0126959D01*
X0110000Y0127557D02*
X0110600Y0127557D01*
X0110600Y0128156D02*
X0110000Y0128156D01*
X0110000Y0128754D02*
X0110600Y0128754D01*
X0110000Y0125163D02*
X0029054Y0125163D01*
X0029054Y0125762D02*
X0103826Y0125762D01*
X0103945Y0126360D02*
X0029054Y0126360D01*
X0029054Y0126959D02*
X0104187Y0126959D01*
X0104552Y0127557D02*
X0029054Y0127557D01*
X0029054Y0128156D02*
X0105091Y0128156D01*
X0105971Y0128754D02*
X0029054Y0128754D01*
X0029054Y0129353D02*
X0194550Y0129353D01*
X0193951Y0128754D02*
X0145151Y0128754D01*
X0145792Y0128156D02*
X0193376Y0128156D01*
X0193128Y0127557D02*
X0146382Y0127557D01*
X0146630Y0126959D02*
X0192880Y0126959D01*
X0192632Y0126360D02*
X0146878Y0126360D01*
X0147000Y0125762D02*
X0192600Y0125762D01*
X0192600Y0125163D02*
X0157297Y0125163D01*
X0158727Y0124564D02*
X0192600Y0124564D01*
X0192703Y0123966D02*
X0159326Y0123966D01*
X0159893Y0123367D02*
X0175510Y0123367D01*
X0175940Y0123798D02*
X0173656Y0121514D01*
X0173656Y0120198D01*
X0177256Y0120198D01*
X0177256Y0119598D01*
X0177856Y0119598D01*
X0177856Y0115998D01*
X0179171Y0115998D01*
X0181456Y0118283D01*
X0181456Y0119598D01*
X0177856Y0119598D01*
X0177856Y0120198D01*
X0181456Y0120198D01*
X0181456Y0121514D01*
X0179171Y0123798D01*
X0177856Y0123798D01*
X0177856Y0120198D01*
X0177256Y0120198D01*
X0177256Y0123798D01*
X0175940Y0123798D01*
X0177256Y0123367D02*
X0177856Y0123367D01*
X0177856Y0122769D02*
X0177256Y0122769D01*
X0177256Y0122170D02*
X0177856Y0122170D01*
X0177856Y0121572D02*
X0177256Y0121572D01*
X0177256Y0120973D02*
X0177856Y0120973D01*
X0177856Y0120375D02*
X0177256Y0120375D01*
X0177256Y0119776D02*
X0160284Y0119776D01*
X0160494Y0120375D02*
X0173656Y0120375D01*
X0173656Y0120973D02*
X0160494Y0120973D01*
X0160494Y0121572D02*
X0173714Y0121572D01*
X0174312Y0122170D02*
X0160389Y0122170D01*
X0160141Y0122769D02*
X0174911Y0122769D01*
X0173656Y0119598D02*
X0173656Y0118283D01*
X0175940Y0115998D01*
X0177256Y0115998D01*
X0177256Y0119598D01*
X0173656Y0119598D01*
X0173656Y0119178D02*
X0160036Y0119178D01*
X0159673Y0118579D02*
X0173656Y0118579D01*
X0173958Y0117981D02*
X0159074Y0117981D01*
X0158135Y0117382D02*
X0174557Y0117382D01*
X0175155Y0116784D02*
X0148800Y0116784D01*
X0148800Y0117382D02*
X0154654Y0117382D01*
X0153715Y0117981D02*
X0148800Y0117981D01*
X0148800Y0118579D02*
X0153116Y0118579D01*
X0152896Y0123367D02*
X0146559Y0123367D01*
X0146350Y0122769D02*
X0146218Y0122769D01*
X0145752Y0122170D02*
X0145620Y0122170D01*
X0145153Y0121572D02*
X0144737Y0121572D01*
X0144600Y0120973D02*
X0029054Y0120973D01*
X0029054Y0120375D02*
X0144600Y0120375D01*
X0144600Y0119776D02*
X0029054Y0119776D01*
X0029054Y0119178D02*
X0106472Y0119178D01*
X0105232Y0118579D02*
X0029054Y0118579D01*
X0029054Y0117981D02*
X0104634Y0117981D01*
X0104146Y0117382D02*
X0029054Y0117382D01*
X0029054Y0116784D02*
X0103898Y0116784D01*
X0103650Y0116185D02*
X0029054Y0116185D01*
X0029054Y0115587D02*
X0103600Y0115587D01*
X0103600Y0114988D02*
X0072005Y0114988D01*
X0072603Y0114390D02*
X0103618Y0114390D01*
X0103866Y0113791D02*
X0072887Y0113791D01*
X0073089Y0113193D02*
X0104114Y0113193D01*
X0104556Y0112594D02*
X0073089Y0112594D01*
X0073007Y0111996D02*
X0105155Y0111996D01*
X0106285Y0111397D02*
X0072759Y0111397D01*
X0072400Y0110799D02*
X0079168Y0110799D01*
X0078307Y0110200D02*
X0072400Y0110200D01*
X0072400Y0109602D02*
X0077842Y0109602D01*
X0077594Y0109003D02*
X0072400Y0109003D01*
X0072400Y0108405D02*
X0077511Y0108405D01*
X0077511Y0107806D02*
X0072400Y0107806D01*
X0072400Y0107208D02*
X0077712Y0107208D01*
X0077995Y0106609D02*
X0072400Y0106609D01*
X0072400Y0106011D02*
X0078200Y0106011D01*
X0078200Y0105412D02*
X0072400Y0105412D01*
X0072400Y0104814D02*
X0078200Y0104814D01*
X0078200Y0104215D02*
X0072400Y0104215D01*
X0072400Y0103617D02*
X0078200Y0103617D01*
X0078200Y0103018D02*
X0072400Y0103018D01*
X0072400Y0102420D02*
X0078200Y0102420D01*
X0078200Y0101821D02*
X0072400Y0101821D01*
X0072400Y0101223D02*
X0078200Y0101223D01*
X0078200Y0100624D02*
X0072400Y0100624D01*
X0072400Y0100026D02*
X0078200Y0100026D01*
X0078200Y0099427D02*
X0072400Y0099427D01*
X0072400Y0098828D02*
X0078200Y0098828D01*
X0078200Y0098230D02*
X0072400Y0098230D01*
X0072400Y0097631D02*
X0078200Y0097631D01*
X0078200Y0097033D02*
X0072400Y0097033D01*
X0072400Y0096434D02*
X0078200Y0096434D01*
X0078200Y0095836D02*
X0072400Y0095836D01*
X0072400Y0095237D02*
X0078200Y0095237D01*
X0078200Y0094639D02*
X0072400Y0094639D01*
X0072400Y0094040D02*
X0078200Y0094040D01*
X0078200Y0093442D02*
X0072400Y0093442D01*
X0072400Y0092843D02*
X0078200Y0092843D01*
X0078200Y0092245D02*
X0072400Y0092245D01*
X0072400Y0091646D02*
X0078200Y0091646D01*
X0078200Y0091048D02*
X0072400Y0091048D01*
X0072400Y0090449D02*
X0078200Y0090449D01*
X0078200Y0089851D02*
X0072400Y0089851D01*
X0072400Y0089252D02*
X0078200Y0089252D01*
X0078200Y0088654D02*
X0072400Y0088654D01*
X0072400Y0088055D02*
X0078200Y0088055D01*
X0078200Y0087457D02*
X0072400Y0087457D01*
X0072400Y0086858D02*
X0078200Y0086858D01*
X0078200Y0086260D02*
X0072400Y0086260D01*
X0072400Y0085661D02*
X0078200Y0085661D01*
X0078200Y0085063D02*
X0072400Y0085063D01*
X0072400Y0084464D02*
X0078200Y0084464D01*
X0078200Y0083866D02*
X0072400Y0083866D01*
X0072400Y0083267D02*
X0078200Y0083267D01*
X0078200Y0082669D02*
X0072400Y0082669D01*
X0072400Y0082070D02*
X0078200Y0082070D01*
X0078200Y0081472D02*
X0072400Y0081472D01*
X0072400Y0080873D02*
X0078200Y0080873D01*
X0078200Y0080275D02*
X0072400Y0080275D01*
X0072400Y0079676D02*
X0078200Y0079676D01*
X0078200Y0079078D02*
X0072400Y0079078D01*
X0072400Y0078479D02*
X0078200Y0078479D01*
X0078200Y0077881D02*
X0072400Y0077881D01*
X0072400Y0077282D02*
X0078200Y0077282D01*
X0078200Y0076684D02*
X0072400Y0076684D01*
X0072400Y0076085D02*
X0078200Y0076085D01*
X0078200Y0075487D02*
X0072400Y0075487D01*
X0072400Y0074888D02*
X0078200Y0074888D01*
X0078200Y0074290D02*
X0072400Y0074290D01*
X0072400Y0073691D02*
X0078200Y0073691D01*
X0078200Y0073093D02*
X0072400Y0073093D01*
X0072400Y0072494D02*
X0078200Y0072494D01*
X0078200Y0071895D02*
X0072400Y0071895D01*
X0072400Y0071297D02*
X0078200Y0071297D01*
X0078200Y0070698D02*
X0072400Y0070698D01*
X0072400Y0070100D02*
X0078200Y0070100D01*
X0078200Y0069501D02*
X0072400Y0069501D01*
X0072400Y0068903D02*
X0078200Y0068903D01*
X0078200Y0068304D02*
X0072329Y0068304D01*
X0071731Y0067706D02*
X0078161Y0067706D01*
X0077563Y0067107D02*
X0071132Y0067107D01*
X0070534Y0066509D02*
X0076964Y0066509D01*
X0076366Y0065910D02*
X0069935Y0065910D01*
X0069337Y0065312D02*
X0075767Y0065312D01*
X0075169Y0064713D02*
X0068738Y0064713D01*
X0068140Y0064115D02*
X0074570Y0064115D01*
X0073972Y0063516D02*
X0067541Y0063516D01*
X0066943Y0062918D02*
X0073373Y0062918D01*
X0072775Y0062319D02*
X0066344Y0062319D01*
X0065746Y0061721D02*
X0072176Y0061721D01*
X0071578Y0061122D02*
X0065147Y0061122D01*
X0065571Y0060524D02*
X0070979Y0060524D01*
X0070381Y0059925D02*
X0066050Y0059925D01*
X0066050Y0059327D02*
X0069782Y0059327D01*
X0069184Y0058728D02*
X0066050Y0058728D01*
X0066050Y0058130D02*
X0068585Y0058130D01*
X0067987Y0057531D02*
X0066050Y0057531D01*
X0066050Y0056933D02*
X0067388Y0056933D01*
X0066790Y0056334D02*
X0065735Y0056334D01*
X0066191Y0055736D02*
X0065136Y0055736D01*
X0065593Y0055137D02*
X0064538Y0055137D01*
X0064994Y0054539D02*
X0063939Y0054539D01*
X0064396Y0053940D02*
X0057965Y0053940D01*
X0057367Y0053342D02*
X0063797Y0053342D01*
X0063198Y0052743D02*
X0058903Y0052743D01*
X0059502Y0052145D02*
X0062600Y0052145D01*
X0062001Y0051546D02*
X0060100Y0051546D01*
X0060699Y0050948D02*
X0061403Y0050948D01*
X0059960Y0054539D02*
X0058564Y0054539D01*
X0059162Y0055137D02*
X0059361Y0055137D01*
X0056050Y0058130D02*
X0052250Y0058130D01*
X0052250Y0058728D02*
X0051650Y0058728D01*
X0051650Y0058130D02*
X0046554Y0058130D01*
X0046554Y0058728D02*
X0048050Y0058728D01*
X0048050Y0059327D02*
X0046554Y0059327D01*
X0046554Y0059925D02*
X0048050Y0059925D01*
X0048611Y0060524D02*
X0046554Y0060524D01*
X0046554Y0061122D02*
X0049209Y0061122D01*
X0049808Y0061721D02*
X0046554Y0061721D01*
X0046554Y0062319D02*
X0057578Y0062319D01*
X0056979Y0061721D02*
X0054091Y0061721D01*
X0054690Y0061122D02*
X0056381Y0061122D01*
X0056050Y0060524D02*
X0055288Y0060524D01*
X0055850Y0059925D02*
X0056050Y0059925D01*
X0056050Y0059327D02*
X0055850Y0059327D01*
X0055850Y0058728D02*
X0056050Y0058728D01*
X0052250Y0059327D02*
X0051650Y0059327D01*
X0051650Y0059925D02*
X0052250Y0059925D01*
X0052250Y0060524D02*
X0051650Y0060524D01*
X0051650Y0061122D02*
X0052250Y0061122D01*
X0052250Y0061721D02*
X0051650Y0061721D01*
X0051650Y0058047D02*
X0048050Y0058047D01*
X0048050Y0056732D01*
X0050334Y0054447D01*
X0051650Y0054447D01*
X0051650Y0058047D01*
X0051650Y0057531D02*
X0052250Y0057531D01*
X0052250Y0056933D02*
X0051650Y0056933D01*
X0051650Y0056334D02*
X0052250Y0056334D01*
X0052250Y0055736D02*
X0051650Y0055736D01*
X0051650Y0055137D02*
X0052250Y0055137D01*
X0052250Y0054539D02*
X0051650Y0054539D01*
X0052025Y0053940D02*
X0046554Y0053940D01*
X0046554Y0053342D02*
X0051427Y0053342D01*
X0050828Y0052743D02*
X0046554Y0052743D01*
X0046554Y0052145D02*
X0050230Y0052145D01*
X0049631Y0051546D02*
X0046554Y0051546D01*
X0046547Y0050948D02*
X0049033Y0050948D01*
X0048434Y0050349D02*
X0045949Y0050349D01*
X0045350Y0049751D02*
X0047836Y0049751D01*
X0047237Y0049152D02*
X0044752Y0049152D01*
X0045324Y0049724D02*
X0045324Y0049724D01*
X0044153Y0048554D02*
X0046639Y0048554D01*
X0046040Y0047955D02*
X0043555Y0047955D01*
X0044843Y0046758D02*
X0028060Y0046758D01*
X0028060Y0046159D02*
X0044245Y0046159D01*
X0043646Y0045561D02*
X0028060Y0045561D01*
X0028022Y0044962D02*
X0043048Y0044962D01*
X0042449Y0044364D02*
X0027774Y0044364D01*
X0028060Y0047357D02*
X0045442Y0047357D01*
X0046554Y0054539D02*
X0050243Y0054539D01*
X0049644Y0055137D02*
X0046554Y0055137D01*
X0046554Y0055736D02*
X0049046Y0055736D01*
X0048447Y0056334D02*
X0046554Y0056334D01*
X0046554Y0056933D02*
X0048050Y0056933D01*
X0048050Y0057531D02*
X0046554Y0057531D01*
X0046554Y0062918D02*
X0058176Y0062918D01*
X0058775Y0063516D02*
X0046554Y0063516D01*
X0046554Y0064115D02*
X0059373Y0064115D01*
X0060251Y0066098D02*
X0063648Y0066098D01*
X0066050Y0068499D01*
X0066050Y0071896D01*
X0063648Y0074298D01*
X0060251Y0074298D01*
X0057850Y0071896D01*
X0057850Y0068499D01*
X0060251Y0066098D01*
X0059840Y0066509D02*
X0053776Y0066509D01*
X0053565Y0066298D02*
X0055850Y0068582D01*
X0055850Y0069898D01*
X0052250Y0069898D01*
X0052250Y0070498D01*
X0055850Y0070498D01*
X0055850Y0071813D01*
X0053565Y0074098D01*
X0052250Y0074098D01*
X0052250Y0070498D01*
X0051650Y0070498D01*
X0051650Y0074098D01*
X0050334Y0074098D01*
X0048050Y0071813D01*
X0048050Y0070498D01*
X0051650Y0070498D01*
X0051650Y0069898D01*
X0052250Y0069898D01*
X0052250Y0066298D01*
X0053565Y0066298D01*
X0054375Y0067107D02*
X0059242Y0067107D01*
X0058643Y0067706D02*
X0054973Y0067706D01*
X0055572Y0068304D02*
X0058045Y0068304D01*
X0057850Y0068903D02*
X0055850Y0068903D01*
X0055850Y0069501D02*
X0057850Y0069501D01*
X0057850Y0070100D02*
X0052250Y0070100D01*
X0052250Y0070698D02*
X0051650Y0070698D01*
X0051650Y0070100D02*
X0046554Y0070100D01*
X0046554Y0070698D02*
X0048050Y0070698D01*
X0048050Y0071297D02*
X0046554Y0071297D01*
X0046554Y0071895D02*
X0048132Y0071895D01*
X0048731Y0072494D02*
X0046554Y0072494D01*
X0046554Y0073093D02*
X0049329Y0073093D01*
X0049928Y0073691D02*
X0046554Y0073691D01*
X0046554Y0074290D02*
X0060243Y0074290D01*
X0059645Y0073691D02*
X0053972Y0073691D01*
X0054570Y0073093D02*
X0059046Y0073093D01*
X0058448Y0072494D02*
X0055169Y0072494D01*
X0055767Y0071895D02*
X0057850Y0071895D01*
X0057850Y0071297D02*
X0055850Y0071297D01*
X0055850Y0070698D02*
X0057850Y0070698D01*
X0063656Y0074290D02*
X0068200Y0074290D01*
X0068200Y0074888D02*
X0046554Y0074888D01*
X0046554Y0075487D02*
X0068200Y0075487D01*
X0068200Y0076085D02*
X0046554Y0076085D01*
X0046554Y0076684D02*
X0068200Y0076684D01*
X0068200Y0077282D02*
X0046554Y0077282D01*
X0046554Y0077881D02*
X0053729Y0077881D01*
X0056871Y0077881D02*
X0068200Y0077881D01*
X0068200Y0078479D02*
X0057474Y0078479D01*
X0057834Y0079078D02*
X0068200Y0079078D01*
X0068200Y0079676D02*
X0058082Y0079676D01*
X0058089Y0080275D02*
X0068200Y0080275D01*
X0068200Y0080873D02*
X0058060Y0080873D01*
X0057812Y0081472D02*
X0068200Y0081472D01*
X0068200Y0082070D02*
X0057423Y0082070D01*
X0056746Y0082669D02*
X0068200Y0082669D01*
X0068200Y0083267D02*
X0045429Y0083267D01*
X0046027Y0082669D02*
X0053854Y0082669D01*
X0052250Y0073691D02*
X0051650Y0073691D01*
X0051650Y0073093D02*
X0052250Y0073093D01*
X0052250Y0072494D02*
X0051650Y0072494D01*
X0051650Y0071895D02*
X0052250Y0071895D01*
X0052250Y0071297D02*
X0051650Y0071297D01*
X0051650Y0069898D02*
X0048050Y0069898D01*
X0048050Y0068582D01*
X0050334Y0066298D01*
X0051650Y0066298D01*
X0051650Y0069898D01*
X0051650Y0069501D02*
X0052250Y0069501D01*
X0052250Y0068903D02*
X0051650Y0068903D01*
X0051650Y0068304D02*
X0052250Y0068304D01*
X0052250Y0067706D02*
X0051650Y0067706D01*
X0051650Y0067107D02*
X0052250Y0067107D01*
X0052250Y0066509D02*
X0051650Y0066509D01*
X0050123Y0066509D02*
X0046554Y0066509D01*
X0046554Y0067107D02*
X0049524Y0067107D01*
X0048926Y0067706D02*
X0046554Y0067706D01*
X0046554Y0068304D02*
X0048327Y0068304D01*
X0048050Y0068903D02*
X0046554Y0068903D01*
X0046554Y0069501D02*
X0048050Y0069501D01*
X0046554Y0065910D02*
X0063996Y0065910D01*
X0064059Y0066509D02*
X0064594Y0066509D01*
X0064658Y0067107D02*
X0065193Y0067107D01*
X0065256Y0067706D02*
X0065791Y0067706D01*
X0065855Y0068304D02*
X0066390Y0068304D01*
X0066050Y0068903D02*
X0066988Y0068903D01*
X0067587Y0069501D02*
X0066050Y0069501D01*
X0066050Y0070100D02*
X0068185Y0070100D01*
X0068200Y0070698D02*
X0066050Y0070698D01*
X0066050Y0071297D02*
X0068200Y0071297D01*
X0068200Y0071895D02*
X0066050Y0071895D01*
X0065452Y0072494D02*
X0068200Y0072494D01*
X0068200Y0073093D02*
X0064853Y0073093D01*
X0064254Y0073691D02*
X0068200Y0073691D01*
X0063397Y0065312D02*
X0046554Y0065312D01*
X0046554Y0064713D02*
X0062799Y0064713D01*
X0076566Y0052743D02*
X0123200Y0052743D01*
X0123200Y0052145D02*
X0122065Y0052145D01*
X0122664Y0051546D02*
X0123200Y0051546D01*
X0120750Y0051546D02*
X0120150Y0051546D01*
X0120150Y0050948D02*
X0120750Y0050948D01*
X0120750Y0050349D02*
X0120150Y0050349D01*
X0120150Y0049751D02*
X0120750Y0049751D01*
X0120750Y0049152D02*
X0120150Y0049152D01*
X0120150Y0048554D02*
X0120750Y0048554D01*
X0120150Y0047955D02*
X0076950Y0047955D01*
X0077549Y0048554D02*
X0116550Y0048554D01*
X0116550Y0049152D02*
X0077864Y0049152D01*
X0078089Y0049751D02*
X0116550Y0049751D01*
X0117038Y0050349D02*
X0078089Y0050349D01*
X0078029Y0050948D02*
X0117637Y0050948D01*
X0118235Y0051546D02*
X0077781Y0051546D01*
X0077348Y0052145D02*
X0118834Y0052145D01*
X0120150Y0052145D02*
X0120750Y0052145D01*
X0120150Y0047945D02*
X0116550Y0047945D01*
X0116550Y0046629D01*
X0118834Y0044345D01*
X0120150Y0044345D01*
X0120150Y0047945D01*
X0120150Y0047357D02*
X0120750Y0047357D01*
X0120750Y0046758D02*
X0120150Y0046758D01*
X0120150Y0046159D02*
X0120750Y0046159D01*
X0120750Y0045561D02*
X0120150Y0045561D01*
X0120150Y0044962D02*
X0120750Y0044962D01*
X0120750Y0044364D02*
X0120150Y0044364D01*
X0118815Y0044364D02*
X0072385Y0044364D01*
X0072984Y0044962D02*
X0118217Y0044962D01*
X0117618Y0045561D02*
X0073582Y0045561D01*
X0074181Y0046159D02*
X0117020Y0046159D01*
X0116550Y0046758D02*
X0074779Y0046758D01*
X0075378Y0047357D02*
X0116550Y0047357D01*
X0122084Y0044364D02*
X0123200Y0044364D01*
X0123200Y0044962D02*
X0122683Y0044962D01*
X0123200Y0043765D02*
X0071786Y0043765D01*
X0071188Y0043167D02*
X0123200Y0043167D01*
X0123200Y0042568D02*
X0070589Y0042568D01*
X0069991Y0041970D02*
X0123200Y0041970D01*
X0123200Y0041371D02*
X0069392Y0041371D01*
X0068794Y0040773D02*
X0123200Y0040773D01*
X0123200Y0040174D02*
X0068195Y0040174D01*
X0067850Y0039576D02*
X0123200Y0039576D01*
X0123200Y0038977D02*
X0112523Y0038977D01*
X0112349Y0039152D02*
X0108952Y0039152D01*
X0106550Y0036750D01*
X0106550Y0033354D01*
X0108952Y0030952D01*
X0112349Y0030952D01*
X0114750Y0033354D01*
X0114750Y0036750D01*
X0112349Y0039152D01*
X0113122Y0038379D02*
X0123200Y0038379D01*
X0123200Y0037780D02*
X0113720Y0037780D01*
X0114319Y0037182D02*
X0123200Y0037182D01*
X0123200Y0036583D02*
X0114750Y0036583D01*
X0114750Y0035985D02*
X0123200Y0035985D01*
X0123200Y0035386D02*
X0114750Y0035386D01*
X0114750Y0034788D02*
X0123200Y0034788D01*
X0123200Y0034189D02*
X0114750Y0034189D01*
X0114750Y0033591D02*
X0123200Y0033591D01*
X0123200Y0032992D02*
X0114389Y0032992D01*
X0113790Y0032394D02*
X0123200Y0032394D01*
X0123200Y0031795D02*
X0113192Y0031795D01*
X0112593Y0031197D02*
X0123200Y0031197D01*
X0123200Y0030598D02*
X0075842Y0030598D01*
X0076440Y0030000D02*
X0123200Y0030000D01*
X0123185Y0029401D02*
X0077039Y0029401D01*
X0077637Y0028803D02*
X0123276Y0028803D01*
X0123868Y0028204D02*
X0078236Y0028204D01*
X0078834Y0027606D02*
X0124422Y0027606D01*
X0124977Y0027007D02*
X0079433Y0027007D01*
X0080031Y0026409D02*
X0125531Y0026409D01*
X0126085Y0025810D02*
X0080630Y0025810D01*
X0081228Y0025212D02*
X0126639Y0025212D01*
X0127193Y0024613D02*
X0081827Y0024613D01*
X0082426Y0024015D02*
X0109622Y0024015D01*
X0109751Y0024144D02*
X0107350Y0021742D01*
X0107350Y0018346D01*
X0109751Y0015944D01*
X0113148Y0015944D01*
X0115550Y0018346D01*
X0115550Y0021742D01*
X0113148Y0024144D01*
X0109751Y0024144D01*
X0109023Y0023416D02*
X0083024Y0023416D01*
X0083623Y0022818D02*
X0108425Y0022818D01*
X0107826Y0022219D02*
X0084221Y0022219D01*
X0078281Y0022219D02*
X0042508Y0022219D01*
X0041328Y0022219D02*
X0040728Y0022219D01*
X0040728Y0022818D02*
X0041328Y0022818D01*
X0041328Y0023416D02*
X0040728Y0023416D01*
X0040728Y0024015D02*
X0041328Y0024015D01*
X0041328Y0024613D02*
X0040728Y0024613D01*
X0040728Y0025212D02*
X0041328Y0025212D01*
X0041328Y0025810D02*
X0048050Y0025810D01*
X0048050Y0025531D02*
X0050334Y0023246D01*
X0051650Y0023246D01*
X0051650Y0026846D01*
X0048050Y0026846D01*
X0048050Y0025531D01*
X0048369Y0025212D02*
X0044862Y0025212D01*
X0044731Y0024613D02*
X0048968Y0024613D01*
X0049566Y0024015D02*
X0044483Y0024015D01*
X0044096Y0023416D02*
X0050165Y0023416D01*
X0051650Y0023416D02*
X0052250Y0023416D01*
X0052250Y0024015D02*
X0051650Y0024015D01*
X0051650Y0024613D02*
X0052250Y0024613D01*
X0052250Y0025212D02*
X0051650Y0025212D01*
X0051650Y0025810D02*
X0052250Y0025810D01*
X0052250Y0026409D02*
X0051650Y0026409D01*
X0051650Y0027007D02*
X0044722Y0027007D01*
X0044858Y0026409D02*
X0048050Y0026409D01*
X0048050Y0027606D02*
X0044474Y0027606D01*
X0044082Y0028204D02*
X0048050Y0028204D01*
X0048090Y0028803D02*
X0043505Y0028803D01*
X0044093Y0029401D02*
X0048689Y0029401D01*
X0049287Y0030000D02*
X0044569Y0030000D01*
X0044817Y0030598D02*
X0049886Y0030598D01*
X0049211Y0032394D02*
X0045103Y0032394D01*
X0045069Y0032992D02*
X0048612Y0032992D01*
X0048261Y0033591D02*
X0045490Y0033591D01*
X0046088Y0034189D02*
X0048013Y0034189D01*
X0048011Y0034788D02*
X0046687Y0034788D01*
X0047285Y0035386D02*
X0048045Y0035386D01*
X0047884Y0035985D02*
X0048293Y0035985D01*
X0048482Y0036583D02*
X0048690Y0036583D01*
X0049081Y0037182D02*
X0049386Y0037182D01*
X0049679Y0037780D02*
X0050052Y0037780D01*
X0060348Y0035386D02*
X0066550Y0035386D01*
X0066550Y0034788D02*
X0060589Y0034788D01*
X0060829Y0034189D02*
X0066550Y0034189D01*
X0066550Y0033591D02*
X0061428Y0033591D01*
X0064880Y0035985D02*
X0066550Y0035985D01*
X0066550Y0036583D02*
X0065478Y0036583D01*
X0066077Y0037182D02*
X0066982Y0037182D01*
X0066675Y0037780D02*
X0067580Y0037780D01*
X0067274Y0038379D02*
X0068179Y0038379D01*
X0067850Y0038977D02*
X0068778Y0038977D01*
X0072523Y0038977D02*
X0108778Y0038977D01*
X0108179Y0038379D02*
X0073122Y0038379D01*
X0073720Y0037780D02*
X0107580Y0037780D01*
X0106982Y0037182D02*
X0074319Y0037182D01*
X0074750Y0036583D02*
X0106550Y0036583D01*
X0106550Y0035985D02*
X0074750Y0035985D01*
X0074750Y0035386D02*
X0106550Y0035386D01*
X0106550Y0034788D02*
X0074750Y0034788D01*
X0074750Y0034189D02*
X0106550Y0034189D01*
X0106550Y0033591D02*
X0074750Y0033591D01*
X0074389Y0032992D02*
X0106912Y0032992D01*
X0107510Y0032394D02*
X0074046Y0032394D01*
X0074645Y0031795D02*
X0108109Y0031795D01*
X0108707Y0031197D02*
X0075243Y0031197D01*
X0072895Y0027606D02*
X0066050Y0027606D01*
X0066050Y0028204D02*
X0072296Y0028204D01*
X0071698Y0028803D02*
X0066050Y0028803D01*
X0066050Y0027007D02*
X0073493Y0027007D01*
X0074092Y0026409D02*
X0066050Y0026409D01*
X0066050Y0025810D02*
X0074690Y0025810D01*
X0075289Y0025212D02*
X0065813Y0025212D01*
X0065215Y0024613D02*
X0075887Y0024613D01*
X0076486Y0024015D02*
X0064616Y0024015D01*
X0064017Y0023416D02*
X0077084Y0023416D01*
X0077683Y0022818D02*
X0043526Y0022818D01*
X0048565Y0018628D02*
X0028060Y0018628D01*
X0028060Y0018029D02*
X0048050Y0018029D01*
X0048050Y0017431D02*
X0028060Y0017431D01*
X0028060Y0016832D02*
X0048050Y0016832D01*
X0048050Y0015635D02*
X0027778Y0015635D01*
X0027530Y0015037D02*
X0048050Y0015037D01*
X0048493Y0014438D02*
X0027283Y0014438D01*
X0027035Y0013840D02*
X0049091Y0013840D01*
X0049690Y0013241D02*
X0026517Y0013241D01*
X0025919Y0012643D02*
X0050288Y0012643D01*
X0051650Y0012643D02*
X0052250Y0012643D01*
X0052250Y0013241D02*
X0051650Y0013241D01*
X0051650Y0013840D02*
X0052250Y0013840D01*
X0052250Y0014438D02*
X0051650Y0014438D01*
X0051650Y0015037D02*
X0052250Y0015037D01*
X0052250Y0015635D02*
X0051650Y0015635D01*
X0051650Y0016234D02*
X0028026Y0016234D01*
X0028025Y0019226D02*
X0049164Y0019226D01*
X0049762Y0019825D02*
X0027778Y0019825D01*
X0025320Y0012044D02*
X0134651Y0012044D01*
X0134052Y0012643D02*
X0063894Y0012643D01*
X0064492Y0013241D02*
X0067450Y0013241D01*
X0066851Y0013840D02*
X0065091Y0013840D01*
X0065689Y0014438D02*
X0066733Y0014438D01*
X0066733Y0015037D02*
X0066050Y0015037D01*
X0066050Y0015635D02*
X0066733Y0015635D01*
X0066733Y0016234D02*
X0066050Y0016234D01*
X0066050Y0016832D02*
X0066733Y0016832D01*
X0066733Y0017431D02*
X0066050Y0017431D01*
X0066050Y0018029D02*
X0066733Y0018029D01*
X0066733Y0018628D02*
X0065617Y0018628D01*
X0065018Y0019226D02*
X0066733Y0019226D01*
X0066733Y0019825D02*
X0064420Y0019825D01*
X0063821Y0020424D02*
X0066733Y0020424D01*
X0075187Y0021621D02*
X0075877Y0021621D01*
X0074953Y0013241D02*
X0098946Y0013241D01*
X0091261Y0013840D02*
X0090512Y0013840D01*
X0083387Y0013840D02*
X0082638Y0013840D01*
X0090148Y0021621D02*
X0091625Y0021621D01*
X0091027Y0021022D02*
X0090747Y0021022D01*
X0098022Y0021621D02*
X0098712Y0021621D01*
X0106683Y0021621D02*
X0107350Y0021621D01*
X0107350Y0021022D02*
X0107166Y0021022D01*
X0107166Y0020424D02*
X0107350Y0020424D01*
X0107350Y0019825D02*
X0107166Y0019825D01*
X0107166Y0019226D02*
X0107350Y0019226D01*
X0107350Y0018628D02*
X0107166Y0018628D01*
X0107166Y0018029D02*
X0107666Y0018029D01*
X0107166Y0017431D02*
X0108264Y0017431D01*
X0108863Y0016832D02*
X0107166Y0016832D01*
X0107166Y0016234D02*
X0109461Y0016234D01*
X0107166Y0015635D02*
X0132600Y0015635D01*
X0132600Y0016234D02*
X0123155Y0016234D01*
X0123065Y0016144D02*
X0125350Y0018429D01*
X0125350Y0019744D01*
X0121750Y0019744D01*
X0121750Y0020344D01*
X0125350Y0020344D01*
X0125350Y0021660D01*
X0123065Y0023944D01*
X0121750Y0023944D01*
X0121750Y0020344D01*
X0121150Y0020344D01*
X0121150Y0023944D01*
X0119834Y0023944D01*
X0117550Y0021660D01*
X0117550Y0020344D01*
X0121150Y0020344D01*
X0121150Y0019744D01*
X0121750Y0019744D01*
X0121750Y0016144D01*
X0123065Y0016144D01*
X0123753Y0016832D02*
X0132600Y0016832D01*
X0132661Y0017431D02*
X0124352Y0017431D01*
X0124950Y0018029D02*
X0132909Y0018029D01*
X0132735Y0018628D02*
X0125350Y0018628D01*
X0125350Y0019226D02*
X0132181Y0019226D01*
X0131627Y0019825D02*
X0121750Y0019825D01*
X0121750Y0020424D02*
X0121150Y0020424D01*
X0121150Y0021022D02*
X0121750Y0021022D01*
X0121750Y0021621D02*
X0121150Y0021621D01*
X0121150Y0022219D02*
X0121750Y0022219D01*
X0121750Y0022818D02*
X0121150Y0022818D01*
X0121150Y0023416D02*
X0121750Y0023416D01*
X0123593Y0023416D02*
X0128302Y0023416D01*
X0128856Y0022818D02*
X0124192Y0022818D01*
X0124790Y0022219D02*
X0129410Y0022219D01*
X0129964Y0021621D02*
X0125350Y0021621D01*
X0125350Y0021022D02*
X0130518Y0021022D01*
X0131073Y0020424D02*
X0125350Y0020424D01*
X0121750Y0019226D02*
X0121150Y0019226D01*
X0121150Y0019744D02*
X0121150Y0016144D01*
X0119834Y0016144D01*
X0117550Y0018429D01*
X0117550Y0019744D01*
X0121150Y0019744D01*
X0121150Y0019825D02*
X0115550Y0019825D01*
X0115550Y0020424D02*
X0117550Y0020424D01*
X0117550Y0021022D02*
X0115550Y0021022D01*
X0115550Y0021621D02*
X0117550Y0021621D01*
X0118109Y0022219D02*
X0115073Y0022219D01*
X0114474Y0022818D02*
X0118708Y0022818D01*
X0119306Y0023416D02*
X0113876Y0023416D01*
X0113277Y0024015D02*
X0127748Y0024015D01*
X0130701Y0027007D02*
X0148200Y0027007D01*
X0148200Y0026409D02*
X0131255Y0026409D01*
X0131809Y0025810D02*
X0148363Y0025810D01*
X0148962Y0025212D02*
X0132363Y0025212D01*
X0132917Y0024613D02*
X0149560Y0024613D01*
X0150159Y0024015D02*
X0133471Y0024015D01*
X0134026Y0023416D02*
X0150757Y0023416D01*
X0151356Y0022818D02*
X0134580Y0022818D01*
X0135134Y0022219D02*
X0151954Y0022219D01*
X0152350Y0021621D02*
X0135688Y0021621D01*
X0139865Y0021022D02*
X0152350Y0021022D01*
X0152350Y0020424D02*
X0140979Y0020424D01*
X0141578Y0019825D02*
X0152350Y0019825D01*
X0152350Y0019226D02*
X0142176Y0019226D01*
X0142443Y0018628D02*
X0152717Y0018628D01*
X0153316Y0018029D02*
X0142691Y0018029D01*
X0142939Y0017431D02*
X0153914Y0017431D01*
X0154513Y0016832D02*
X0143000Y0016832D01*
X0143000Y0016234D02*
X0179600Y0016234D01*
X0179600Y0015635D02*
X0143000Y0015635D01*
X0142926Y0015037D02*
X0179600Y0015037D01*
X0179714Y0014438D02*
X0142679Y0014438D01*
X0142431Y0013840D02*
X0179962Y0013840D01*
X0180210Y0013241D02*
X0142146Y0013241D01*
X0141548Y0012643D02*
X0180552Y0012643D01*
X0181151Y0012044D02*
X0140949Y0012044D01*
X0133454Y0013241D02*
X0106449Y0013241D01*
X0107048Y0013840D02*
X0133169Y0013840D01*
X0132921Y0014438D02*
X0107166Y0014438D01*
X0107166Y0015037D02*
X0132674Y0015037D01*
X0121750Y0016234D02*
X0121150Y0016234D01*
X0121150Y0016832D02*
X0121750Y0016832D01*
X0121750Y0017431D02*
X0121150Y0017431D01*
X0121150Y0018029D02*
X0121750Y0018029D01*
X0121750Y0018628D02*
X0121150Y0018628D01*
X0119146Y0016832D02*
X0114036Y0016832D01*
X0113438Y0016234D02*
X0119744Y0016234D01*
X0118547Y0017431D02*
X0114635Y0017431D01*
X0115233Y0018029D02*
X0117949Y0018029D01*
X0117550Y0018628D02*
X0115550Y0018628D01*
X0115550Y0019226D02*
X0117550Y0019226D01*
X0127930Y0030000D02*
X0148200Y0030000D01*
X0148200Y0030598D02*
X0127400Y0030598D01*
X0127400Y0031197D02*
X0148200Y0031197D01*
X0148200Y0031795D02*
X0140073Y0031795D01*
X0140421Y0031972D02*
X0141057Y0032435D01*
X0141614Y0032992D01*
X0148200Y0032992D01*
X0148200Y0032394D02*
X0141000Y0032394D01*
X0140421Y0031972D02*
X0139719Y0031615D01*
X0138971Y0031372D01*
X0138194Y0031249D01*
X0138100Y0031249D01*
X0138100Y0035949D01*
X0138100Y0036549D01*
X0137500Y0036549D01*
X0137500Y0041249D01*
X0137406Y0041249D01*
X0136629Y0041126D01*
X0135881Y0040882D01*
X0135179Y0040525D01*
X0134543Y0040063D01*
X0133986Y0039506D01*
X0133524Y0038869D01*
X0133166Y0038168D01*
X0132923Y0037420D01*
X0132800Y0036642D01*
X0132800Y0036549D01*
X0137500Y0036549D01*
X0137500Y0035949D01*
X0132800Y0035949D01*
X0132800Y0035855D01*
X0132923Y0035078D01*
X0133166Y0034329D01*
X0133524Y0033628D01*
X0133986Y0032992D01*
X0127400Y0032992D01*
X0127400Y0032394D02*
X0134600Y0032394D01*
X0134543Y0032435D02*
X0135179Y0031972D01*
X0135881Y0031615D01*
X0136629Y0031372D01*
X0137406Y0031249D01*
X0137500Y0031249D01*
X0137500Y0035949D01*
X0138100Y0035949D01*
X0142800Y0035949D01*
X0142800Y0035855D01*
X0142677Y0035078D01*
X0142434Y0034329D01*
X0142076Y0033628D01*
X0141614Y0032992D01*
X0142049Y0033591D02*
X0148200Y0033591D01*
X0148200Y0034189D02*
X0142362Y0034189D01*
X0142583Y0034788D02*
X0148200Y0034788D01*
X0148200Y0035386D02*
X0142726Y0035386D01*
X0142800Y0036549D02*
X0142800Y0036642D01*
X0142677Y0037420D01*
X0142434Y0038168D01*
X0142076Y0038869D01*
X0141614Y0039506D01*
X0141057Y0040063D01*
X0140421Y0040525D01*
X0139719Y0040882D01*
X0138971Y0041126D01*
X0138194Y0041249D01*
X0138100Y0041249D01*
X0138100Y0036549D01*
X0142800Y0036549D01*
X0142800Y0036583D02*
X0148200Y0036583D01*
X0148200Y0035985D02*
X0138100Y0035985D01*
X0138100Y0036583D02*
X0137500Y0036583D01*
X0137500Y0035985D02*
X0127400Y0035985D01*
X0127400Y0036583D02*
X0132800Y0036583D01*
X0132885Y0037182D02*
X0127400Y0037182D01*
X0127400Y0037780D02*
X0133040Y0037780D01*
X0133274Y0038379D02*
X0127400Y0038379D01*
X0127400Y0038977D02*
X0133602Y0038977D01*
X0134056Y0039576D02*
X0127400Y0039576D01*
X0127400Y0040174D02*
X0134697Y0040174D01*
X0135666Y0040773D02*
X0127400Y0040773D01*
X0127400Y0041371D02*
X0148200Y0041371D01*
X0148200Y0040773D02*
X0139934Y0040773D01*
X0140903Y0040174D02*
X0148200Y0040174D01*
X0148200Y0039576D02*
X0141544Y0039576D01*
X0141998Y0038977D02*
X0148200Y0038977D01*
X0148200Y0038379D02*
X0142326Y0038379D01*
X0142560Y0037780D02*
X0148200Y0037780D01*
X0148200Y0037182D02*
X0142715Y0037182D01*
X0148200Y0041970D02*
X0127400Y0041970D01*
X0127400Y0042568D02*
X0148200Y0042568D01*
X0148200Y0043167D02*
X0127400Y0043167D01*
X0127400Y0043765D02*
X0148200Y0043765D01*
X0148200Y0044364D02*
X0127400Y0044364D01*
X0127400Y0044962D02*
X0148200Y0044962D01*
X0148200Y0045561D02*
X0127400Y0045561D01*
X0127400Y0046159D02*
X0148200Y0046159D01*
X0148200Y0046758D02*
X0127400Y0046758D01*
X0127400Y0047357D02*
X0148200Y0047357D01*
X0148200Y0047955D02*
X0127400Y0047955D01*
X0127400Y0048554D02*
X0148200Y0048554D01*
X0148200Y0049152D02*
X0127400Y0049152D01*
X0127400Y0049751D02*
X0148200Y0049751D01*
X0148200Y0050349D02*
X0127400Y0050349D01*
X0127400Y0050948D02*
X0148200Y0050948D01*
X0148200Y0051546D02*
X0127400Y0051546D01*
X0127400Y0052145D02*
X0148200Y0052145D01*
X0148200Y0052743D02*
X0147039Y0052743D01*
X0147837Y0053342D02*
X0148200Y0053342D01*
X0148200Y0056933D02*
X0148060Y0056933D01*
X0148200Y0057531D02*
X0147462Y0057531D01*
X0148200Y0058130D02*
X0145889Y0058130D01*
X0145290Y0058728D02*
X0148200Y0058728D01*
X0148200Y0059327D02*
X0144692Y0059327D01*
X0144093Y0059925D02*
X0148200Y0059925D01*
X0148200Y0060524D02*
X0143495Y0060524D01*
X0142896Y0061122D02*
X0148200Y0061122D01*
X0148200Y0061721D02*
X0145096Y0061721D01*
X0145769Y0062319D02*
X0148200Y0062319D01*
X0148200Y0062918D02*
X0146367Y0062918D01*
X0146620Y0063516D02*
X0148200Y0063516D01*
X0148200Y0064115D02*
X0146868Y0064115D01*
X0147000Y0064713D02*
X0148200Y0064713D01*
X0148200Y0065312D02*
X0147000Y0065312D01*
X0147000Y0065910D02*
X0148200Y0065910D01*
X0148200Y0066509D02*
X0146816Y0066509D01*
X0146568Y0067107D02*
X0148200Y0067107D01*
X0148200Y0067706D02*
X0146241Y0067706D01*
X0145643Y0068304D02*
X0147880Y0068304D01*
X0147632Y0068903D02*
X0144792Y0068903D01*
X0144073Y0071297D02*
X0147923Y0071297D01*
X0147675Y0070698D02*
X0133900Y0070698D01*
X0133900Y0070100D02*
X0147511Y0070100D01*
X0147511Y0069501D02*
X0133900Y0069501D01*
X0133900Y0068903D02*
X0135808Y0068903D01*
X0134957Y0068304D02*
X0133900Y0068304D01*
X0133900Y0067706D02*
X0134359Y0067706D01*
X0134032Y0067107D02*
X0133900Y0067107D01*
X0130490Y0064115D02*
X0127400Y0064115D01*
X0127400Y0064713D02*
X0129892Y0064713D01*
X0129700Y0065312D02*
X0127400Y0065312D01*
X0127400Y0065910D02*
X0129700Y0065910D01*
X0129700Y0066509D02*
X0127400Y0066509D01*
X0127400Y0067107D02*
X0129700Y0067107D01*
X0129700Y0067706D02*
X0127400Y0067706D01*
X0127400Y0068304D02*
X0129700Y0068304D01*
X0129700Y0068903D02*
X0127761Y0068903D01*
X0128009Y0069501D02*
X0129700Y0069501D01*
X0129700Y0070100D02*
X0128089Y0070100D01*
X0128089Y0070698D02*
X0129700Y0070698D01*
X0129700Y0071297D02*
X0127885Y0071297D01*
X0127598Y0071895D02*
X0129700Y0071895D01*
X0129700Y0072494D02*
X0126999Y0072494D01*
X0129700Y0073093D02*
X0116445Y0073093D01*
X0116693Y0073691D02*
X0129700Y0073691D01*
X0129700Y0074290D02*
X0116940Y0074290D01*
X0117000Y0074888D02*
X0129700Y0074888D01*
X0129700Y0075487D02*
X0117000Y0075487D01*
X0116991Y0076085D02*
X0129700Y0076085D01*
X0129700Y0076684D02*
X0116744Y0076684D01*
X0116496Y0077282D02*
X0129700Y0077282D01*
X0129700Y0077881D02*
X0126871Y0077881D01*
X0127474Y0078479D02*
X0129700Y0078479D01*
X0129700Y0079078D02*
X0127834Y0079078D01*
X0128082Y0079676D02*
X0129700Y0079676D01*
X0129700Y0080275D02*
X0128089Y0080275D01*
X0128060Y0080873D02*
X0129700Y0080873D01*
X0129700Y0081472D02*
X0127812Y0081472D01*
X0127423Y0082070D02*
X0129509Y0082070D01*
X0128910Y0082669D02*
X0126746Y0082669D01*
X0127713Y0083866D02*
X0116765Y0083866D01*
X0117000Y0084464D02*
X0127115Y0084464D01*
X0128312Y0083267D02*
X0116517Y0083267D01*
X0116118Y0082669D02*
X0123854Y0082669D01*
X0123729Y0077881D02*
X0116066Y0077881D01*
X0112955Y0080873D02*
X0082400Y0080873D01*
X0082400Y0080275D02*
X0112356Y0080275D01*
X0111757Y0079676D02*
X0082400Y0079676D01*
X0082400Y0070698D02*
X0122511Y0070698D01*
X0122511Y0070100D02*
X0082400Y0070100D01*
X0082400Y0069501D02*
X0122591Y0069501D01*
X0122839Y0068903D02*
X0114792Y0068903D01*
X0115643Y0068304D02*
X0123200Y0068304D01*
X0123200Y0067706D02*
X0116241Y0067706D01*
X0116568Y0067107D02*
X0123200Y0067107D01*
X0123200Y0066509D02*
X0116816Y0066509D01*
X0117000Y0065910D02*
X0123200Y0065910D01*
X0123200Y0065312D02*
X0117000Y0065312D01*
X0117000Y0064713D02*
X0123200Y0064713D01*
X0123200Y0064115D02*
X0116868Y0064115D01*
X0116620Y0063516D02*
X0123200Y0063516D01*
X0123200Y0062918D02*
X0116367Y0062918D01*
X0115769Y0062319D02*
X0123200Y0062319D01*
X0123200Y0061721D02*
X0115096Y0061721D01*
X0114073Y0071297D02*
X0122715Y0071297D01*
X0123002Y0071895D02*
X0115345Y0071895D01*
X0115943Y0072494D02*
X0123601Y0072494D01*
X0127400Y0063516D02*
X0131089Y0063516D01*
X0131687Y0062918D02*
X0127400Y0062918D01*
X0127400Y0062319D02*
X0132286Y0062319D01*
X0132884Y0061721D02*
X0127400Y0061721D01*
X0127400Y0061122D02*
X0133483Y0061122D01*
X0134081Y0060524D02*
X0127400Y0060524D01*
X0127400Y0059925D02*
X0134680Y0059925D01*
X0138752Y0059327D02*
X0127400Y0059327D01*
X0127400Y0058728D02*
X0139351Y0058728D01*
X0139949Y0058130D02*
X0127400Y0058130D01*
X0127400Y0057531D02*
X0140548Y0057531D01*
X0141146Y0056933D02*
X0127400Y0056933D01*
X0127400Y0056334D02*
X0141745Y0056334D01*
X0142343Y0055736D02*
X0127400Y0055736D01*
X0127400Y0055137D02*
X0142942Y0055137D01*
X0143075Y0054539D02*
X0127400Y0054539D01*
X0127400Y0053940D02*
X0143323Y0053940D01*
X0143763Y0053342D02*
X0127400Y0053342D01*
X0127400Y0052743D02*
X0144561Y0052743D01*
X0152400Y0052743D02*
X0174465Y0052743D01*
X0174335Y0052689D02*
X0173360Y0051714D01*
X0172831Y0050439D01*
X0172831Y0049059D01*
X0173360Y0047784D01*
X0174335Y0046808D01*
X0175610Y0046280D01*
X0176990Y0046280D01*
X0178265Y0046808D01*
X0179240Y0047784D01*
X0179768Y0049059D01*
X0179768Y0050439D01*
X0179240Y0051714D01*
X0178265Y0052689D01*
X0176990Y0053217D01*
X0175610Y0053217D01*
X0174335Y0052689D01*
X0173791Y0052145D02*
X0162348Y0052145D01*
X0162148Y0052345D02*
X0158751Y0052345D01*
X0156350Y0049943D01*
X0156350Y0046547D01*
X0158751Y0044145D01*
X0162148Y0044145D01*
X0164550Y0046547D01*
X0164550Y0049943D01*
X0162148Y0052345D01*
X0162947Y0051546D02*
X0173290Y0051546D01*
X0173042Y0050948D02*
X0163545Y0050948D01*
X0164144Y0050349D02*
X0172831Y0050349D01*
X0172831Y0049751D02*
X0164550Y0049751D01*
X0164550Y0049152D02*
X0172831Y0049152D01*
X0173041Y0048554D02*
X0164550Y0048554D01*
X0164550Y0047955D02*
X0173289Y0047955D01*
X0173787Y0047357D02*
X0164550Y0047357D01*
X0164550Y0046758D02*
X0174457Y0046758D01*
X0178143Y0046758D02*
X0200650Y0046758D01*
X0200650Y0046159D02*
X0164162Y0046159D01*
X0163564Y0045561D02*
X0200650Y0045561D01*
X0200650Y0044962D02*
X0162965Y0044962D01*
X0162367Y0044364D02*
X0200650Y0044364D01*
X0200650Y0043765D02*
X0152400Y0043765D01*
X0152400Y0043167D02*
X0200650Y0043167D01*
X0200650Y0042568D02*
X0152400Y0042568D01*
X0152400Y0041970D02*
X0200650Y0041970D01*
X0200650Y0041371D02*
X0152400Y0041371D01*
X0152400Y0040773D02*
X0200650Y0040773D01*
X0200650Y0040174D02*
X0187128Y0040174D01*
X0187421Y0040025D02*
X0186719Y0040382D01*
X0185971Y0040626D01*
X0185194Y0040749D01*
X0185100Y0040749D01*
X0185100Y0036049D01*
X0184500Y0036049D01*
X0184500Y0040749D01*
X0184406Y0040749D01*
X0183629Y0040626D01*
X0182881Y0040382D01*
X0182179Y0040025D01*
X0181543Y0039563D01*
X0180986Y0039006D01*
X0180524Y0038369D01*
X0180166Y0037668D01*
X0179923Y0036920D01*
X0179800Y0036142D01*
X0179800Y0036049D01*
X0184500Y0036049D01*
X0184500Y0035449D01*
X0179800Y0035449D01*
X0179800Y0035355D01*
X0179923Y0034578D01*
X0180166Y0033829D01*
X0180524Y0033128D01*
X0180986Y0032492D01*
X0181543Y0031935D01*
X0182179Y0031472D01*
X0182881Y0031115D01*
X0183629Y0030872D01*
X0184406Y0030749D01*
X0184500Y0030749D01*
X0184500Y0035449D01*
X0185100Y0035449D01*
X0185100Y0036049D01*
X0189800Y0036049D01*
X0189800Y0036142D01*
X0189677Y0036920D01*
X0189434Y0037668D01*
X0189076Y0038369D01*
X0188614Y0039006D01*
X0188057Y0039563D01*
X0187421Y0040025D01*
X0188039Y0039576D02*
X0200650Y0039576D01*
X0200650Y0038977D02*
X0188635Y0038977D01*
X0189070Y0038379D02*
X0200650Y0038379D01*
X0200650Y0037780D02*
X0189377Y0037780D01*
X0189592Y0037182D02*
X0200650Y0037182D01*
X0200650Y0036583D02*
X0189730Y0036583D01*
X0189800Y0035449D02*
X0185100Y0035449D01*
X0185100Y0030749D01*
X0185194Y0030749D01*
X0185971Y0030872D01*
X0186719Y0031115D01*
X0187421Y0031472D01*
X0188057Y0031935D01*
X0188614Y0032492D01*
X0189076Y0033128D01*
X0189434Y0033829D01*
X0189677Y0034578D01*
X0189800Y0035355D01*
X0189800Y0035449D01*
X0189800Y0035386D02*
X0200650Y0035386D01*
X0200650Y0034788D02*
X0189710Y0034788D01*
X0189551Y0034189D02*
X0200650Y0034189D01*
X0200650Y0033591D02*
X0189312Y0033591D01*
X0188978Y0032992D02*
X0200650Y0032992D01*
X0200650Y0032394D02*
X0188516Y0032394D01*
X0187865Y0031795D02*
X0200650Y0031795D01*
X0200650Y0031197D02*
X0186879Y0031197D01*
X0185100Y0031197D02*
X0184500Y0031197D01*
X0184500Y0031795D02*
X0185100Y0031795D01*
X0185100Y0032394D02*
X0184500Y0032394D01*
X0184500Y0032992D02*
X0185100Y0032992D01*
X0185100Y0033591D02*
X0184500Y0033591D01*
X0184500Y0034189D02*
X0185100Y0034189D01*
X0185100Y0034788D02*
X0184500Y0034788D01*
X0184500Y0035386D02*
X0185100Y0035386D01*
X0185100Y0035985D02*
X0200650Y0035985D01*
X0200650Y0030598D02*
X0152400Y0030598D01*
X0152400Y0030000D02*
X0200650Y0030000D01*
X0200650Y0029401D02*
X0152400Y0029401D01*
X0152400Y0028803D02*
X0200650Y0028803D01*
X0200650Y0028204D02*
X0152400Y0028204D01*
X0152507Y0027606D02*
X0200650Y0027606D01*
X0200650Y0027007D02*
X0153106Y0027007D01*
X0153705Y0026409D02*
X0200650Y0026409D01*
X0200650Y0025810D02*
X0154303Y0025810D01*
X0154902Y0025212D02*
X0200650Y0025212D01*
X0200650Y0024613D02*
X0168328Y0024613D01*
X0168148Y0024794D02*
X0164751Y0024794D01*
X0162350Y0022392D01*
X0162350Y0018995D01*
X0164751Y0016594D01*
X0168148Y0016594D01*
X0170550Y0018995D01*
X0170550Y0022392D01*
X0168148Y0024794D01*
X0168927Y0024015D02*
X0200650Y0024015D01*
X0200650Y0023416D02*
X0169525Y0023416D01*
X0170124Y0022818D02*
X0200650Y0022818D01*
X0200650Y0022219D02*
X0170550Y0022219D01*
X0170550Y0021621D02*
X0200650Y0021621D01*
X0200650Y0021022D02*
X0170550Y0021022D01*
X0170550Y0020424D02*
X0182497Y0020424D01*
X0181522Y0019825D02*
X0170550Y0019825D01*
X0170550Y0019226D02*
X0180924Y0019226D01*
X0180364Y0018628D02*
X0170182Y0018628D01*
X0169584Y0018029D02*
X0180116Y0018029D01*
X0179868Y0017431D02*
X0168985Y0017431D01*
X0168387Y0016832D02*
X0179620Y0016832D01*
X0187103Y0020424D02*
X0200650Y0020424D01*
X0200650Y0019825D02*
X0188078Y0019825D01*
X0188676Y0019226D02*
X0200650Y0019226D01*
X0200650Y0018628D02*
X0189236Y0018628D01*
X0189484Y0018029D02*
X0200650Y0018029D01*
X0200650Y0017431D02*
X0189732Y0017431D01*
X0189980Y0016832D02*
X0200650Y0016832D01*
X0200650Y0016234D02*
X0190000Y0016234D01*
X0190000Y0015635D02*
X0200650Y0015635D01*
X0200650Y0015037D02*
X0190000Y0015037D01*
X0189886Y0014438D02*
X0200650Y0014438D01*
X0200650Y0013840D02*
X0189638Y0013840D01*
X0189390Y0013241D02*
X0200650Y0013241D01*
X0200650Y0012643D02*
X0189048Y0012643D01*
X0188449Y0012044D02*
X0200650Y0012044D01*
X0182721Y0031197D02*
X0152400Y0031197D01*
X0152400Y0031795D02*
X0181735Y0031795D01*
X0181084Y0032394D02*
X0152400Y0032394D01*
X0152400Y0032992D02*
X0180622Y0032992D01*
X0180288Y0033591D02*
X0152400Y0033591D01*
X0152400Y0034189D02*
X0180049Y0034189D01*
X0179890Y0034788D02*
X0152400Y0034788D01*
X0152400Y0035386D02*
X0179800Y0035386D01*
X0179870Y0036583D02*
X0152400Y0036583D01*
X0152400Y0035985D02*
X0184500Y0035985D01*
X0184500Y0036583D02*
X0185100Y0036583D01*
X0185100Y0037182D02*
X0184500Y0037182D01*
X0184500Y0037780D02*
X0185100Y0037780D01*
X0185100Y0038379D02*
X0184500Y0038379D01*
X0184500Y0038977D02*
X0185100Y0038977D01*
X0185100Y0039576D02*
X0184500Y0039576D01*
X0184500Y0040174D02*
X0185100Y0040174D01*
X0182472Y0040174D02*
X0152400Y0040174D01*
X0152400Y0039576D02*
X0181561Y0039576D01*
X0180965Y0038977D02*
X0152400Y0038977D01*
X0152400Y0038379D02*
X0180530Y0038379D01*
X0180223Y0037780D02*
X0152400Y0037780D01*
X0152400Y0037182D02*
X0180008Y0037182D01*
X0178813Y0047357D02*
X0192926Y0047357D01*
X0193110Y0047280D02*
X0194490Y0047280D01*
X0195765Y0047808D01*
X0196740Y0048784D01*
X0197268Y0050059D01*
X0197268Y0051439D01*
X0196740Y0052714D01*
X0195765Y0053689D01*
X0194490Y0054217D01*
X0193110Y0054217D01*
X0191835Y0053689D01*
X0190860Y0052714D01*
X0190331Y0051439D01*
X0190331Y0050059D01*
X0190860Y0048784D01*
X0191835Y0047808D01*
X0193110Y0047280D01*
X0194674Y0047357D02*
X0200650Y0047357D01*
X0200650Y0047955D02*
X0195911Y0047955D01*
X0196510Y0048554D02*
X0200650Y0048554D01*
X0200650Y0049152D02*
X0196893Y0049152D01*
X0197141Y0049751D02*
X0200650Y0049751D01*
X0200650Y0050349D02*
X0197268Y0050349D01*
X0197268Y0050948D02*
X0200650Y0050948D01*
X0200650Y0051546D02*
X0197224Y0051546D01*
X0196976Y0052145D02*
X0200650Y0052145D01*
X0200650Y0052743D02*
X0196711Y0052743D01*
X0196112Y0053342D02*
X0200650Y0053342D01*
X0200650Y0053940D02*
X0195159Y0053940D01*
X0192441Y0053940D02*
X0152400Y0053940D01*
X0152400Y0053342D02*
X0191488Y0053342D01*
X0190889Y0052743D02*
X0178135Y0052743D01*
X0178809Y0052145D02*
X0190624Y0052145D01*
X0190376Y0051546D02*
X0179310Y0051546D01*
X0179558Y0050948D02*
X0190331Y0050948D01*
X0190331Y0050349D02*
X0179768Y0050349D01*
X0179768Y0049751D02*
X0190459Y0049751D01*
X0190707Y0049152D02*
X0179768Y0049152D01*
X0179559Y0048554D02*
X0191090Y0048554D01*
X0191689Y0047955D02*
X0179311Y0047955D01*
X0182835Y0057308D02*
X0184110Y0056780D01*
X0185490Y0056780D01*
X0186765Y0057308D01*
X0187740Y0058284D01*
X0188268Y0059559D01*
X0188268Y0060939D01*
X0187740Y0062214D01*
X0186765Y0063189D01*
X0185490Y0063717D01*
X0184110Y0063717D01*
X0182835Y0063189D01*
X0181860Y0062214D01*
X0181331Y0060939D01*
X0181331Y0059559D01*
X0181860Y0058284D01*
X0182835Y0057308D01*
X0182612Y0057531D02*
X0152400Y0057531D01*
X0152400Y0056933D02*
X0183742Y0056933D01*
X0182014Y0058130D02*
X0152400Y0058130D01*
X0152400Y0058728D02*
X0181676Y0058728D01*
X0181428Y0059327D02*
X0152400Y0059327D01*
X0152400Y0059925D02*
X0181331Y0059925D01*
X0181331Y0060524D02*
X0152400Y0060524D01*
X0152400Y0061122D02*
X0181408Y0061122D01*
X0181655Y0061721D02*
X0152400Y0061721D01*
X0152400Y0062319D02*
X0181965Y0062319D01*
X0182564Y0062918D02*
X0152400Y0062918D01*
X0152400Y0063516D02*
X0157185Y0063516D01*
X0156881Y0063615D02*
X0157629Y0063372D01*
X0158406Y0063249D01*
X0158500Y0063249D01*
X0158500Y0067949D01*
X0153800Y0067949D01*
X0153800Y0067855D01*
X0153923Y0067078D01*
X0154166Y0066329D01*
X0154524Y0065628D01*
X0154986Y0064992D01*
X0155543Y0064435D01*
X0156179Y0063972D01*
X0156881Y0063615D01*
X0155983Y0064115D02*
X0152400Y0064115D01*
X0152400Y0064713D02*
X0155264Y0064713D01*
X0154753Y0065312D02*
X0152400Y0065312D01*
X0152400Y0065910D02*
X0154380Y0065910D01*
X0154108Y0066509D02*
X0152400Y0066509D01*
X0152400Y0067107D02*
X0153918Y0067107D01*
X0153824Y0067706D02*
X0152400Y0067706D01*
X0152720Y0068304D02*
X0158500Y0068304D01*
X0158500Y0068549D02*
X0158500Y0067949D01*
X0159100Y0067949D01*
X0159100Y0068549D01*
X0163800Y0068549D01*
X0163800Y0068642D01*
X0163677Y0069420D01*
X0163434Y0070168D01*
X0163076Y0070869D01*
X0162614Y0071506D01*
X0162057Y0072063D01*
X0161421Y0072525D01*
X0160719Y0072882D01*
X0159998Y0073117D01*
X0161746Y0073840D01*
X0163208Y0075303D01*
X0164000Y0077214D01*
X0164000Y0079283D01*
X0163208Y0081194D01*
X0161746Y0082657D01*
X0160317Y0083249D01*
X0161746Y0083840D01*
X0163208Y0085303D01*
X0164000Y0087214D01*
X0164000Y0089283D01*
X0163208Y0091194D01*
X0161746Y0092657D01*
X0159834Y0093449D01*
X0157766Y0093449D01*
X0155854Y0092657D01*
X0154392Y0091194D01*
X0153600Y0089283D01*
X0153600Y0087214D01*
X0154392Y0085303D01*
X0155854Y0083840D01*
X0157283Y0083249D01*
X0155854Y0082657D01*
X0154392Y0081194D01*
X0153600Y0079283D01*
X0153600Y0077214D01*
X0154392Y0075303D01*
X0155854Y0073840D01*
X0157602Y0073117D01*
X0156881Y0072882D01*
X0156179Y0072525D01*
X0155543Y0072063D01*
X0154986Y0071506D01*
X0154524Y0070869D01*
X0154166Y0070168D01*
X0153923Y0069420D01*
X0153800Y0068642D01*
X0153800Y0068549D01*
X0158500Y0068549D01*
X0159100Y0068304D02*
X0200650Y0068304D01*
X0200650Y0067706D02*
X0163776Y0067706D01*
X0163800Y0067855D02*
X0163800Y0067949D01*
X0159100Y0067949D01*
X0159100Y0063249D01*
X0159194Y0063249D01*
X0159971Y0063372D01*
X0160719Y0063615D01*
X0161421Y0063972D01*
X0162057Y0064435D01*
X0162614Y0064992D01*
X0163076Y0065628D01*
X0163434Y0066329D01*
X0163677Y0067078D01*
X0163800Y0067855D01*
X0163682Y0067107D02*
X0200650Y0067107D01*
X0200650Y0066509D02*
X0163492Y0066509D01*
X0163220Y0065910D02*
X0200650Y0065910D01*
X0200650Y0065312D02*
X0162847Y0065312D01*
X0162336Y0064713D02*
X0200650Y0064713D01*
X0200650Y0064115D02*
X0161617Y0064115D01*
X0160415Y0063516D02*
X0183625Y0063516D01*
X0185975Y0063516D02*
X0200650Y0063516D01*
X0200650Y0062918D02*
X0187036Y0062918D01*
X0187635Y0062319D02*
X0200650Y0062319D01*
X0200650Y0061721D02*
X0187945Y0061721D01*
X0188192Y0061122D02*
X0200650Y0061122D01*
X0200650Y0060524D02*
X0188268Y0060524D01*
X0188268Y0059925D02*
X0200650Y0059925D01*
X0200650Y0059327D02*
X0188172Y0059327D01*
X0187924Y0058728D02*
X0200650Y0058728D01*
X0200650Y0058130D02*
X0187586Y0058130D01*
X0186988Y0057531D02*
X0200650Y0057531D01*
X0200650Y0056933D02*
X0185858Y0056933D01*
X0194733Y0071297D02*
X0162766Y0071297D01*
X0163163Y0070698D02*
X0195717Y0070698D01*
X0197500Y0070698D02*
X0198100Y0070698D01*
X0198100Y0071297D02*
X0197500Y0071297D01*
X0197500Y0071895D02*
X0198100Y0071895D01*
X0198100Y0072494D02*
X0197500Y0072494D01*
X0197500Y0073093D02*
X0198100Y0073093D01*
X0198100Y0073691D02*
X0197500Y0073691D01*
X0197500Y0074290D02*
X0198100Y0074290D01*
X0198100Y0074888D02*
X0197500Y0074888D01*
X0197500Y0075487D02*
X0163284Y0075487D01*
X0163532Y0076085D02*
X0192870Y0076085D01*
X0193009Y0076684D02*
X0163780Y0076684D01*
X0164000Y0077282D02*
X0193224Y0077282D01*
X0193532Y0077881D02*
X0164000Y0077881D01*
X0164000Y0078479D02*
X0193967Y0078479D01*
X0194563Y0079078D02*
X0164000Y0079078D01*
X0163837Y0079676D02*
X0195476Y0079676D01*
X0196220Y0080275D02*
X0163589Y0080275D01*
X0163341Y0080873D02*
X0194822Y0080873D01*
X0194223Y0081472D02*
X0162931Y0081472D01*
X0162333Y0082070D02*
X0193625Y0082070D01*
X0193240Y0082669D02*
X0161718Y0082669D01*
X0161771Y0083866D02*
X0192744Y0083866D01*
X0192600Y0084464D02*
X0162369Y0084464D01*
X0162968Y0085063D02*
X0192600Y0085063D01*
X0192600Y0085661D02*
X0163357Y0085661D01*
X0163605Y0086260D02*
X0192600Y0086260D01*
X0192838Y0086858D02*
X0163852Y0086858D01*
X0164000Y0087457D02*
X0193086Y0087457D01*
X0193334Y0088055D02*
X0164000Y0088055D01*
X0164000Y0088654D02*
X0193851Y0088654D01*
X0194450Y0089252D02*
X0164000Y0089252D01*
X0163765Y0089851D02*
X0195322Y0089851D01*
X0195799Y0090449D02*
X0163517Y0090449D01*
X0163269Y0091048D02*
X0194647Y0091048D01*
X0194049Y0091646D02*
X0162756Y0091646D01*
X0162158Y0092245D02*
X0193450Y0092245D01*
X0193168Y0092843D02*
X0161296Y0092843D01*
X0159851Y0093442D02*
X0192920Y0093442D01*
X0192672Y0094040D02*
X0146837Y0094040D01*
X0147000Y0094433D02*
X0147000Y0096064D01*
X0146376Y0097571D01*
X0145222Y0098725D01*
X0143716Y0099349D01*
X0136884Y0099349D01*
X0135378Y0098725D01*
X0134224Y0097571D01*
X0133600Y0096064D01*
X0133600Y0094433D01*
X0134224Y0092926D01*
X0135378Y0091773D01*
X0136884Y0091149D01*
X0143716Y0091149D01*
X0145222Y0091773D01*
X0146376Y0092926D01*
X0147000Y0094433D01*
X0147000Y0094639D02*
X0192600Y0094639D01*
X0192600Y0095237D02*
X0147000Y0095237D01*
X0147000Y0095836D02*
X0176650Y0095836D01*
X0176740Y0095798D02*
X0178371Y0095798D01*
X0179878Y0096423D01*
X0181032Y0097576D01*
X0181656Y0099083D01*
X0181656Y0100714D01*
X0181032Y0102221D01*
X0179878Y0103374D01*
X0178371Y0103998D01*
X0176740Y0103998D01*
X0175233Y0103374D01*
X0174080Y0102221D01*
X0173456Y0100714D01*
X0173456Y0099083D01*
X0174080Y0097576D01*
X0175233Y0096423D01*
X0176740Y0095798D01*
X0175222Y0096434D02*
X0146847Y0096434D01*
X0146599Y0097033D02*
X0174623Y0097033D01*
X0174057Y0097631D02*
X0158442Y0097631D01*
X0158010Y0097199D02*
X0156694Y0097199D01*
X0156694Y0100799D01*
X0156094Y0100799D01*
X0152494Y0100799D01*
X0152494Y0099484D01*
X0154779Y0097199D01*
X0156094Y0097199D01*
X0156094Y0100799D01*
X0156094Y0101399D01*
X0152494Y0101399D01*
X0152494Y0102715D01*
X0154779Y0104999D01*
X0156094Y0104999D01*
X0156094Y0101399D01*
X0156694Y0101399D01*
X0156694Y0104999D01*
X0158010Y0104999D01*
X0160294Y0102715D01*
X0160294Y0101399D01*
X0156695Y0101399D01*
X0156695Y0100799D01*
X0160294Y0100799D01*
X0160294Y0099484D01*
X0158010Y0097199D01*
X0156694Y0097631D02*
X0156094Y0097631D01*
X0156094Y0098230D02*
X0156694Y0098230D01*
X0156694Y0098828D02*
X0156094Y0098828D01*
X0156094Y0099427D02*
X0156694Y0099427D01*
X0156694Y0100026D02*
X0156094Y0100026D01*
X0156094Y0100624D02*
X0156694Y0100624D01*
X0156695Y0101223D02*
X0173667Y0101223D01*
X0173456Y0100624D02*
X0160294Y0100624D01*
X0160294Y0100026D02*
X0173456Y0100026D01*
X0173456Y0099427D02*
X0160238Y0099427D01*
X0159639Y0098828D02*
X0173561Y0098828D01*
X0173809Y0098230D02*
X0159041Y0098230D01*
X0156094Y0101223D02*
X0131225Y0101223D01*
X0131791Y0101821D02*
X0135810Y0101821D01*
X0135014Y0102420D02*
X0132356Y0102420D01*
X0132922Y0103018D02*
X0134500Y0103018D01*
X0134155Y0103617D02*
X0133488Y0103617D01*
X0130659Y0100624D02*
X0152494Y0100624D01*
X0152494Y0100026D02*
X0130094Y0100026D01*
X0129528Y0099427D02*
X0152551Y0099427D01*
X0153150Y0098828D02*
X0144972Y0098828D01*
X0145717Y0098230D02*
X0153748Y0098230D01*
X0154347Y0097631D02*
X0146316Y0097631D01*
X0144747Y0101793D02*
X0144038Y0101499D01*
X0143284Y0101349D01*
X0140600Y0101349D01*
X0140600Y0104949D01*
X0146800Y0104949D01*
X0146800Y0104865D01*
X0146650Y0104111D01*
X0146356Y0103401D01*
X0145929Y0102763D01*
X0145386Y0102219D01*
X0144747Y0101793D01*
X0144790Y0101821D02*
X0152494Y0101821D01*
X0152494Y0102420D02*
X0145586Y0102420D01*
X0146100Y0103018D02*
X0152798Y0103018D01*
X0153396Y0103617D02*
X0146445Y0103617D01*
X0146671Y0104215D02*
X0153995Y0104215D01*
X0154593Y0104814D02*
X0146790Y0104814D01*
X0146800Y0105549D02*
X0146800Y0105633D01*
X0146650Y0106386D01*
X0146356Y0107096D01*
X0145929Y0107735D01*
X0145386Y0108278D01*
X0144747Y0108705D01*
X0144038Y0108999D01*
X0143284Y0109149D01*
X0140600Y0109149D01*
X0140600Y0105549D01*
X0146800Y0105549D01*
X0146725Y0106011D02*
X0192600Y0106011D01*
X0192600Y0105412D02*
X0140600Y0105412D01*
X0140600Y0104814D02*
X0140000Y0104814D01*
X0140000Y0104215D02*
X0140600Y0104215D01*
X0140600Y0103617D02*
X0140000Y0103617D01*
X0140000Y0103018D02*
X0140600Y0103018D01*
X0140600Y0102420D02*
X0140000Y0102420D01*
X0140000Y0101821D02*
X0140600Y0101821D01*
X0140600Y0106011D02*
X0140000Y0106011D01*
X0140000Y0106609D02*
X0140600Y0106609D01*
X0140600Y0107208D02*
X0140000Y0107208D01*
X0140000Y0107806D02*
X0140600Y0107806D01*
X0140600Y0108405D02*
X0140000Y0108405D01*
X0140000Y0109003D02*
X0140600Y0109003D01*
X0144016Y0109003D02*
X0194200Y0109003D01*
X0193602Y0108405D02*
X0145197Y0108405D01*
X0145858Y0107806D02*
X0193231Y0107806D01*
X0192983Y0107208D02*
X0146282Y0107208D01*
X0146558Y0106609D02*
X0192735Y0106609D01*
X0192600Y0104814D02*
X0158195Y0104814D01*
X0158794Y0104215D02*
X0192600Y0104215D01*
X0192848Y0103617D02*
X0179293Y0103617D01*
X0180235Y0103018D02*
X0193096Y0103018D01*
X0193343Y0102420D02*
X0180833Y0102420D01*
X0181197Y0101821D02*
X0193874Y0101821D01*
X0194472Y0101223D02*
X0181445Y0101223D01*
X0181656Y0100624D02*
X0195377Y0100624D01*
X0195744Y0100026D02*
X0181656Y0100026D01*
X0181656Y0099427D02*
X0194624Y0099427D01*
X0194026Y0098828D02*
X0181551Y0098828D01*
X0181303Y0098230D02*
X0193427Y0098230D01*
X0193158Y0097631D02*
X0181055Y0097631D01*
X0180489Y0097033D02*
X0192911Y0097033D01*
X0192663Y0096434D02*
X0179890Y0096434D01*
X0178462Y0095836D02*
X0192600Y0095836D01*
X0192992Y0083267D02*
X0160362Y0083267D01*
X0157238Y0083267D02*
X0146517Y0083267D01*
X0146376Y0082926D02*
X0147000Y0084433D01*
X0147000Y0086064D01*
X0146376Y0087571D01*
X0145222Y0088725D01*
X0143716Y0089349D01*
X0136884Y0089349D01*
X0135378Y0088725D01*
X0134224Y0087571D01*
X0133600Y0086064D01*
X0133600Y0084433D01*
X0134224Y0082926D01*
X0135378Y0081773D01*
X0136884Y0081149D01*
X0143716Y0081149D01*
X0145222Y0081773D01*
X0146376Y0082926D01*
X0146118Y0082669D02*
X0155882Y0082669D01*
X0155267Y0082070D02*
X0145520Y0082070D01*
X0144495Y0081472D02*
X0154669Y0081472D01*
X0154259Y0080873D02*
X0133900Y0080873D01*
X0133900Y0080275D02*
X0154011Y0080275D01*
X0153763Y0079676D02*
X0133900Y0079676D01*
X0133900Y0079078D02*
X0136230Y0079078D01*
X0135132Y0078479D02*
X0133900Y0078479D01*
X0133900Y0077881D02*
X0134534Y0077881D01*
X0134104Y0077282D02*
X0133900Y0077282D01*
X0133900Y0073691D02*
X0133907Y0073691D01*
X0133900Y0073093D02*
X0134155Y0073093D01*
X0133900Y0072494D02*
X0134657Y0072494D01*
X0135255Y0071895D02*
X0133900Y0071895D01*
X0133900Y0071297D02*
X0136527Y0071297D01*
X0145345Y0071895D02*
X0148502Y0071895D01*
X0149640Y0072494D02*
X0145943Y0072494D01*
X0146445Y0073093D02*
X0157527Y0073093D01*
X0156215Y0073691D02*
X0146693Y0073691D01*
X0146940Y0074290D02*
X0155405Y0074290D01*
X0154807Y0074888D02*
X0147000Y0074888D01*
X0147000Y0075487D02*
X0154316Y0075487D01*
X0154068Y0076085D02*
X0146991Y0076085D01*
X0146744Y0076684D02*
X0153820Y0076684D01*
X0153600Y0077282D02*
X0146496Y0077282D01*
X0146066Y0077881D02*
X0153600Y0077881D01*
X0153600Y0078479D02*
X0145468Y0078479D01*
X0144370Y0079078D02*
X0153600Y0079078D01*
X0155829Y0083866D02*
X0146765Y0083866D01*
X0147000Y0084464D02*
X0155231Y0084464D01*
X0154632Y0085063D02*
X0147000Y0085063D01*
X0147000Y0085661D02*
X0154243Y0085661D01*
X0153995Y0086260D02*
X0146919Y0086260D01*
X0146671Y0086858D02*
X0153748Y0086858D01*
X0153600Y0087457D02*
X0146423Y0087457D01*
X0145892Y0088055D02*
X0153600Y0088055D01*
X0153600Y0088654D02*
X0145293Y0088654D01*
X0143948Y0089252D02*
X0153600Y0089252D01*
X0153835Y0089851D02*
X0118668Y0089851D01*
X0118069Y0090449D02*
X0154083Y0090449D01*
X0154331Y0091048D02*
X0122543Y0091048D01*
X0123142Y0091646D02*
X0135683Y0091646D01*
X0134906Y0092245D02*
X0123403Y0092245D01*
X0123589Y0092843D02*
X0134307Y0092843D01*
X0134011Y0093442D02*
X0123872Y0093442D01*
X0124437Y0094040D02*
X0133763Y0094040D01*
X0133600Y0094639D02*
X0125003Y0094639D01*
X0125569Y0095237D02*
X0133600Y0095237D01*
X0133600Y0095836D02*
X0126134Y0095836D01*
X0126700Y0096434D02*
X0133753Y0096434D01*
X0134001Y0097033D02*
X0127266Y0097033D01*
X0127831Y0097631D02*
X0134284Y0097631D01*
X0134883Y0098230D02*
X0128397Y0098230D01*
X0128962Y0098828D02*
X0135628Y0098828D01*
X0136652Y0089252D02*
X0119266Y0089252D01*
X0119057Y0091048D02*
X0117471Y0091048D01*
X0116872Y0091646D02*
X0118458Y0091646D01*
X0117516Y0085063D02*
X0117000Y0085063D01*
X0128865Y0088654D02*
X0135307Y0088654D01*
X0134708Y0088055D02*
X0129463Y0088055D01*
X0130062Y0087457D02*
X0134177Y0087457D01*
X0133929Y0086858D02*
X0130660Y0086858D01*
X0131259Y0086260D02*
X0133681Y0086260D01*
X0133600Y0085661D02*
X0131857Y0085661D01*
X0132456Y0085063D02*
X0133600Y0085063D01*
X0133600Y0084464D02*
X0133054Y0084464D01*
X0133653Y0083866D02*
X0133835Y0083866D01*
X0133900Y0083267D02*
X0134083Y0083267D01*
X0133900Y0082669D02*
X0134482Y0082669D01*
X0133900Y0082070D02*
X0135080Y0082070D01*
X0136105Y0081472D02*
X0133900Y0081472D01*
X0144917Y0091646D02*
X0154844Y0091646D01*
X0155442Y0092245D02*
X0145694Y0092245D01*
X0146293Y0092843D02*
X0156304Y0092843D01*
X0157749Y0093442D02*
X0146589Y0093442D01*
X0156094Y0101821D02*
X0156694Y0101821D01*
X0156694Y0102420D02*
X0156094Y0102420D01*
X0156094Y0103018D02*
X0156694Y0103018D01*
X0156694Y0103617D02*
X0156094Y0103617D01*
X0156094Y0104215D02*
X0156694Y0104215D01*
X0156694Y0104814D02*
X0156094Y0104814D01*
X0159393Y0103617D02*
X0175819Y0103617D01*
X0174877Y0103018D02*
X0159991Y0103018D01*
X0160294Y0102420D02*
X0174279Y0102420D01*
X0173914Y0101821D02*
X0160294Y0101821D01*
X0148800Y0113193D02*
X0193023Y0113193D01*
X0192775Y0113791D02*
X0148800Y0113791D01*
X0148800Y0114390D02*
X0192600Y0114390D01*
X0192600Y0114988D02*
X0148800Y0114988D01*
X0148800Y0115587D02*
X0192600Y0115587D01*
X0192600Y0116185D02*
X0179358Y0116185D01*
X0179957Y0116784D02*
X0192807Y0116784D01*
X0193055Y0117382D02*
X0180555Y0117382D01*
X0181154Y0117981D02*
X0193303Y0117981D01*
X0193777Y0118579D02*
X0181456Y0118579D01*
X0181456Y0119178D02*
X0194375Y0119178D01*
X0195142Y0119776D02*
X0177856Y0119776D01*
X0177856Y0119178D02*
X0177256Y0119178D01*
X0177256Y0118579D02*
X0177856Y0118579D01*
X0177856Y0117981D02*
X0177256Y0117981D01*
X0177256Y0117382D02*
X0177856Y0117382D01*
X0177856Y0116784D02*
X0177256Y0116784D01*
X0177256Y0116185D02*
X0177856Y0116185D01*
X0175754Y0116185D02*
X0148800Y0116185D01*
X0148589Y0112594D02*
X0193271Y0112594D01*
X0193699Y0111996D02*
X0147991Y0111996D01*
X0147392Y0111397D02*
X0194298Y0111397D01*
X0194955Y0110799D02*
X0146794Y0110799D01*
X0146195Y0110200D02*
X0196166Y0110200D01*
X0194799Y0109602D02*
X0145597Y0109602D01*
X0144600Y0119178D02*
X0144128Y0119178D01*
X0146806Y0123966D02*
X0153463Y0123966D01*
X0154061Y0124564D02*
X0147000Y0124564D01*
X0147000Y0125163D02*
X0155492Y0125163D01*
X0146376Y0132926D02*
X0147000Y0134433D01*
X0147000Y0136064D01*
X0146376Y0137571D01*
X0145222Y0138725D01*
X0143716Y0139349D01*
X0136884Y0139349D01*
X0135378Y0138725D01*
X0134224Y0137571D01*
X0133600Y0136064D01*
X0133600Y0134433D01*
X0134224Y0132926D01*
X0135378Y0131773D01*
X0136884Y0131149D01*
X0143716Y0131149D01*
X0145222Y0131773D01*
X0146376Y0132926D01*
X0146383Y0132944D02*
X0193126Y0132944D01*
X0192878Y0133542D02*
X0146631Y0133542D01*
X0146879Y0134141D02*
X0192631Y0134141D01*
X0192600Y0134739D02*
X0147000Y0134739D01*
X0147000Y0135338D02*
X0192600Y0135338D01*
X0192600Y0135936D02*
X0147000Y0135936D01*
X0146805Y0136535D02*
X0192704Y0136535D01*
X0192952Y0137133D02*
X0146557Y0137133D01*
X0146215Y0137732D02*
X0193200Y0137732D01*
X0193528Y0138330D02*
X0145617Y0138330D01*
X0144730Y0138929D02*
X0194126Y0138929D01*
X0194725Y0139527D02*
X0029054Y0139527D01*
X0029054Y0138929D02*
X0105870Y0138929D01*
X0105378Y0138725D02*
X0104224Y0137571D01*
X0103600Y0136064D01*
X0103600Y0134433D01*
X0104224Y0132926D01*
X0105378Y0131773D01*
X0106884Y0131149D01*
X0113716Y0131149D01*
X0115222Y0131773D01*
X0116376Y0132926D01*
X0117000Y0134433D01*
X0117000Y0136064D01*
X0116376Y0137571D01*
X0115222Y0138725D01*
X0113716Y0139349D01*
X0106884Y0139349D01*
X0105378Y0138725D01*
X0104983Y0138330D02*
X0029054Y0138330D01*
X0029054Y0137732D02*
X0104385Y0137732D01*
X0104043Y0137133D02*
X0029054Y0137133D01*
X0029054Y0136535D02*
X0103795Y0136535D01*
X0103600Y0135936D02*
X0029054Y0135936D01*
X0029054Y0135338D02*
X0103600Y0135338D01*
X0103600Y0134739D02*
X0029054Y0134739D01*
X0029054Y0134141D02*
X0103721Y0134141D01*
X0103969Y0133542D02*
X0029054Y0133542D01*
X0029054Y0132944D02*
X0104217Y0132944D01*
X0104805Y0132345D02*
X0029054Y0132345D01*
X0029054Y0131747D02*
X0105441Y0131747D01*
X0103860Y0124564D02*
X0029054Y0124564D01*
X0029054Y0123966D02*
X0104010Y0123966D01*
X0104267Y0123367D02*
X0029054Y0123367D01*
X0029054Y0122769D02*
X0104666Y0122769D01*
X0105287Y0122170D02*
X0029054Y0122170D01*
X0029054Y0121572D02*
X0106386Y0121572D01*
X0110000Y0121572D02*
X0110600Y0121572D01*
X0110600Y0122170D02*
X0110000Y0122170D01*
X0110000Y0122769D02*
X0110600Y0122769D01*
X0110600Y0123367D02*
X0110000Y0123367D01*
X0110000Y0123966D02*
X0110600Y0123966D01*
X0110600Y0124564D02*
X0110000Y0124564D01*
X0114629Y0128754D02*
X0135449Y0128754D01*
X0134808Y0128156D02*
X0115509Y0128156D01*
X0116048Y0127557D02*
X0134218Y0127557D01*
X0133970Y0126959D02*
X0116413Y0126959D01*
X0116655Y0126360D02*
X0133722Y0126360D01*
X0135441Y0131747D02*
X0115159Y0131747D01*
X0115795Y0132345D02*
X0134805Y0132345D01*
X0134217Y0132944D02*
X0116383Y0132944D01*
X0116631Y0133542D02*
X0133969Y0133542D01*
X0133721Y0134141D02*
X0116879Y0134141D01*
X0117000Y0134739D02*
X0133600Y0134739D01*
X0133600Y0135338D02*
X0117000Y0135338D01*
X0117000Y0135936D02*
X0133600Y0135936D01*
X0133795Y0136535D02*
X0116805Y0136535D01*
X0116557Y0137133D02*
X0134043Y0137133D01*
X0134385Y0137732D02*
X0116215Y0137732D01*
X0115617Y0138330D02*
X0134983Y0138330D01*
X0135870Y0138929D02*
X0114730Y0138929D01*
X0113716Y0141149D02*
X0115222Y0141773D01*
X0116376Y0142926D01*
X0117000Y0144433D01*
X0117000Y0146064D01*
X0116376Y0147571D01*
X0115222Y0148725D01*
X0113716Y0149349D01*
X0106884Y0149349D01*
X0105378Y0148725D01*
X0104224Y0147571D01*
X0103600Y0146064D01*
X0103600Y0144433D01*
X0104224Y0142926D01*
X0105378Y0141773D01*
X0106884Y0141149D01*
X0113716Y0141149D01*
X0114136Y0141323D02*
X0136464Y0141323D01*
X0136884Y0141149D02*
X0143716Y0141149D01*
X0145222Y0141773D01*
X0146376Y0142926D01*
X0147000Y0144433D01*
X0147000Y0146064D01*
X0146376Y0147571D01*
X0145222Y0148725D01*
X0143716Y0149349D01*
X0136884Y0149349D01*
X0135378Y0148725D01*
X0134224Y0147571D01*
X0133600Y0146064D01*
X0133600Y0144433D01*
X0134224Y0142926D01*
X0135378Y0141773D01*
X0136884Y0141149D01*
X0135229Y0141921D02*
X0115371Y0141921D01*
X0115969Y0142520D02*
X0134631Y0142520D01*
X0134145Y0143118D02*
X0116455Y0143118D01*
X0116703Y0143717D02*
X0133897Y0143717D01*
X0133649Y0144315D02*
X0116951Y0144315D01*
X0117000Y0144914D02*
X0133600Y0144914D01*
X0133600Y0145512D02*
X0117000Y0145512D01*
X0116981Y0146111D02*
X0133619Y0146111D01*
X0133867Y0146709D02*
X0116733Y0146709D01*
X0116485Y0147308D02*
X0134115Y0147308D01*
X0134559Y0147906D02*
X0116041Y0147906D01*
X0115442Y0148505D02*
X0135158Y0148505D01*
X0136292Y0149103D02*
X0114308Y0149103D01*
X0114557Y0151497D02*
X0136043Y0151497D01*
X0135378Y0151773D02*
X0136884Y0151149D01*
X0143716Y0151149D01*
X0145222Y0151773D01*
X0146376Y0152926D01*
X0147000Y0154433D01*
X0147000Y0156064D01*
X0146376Y0157571D01*
X0145222Y0158725D01*
X0143716Y0159349D01*
X0136884Y0159349D01*
X0135378Y0158725D01*
X0134224Y0157571D01*
X0133600Y0156064D01*
X0133600Y0154433D01*
X0134224Y0152926D01*
X0135378Y0151773D01*
X0135055Y0152096D02*
X0115545Y0152096D01*
X0116144Y0152695D02*
X0134456Y0152695D01*
X0134072Y0153293D02*
X0116528Y0153293D01*
X0116776Y0153892D02*
X0133824Y0153892D01*
X0133600Y0154490D02*
X0117000Y0154490D01*
X0117000Y0155089D02*
X0133600Y0155089D01*
X0133600Y0155687D02*
X0117000Y0155687D01*
X0116908Y0156286D02*
X0133692Y0156286D01*
X0133940Y0156884D02*
X0116660Y0156884D01*
X0116413Y0157483D02*
X0134187Y0157483D01*
X0134734Y0158081D02*
X0115866Y0158081D01*
X0115267Y0158680D02*
X0135333Y0158680D01*
X0136714Y0159278D02*
X0113886Y0159278D01*
X0114979Y0161672D02*
X0135621Y0161672D01*
X0135378Y0161773D02*
X0136884Y0161149D01*
X0143716Y0161149D01*
X0145222Y0161773D01*
X0146376Y0162926D01*
X0147000Y0164433D01*
X0147000Y0166064D01*
X0146376Y0167571D01*
X0145222Y0168725D01*
X0143716Y0169349D01*
X0136884Y0169349D01*
X0135378Y0168725D01*
X0134224Y0167571D01*
X0133600Y0166064D01*
X0133600Y0164433D01*
X0134224Y0162926D01*
X0135378Y0161773D01*
X0134880Y0162271D02*
X0115720Y0162271D01*
X0116319Y0162869D02*
X0134281Y0162869D01*
X0134000Y0163468D02*
X0116600Y0163468D01*
X0116848Y0164066D02*
X0133752Y0164066D01*
X0133600Y0164665D02*
X0117000Y0164665D01*
X0117000Y0165263D02*
X0133600Y0165263D01*
X0133600Y0165862D02*
X0117000Y0165862D01*
X0116836Y0166460D02*
X0133764Y0166460D01*
X0134012Y0167059D02*
X0116588Y0167059D01*
X0116290Y0167657D02*
X0134310Y0167657D01*
X0134909Y0168256D02*
X0115691Y0168256D01*
X0114909Y0168854D02*
X0135691Y0168854D01*
X0136644Y0171248D02*
X0113956Y0171248D01*
X0113716Y0171149D02*
X0115222Y0171773D01*
X0116376Y0172926D01*
X0117000Y0174433D01*
X0117000Y0176064D01*
X0116376Y0177571D01*
X0115222Y0178725D01*
X0113716Y0179349D01*
X0106884Y0179349D01*
X0105378Y0178725D01*
X0104224Y0177571D01*
X0103600Y0176064D01*
X0103600Y0174433D01*
X0104224Y0172926D01*
X0105378Y0171773D01*
X0106884Y0171149D01*
X0113716Y0171149D01*
X0115296Y0171847D02*
X0135304Y0171847D01*
X0134705Y0172445D02*
X0115895Y0172445D01*
X0116424Y0173044D02*
X0134175Y0173044D01*
X0133928Y0173642D02*
X0116672Y0173642D01*
X0116920Y0174241D02*
X0133680Y0174241D01*
X0133600Y0174839D02*
X0117000Y0174839D01*
X0117000Y0175438D02*
X0133600Y0175438D01*
X0133600Y0176036D02*
X0117000Y0176036D01*
X0116764Y0176635D02*
X0133836Y0176635D01*
X0134084Y0177233D02*
X0116516Y0177233D01*
X0116115Y0177832D02*
X0134485Y0177832D01*
X0135083Y0178430D02*
X0115517Y0178430D01*
X0114488Y0179029D02*
X0136112Y0179029D01*
X0136943Y0181423D02*
X0114378Y0181423D01*
X0115471Y0182022D02*
X0135510Y0182022D01*
X0134813Y0182620D02*
X0116070Y0182620D01*
X0116497Y0183219D02*
X0134366Y0183219D01*
X0134072Y0183817D02*
X0116745Y0183817D01*
X0116993Y0184416D02*
X0133889Y0184416D01*
X0146672Y0173642D02*
X0200650Y0173642D01*
X0200650Y0173044D02*
X0146424Y0173044D01*
X0145895Y0172445D02*
X0200650Y0172445D01*
X0200650Y0171847D02*
X0145296Y0171847D01*
X0143956Y0171248D02*
X0200650Y0171248D01*
X0200650Y0170650D02*
X0077869Y0170650D01*
X0078467Y0170051D02*
X0200650Y0170051D01*
X0200650Y0169453D02*
X0079066Y0169453D01*
X0079664Y0168854D02*
X0105691Y0168854D01*
X0104909Y0168256D02*
X0080263Y0168256D01*
X0080861Y0167657D02*
X0104310Y0167657D01*
X0106644Y0171248D02*
X0077270Y0171248D01*
X0076672Y0171847D02*
X0105304Y0171847D01*
X0104705Y0172445D02*
X0076073Y0172445D01*
X0075475Y0173044D02*
X0104175Y0173044D01*
X0103928Y0173642D02*
X0074876Y0173642D01*
X0074278Y0174241D02*
X0103680Y0174241D01*
X0103600Y0174839D02*
X0073679Y0174839D01*
X0073081Y0175438D02*
X0103600Y0175438D01*
X0103600Y0176036D02*
X0072482Y0176036D01*
X0071884Y0176635D02*
X0103836Y0176635D01*
X0104084Y0177233D02*
X0071285Y0177233D01*
X0070687Y0177832D02*
X0104485Y0177832D01*
X0105083Y0178430D02*
X0070088Y0178430D01*
X0069490Y0179029D02*
X0106112Y0179029D01*
X0105055Y0152096D02*
X0040117Y0152096D01*
X0039519Y0151497D02*
X0106043Y0151497D01*
X0106292Y0149103D02*
X0037124Y0149103D01*
X0036526Y0148505D02*
X0105158Y0148505D01*
X0104559Y0147906D02*
X0035927Y0147906D01*
X0035329Y0147308D02*
X0104115Y0147308D01*
X0103867Y0146709D02*
X0034730Y0146709D01*
X0034132Y0146111D02*
X0103619Y0146111D01*
X0103600Y0145512D02*
X0033533Y0145512D01*
X0032935Y0144914D02*
X0103600Y0144914D01*
X0103649Y0144315D02*
X0032336Y0144315D01*
X0031738Y0143717D02*
X0103897Y0143717D01*
X0104145Y0143118D02*
X0031139Y0143118D01*
X0030541Y0142520D02*
X0104631Y0142520D01*
X0105229Y0141921D02*
X0029942Y0141921D01*
X0029344Y0141323D02*
X0106464Y0141323D01*
X0078642Y0159877D02*
X0200650Y0159877D01*
X0200650Y0160475D02*
X0078043Y0160475D01*
X0077445Y0161074D02*
X0191402Y0161074D01*
X0190835Y0161308D02*
X0192110Y0160780D01*
X0193490Y0160780D01*
X0194765Y0161308D01*
X0195740Y0162284D01*
X0196268Y0163559D01*
X0196268Y0164939D01*
X0195740Y0166214D01*
X0194765Y0167189D01*
X0193490Y0167717D01*
X0192110Y0167717D01*
X0190835Y0167189D01*
X0189860Y0166214D01*
X0189331Y0164939D01*
X0189331Y0163559D01*
X0189860Y0162284D01*
X0190835Y0161308D01*
X0190471Y0161672D02*
X0144979Y0161672D01*
X0145720Y0162271D02*
X0189873Y0162271D01*
X0189617Y0162869D02*
X0146319Y0162869D01*
X0146600Y0163468D02*
X0189369Y0163468D01*
X0189331Y0164066D02*
X0146848Y0164066D01*
X0147000Y0164665D02*
X0189331Y0164665D01*
X0189466Y0165263D02*
X0147000Y0165263D01*
X0147000Y0165862D02*
X0189714Y0165862D01*
X0190106Y0166460D02*
X0146836Y0166460D01*
X0146588Y0167059D02*
X0190705Y0167059D01*
X0191965Y0167657D02*
X0146290Y0167657D01*
X0145691Y0168256D02*
X0200650Y0168256D01*
X0200650Y0168854D02*
X0144909Y0168854D01*
X0146920Y0174241D02*
X0200650Y0174241D01*
X0200650Y0174839D02*
X0147000Y0174839D01*
X0147000Y0175438D02*
X0200650Y0175438D01*
X0200650Y0176036D02*
X0147000Y0176036D01*
X0146764Y0176635D02*
X0200650Y0176635D01*
X0200650Y0167657D02*
X0193635Y0167657D01*
X0194895Y0167059D02*
X0200650Y0167059D01*
X0200650Y0166460D02*
X0195494Y0166460D01*
X0195886Y0165862D02*
X0200650Y0165862D01*
X0200650Y0165263D02*
X0196134Y0165263D01*
X0196268Y0164665D02*
X0200650Y0164665D01*
X0200650Y0164066D02*
X0196268Y0164066D01*
X0196231Y0163468D02*
X0200650Y0163468D01*
X0200650Y0162869D02*
X0195983Y0162869D01*
X0195727Y0162271D02*
X0200650Y0162271D01*
X0200650Y0161672D02*
X0195129Y0161672D01*
X0194198Y0161074D02*
X0200650Y0161074D01*
X0200650Y0159278D02*
X0143886Y0159278D01*
X0145267Y0158680D02*
X0200650Y0158680D01*
X0200650Y0158081D02*
X0145866Y0158081D01*
X0146413Y0157483D02*
X0200650Y0157483D01*
X0200650Y0156884D02*
X0146660Y0156884D01*
X0146908Y0156286D02*
X0200650Y0156286D01*
X0200650Y0155687D02*
X0147000Y0155687D01*
X0147000Y0155089D02*
X0200650Y0155089D01*
X0200650Y0154490D02*
X0147000Y0154490D01*
X0146776Y0153892D02*
X0200650Y0153892D01*
X0200650Y0153293D02*
X0146528Y0153293D01*
X0146144Y0152695D02*
X0200650Y0152695D01*
X0200650Y0152096D02*
X0145545Y0152096D01*
X0144557Y0151497D02*
X0200650Y0151497D01*
X0200650Y0150899D02*
X0038920Y0150899D01*
X0038321Y0150300D02*
X0196408Y0150300D01*
X0194963Y0149702D02*
X0037723Y0149702D01*
X0032980Y0150899D02*
X0006800Y0150899D01*
X0006800Y0151497D02*
X0009150Y0151497D01*
X0008908Y0150300D02*
X0006800Y0150300D01*
X0006800Y0149702D02*
X0007463Y0149702D01*
X0006801Y0149103D02*
X0006800Y0149103D01*
X0006800Y0152096D02*
X0007855Y0152096D01*
X0007256Y0152695D02*
X0006800Y0152695D01*
X0029054Y0140724D02*
X0195135Y0140724D01*
X0194372Y0141323D02*
X0144136Y0141323D01*
X0145371Y0141921D02*
X0193774Y0141921D01*
X0193302Y0142520D02*
X0145969Y0142520D01*
X0146455Y0143118D02*
X0193054Y0143118D01*
X0192806Y0143717D02*
X0146703Y0143717D01*
X0146951Y0144315D02*
X0192600Y0144315D01*
X0192600Y0144914D02*
X0147000Y0144914D01*
X0147000Y0145512D02*
X0192600Y0145512D01*
X0192600Y0146111D02*
X0146981Y0146111D01*
X0146733Y0146709D02*
X0192777Y0146709D01*
X0193024Y0147308D02*
X0146485Y0147308D01*
X0146041Y0147906D02*
X0193272Y0147906D01*
X0193702Y0148505D02*
X0145442Y0148505D01*
X0144308Y0149103D02*
X0194301Y0149103D01*
X0199192Y0150300D02*
X0200650Y0150300D01*
X0200637Y0149702D02*
X0200650Y0149702D01*
X0195986Y0140126D02*
X0029054Y0140126D01*
X0029054Y0131148D02*
X0194547Y0131148D01*
X0193948Y0131747D02*
X0145159Y0131747D01*
X0145795Y0132345D02*
X0193374Y0132345D01*
X0195557Y0130550D02*
X0029054Y0130550D01*
X0029054Y0129951D02*
X0195564Y0129951D01*
X0192951Y0123367D02*
X0179602Y0123367D01*
X0180201Y0122769D02*
X0193199Y0122769D01*
X0193524Y0122170D02*
X0180799Y0122170D01*
X0181398Y0121572D02*
X0194123Y0121572D01*
X0194721Y0120973D02*
X0181456Y0120973D01*
X0181456Y0120375D02*
X0195978Y0120375D01*
X0192800Y0074888D02*
X0162793Y0074888D01*
X0162195Y0074290D02*
X0192890Y0074290D01*
X0193049Y0073691D02*
X0161385Y0073691D01*
X0161464Y0072494D02*
X0193621Y0072494D01*
X0193287Y0073093D02*
X0160073Y0073093D01*
X0162224Y0071895D02*
X0194082Y0071895D01*
X0199883Y0070698D02*
X0200650Y0070698D01*
X0200650Y0070100D02*
X0163456Y0070100D01*
X0163650Y0069501D02*
X0200650Y0069501D01*
X0200650Y0068903D02*
X0163759Y0068903D01*
X0159100Y0067706D02*
X0158500Y0067706D01*
X0158500Y0067107D02*
X0159100Y0067107D01*
X0159100Y0066509D02*
X0158500Y0066509D01*
X0158500Y0065910D02*
X0159100Y0065910D01*
X0159100Y0065312D02*
X0158500Y0065312D01*
X0158500Y0064713D02*
X0159100Y0064713D01*
X0159100Y0064115D02*
X0158500Y0064115D01*
X0158500Y0063516D02*
X0159100Y0063516D01*
X0153841Y0068903D02*
X0152968Y0068903D01*
X0153089Y0069501D02*
X0153950Y0069501D01*
X0154144Y0070100D02*
X0153089Y0070100D01*
X0152925Y0070698D02*
X0154437Y0070698D01*
X0154834Y0071297D02*
X0152677Y0071297D01*
X0152098Y0071895D02*
X0155376Y0071895D01*
X0156136Y0072494D02*
X0150960Y0072494D01*
X0152400Y0056334D02*
X0200650Y0056334D01*
X0200650Y0055736D02*
X0152400Y0055736D01*
X0152400Y0055137D02*
X0200650Y0055137D01*
X0200650Y0054539D02*
X0152400Y0054539D01*
X0152400Y0052145D02*
X0158551Y0052145D01*
X0157953Y0051546D02*
X0152400Y0051546D01*
X0152400Y0050948D02*
X0157354Y0050948D01*
X0156756Y0050349D02*
X0152400Y0050349D01*
X0152400Y0049751D02*
X0156350Y0049751D01*
X0156350Y0049152D02*
X0152400Y0049152D01*
X0152400Y0048554D02*
X0156350Y0048554D01*
X0156350Y0047955D02*
X0152400Y0047955D01*
X0152400Y0047357D02*
X0156350Y0047357D01*
X0156350Y0046758D02*
X0152400Y0046758D01*
X0152400Y0046159D02*
X0156737Y0046159D01*
X0157335Y0045561D02*
X0152400Y0045561D01*
X0152400Y0044962D02*
X0157934Y0044962D01*
X0158532Y0044364D02*
X0152400Y0044364D01*
X0138100Y0040773D02*
X0137500Y0040773D01*
X0137500Y0040174D02*
X0138100Y0040174D01*
X0138100Y0039576D02*
X0137500Y0039576D01*
X0137500Y0038977D02*
X0138100Y0038977D01*
X0138100Y0038379D02*
X0137500Y0038379D01*
X0137500Y0037780D02*
X0138100Y0037780D01*
X0138100Y0037182D02*
X0137500Y0037182D01*
X0137500Y0035386D02*
X0138100Y0035386D01*
X0138100Y0034788D02*
X0137500Y0034788D01*
X0137500Y0034189D02*
X0138100Y0034189D01*
X0138100Y0033591D02*
X0137500Y0033591D01*
X0137500Y0032992D02*
X0138100Y0032992D01*
X0138100Y0032394D02*
X0137500Y0032394D01*
X0137500Y0031795D02*
X0138100Y0031795D01*
X0135527Y0031795D02*
X0127400Y0031795D01*
X0127400Y0033591D02*
X0133551Y0033591D01*
X0133238Y0034189D02*
X0127400Y0034189D01*
X0127400Y0034788D02*
X0133017Y0034788D01*
X0132874Y0035386D02*
X0127400Y0035386D01*
X0128484Y0029401D02*
X0148200Y0029401D01*
X0148200Y0028803D02*
X0129038Y0028803D01*
X0129592Y0028204D02*
X0148200Y0028204D01*
X0148200Y0027606D02*
X0130146Y0027606D01*
X0134543Y0032435D02*
X0133986Y0032992D01*
X0158328Y0024613D02*
X0164571Y0024613D01*
X0163972Y0024015D02*
X0158927Y0024015D01*
X0159525Y0023416D02*
X0163374Y0023416D01*
X0162775Y0022818D02*
X0160124Y0022818D01*
X0160550Y0022219D02*
X0162350Y0022219D01*
X0162350Y0021621D02*
X0160550Y0021621D01*
X0160550Y0021022D02*
X0162350Y0021022D01*
X0162350Y0020424D02*
X0160550Y0020424D01*
X0160550Y0019825D02*
X0162350Y0019825D01*
X0162350Y0019226D02*
X0160550Y0019226D01*
X0160182Y0018628D02*
X0162717Y0018628D01*
X0163316Y0018029D02*
X0159584Y0018029D01*
X0158985Y0017431D02*
X0163914Y0017431D01*
X0164513Y0016832D02*
X0158387Y0016832D01*
X0104906Y0092245D02*
X0082400Y0092245D01*
X0082400Y0092843D02*
X0104307Y0092843D01*
X0104011Y0093442D02*
X0082400Y0093442D01*
X0082400Y0094040D02*
X0103763Y0094040D01*
X0103600Y0094639D02*
X0082400Y0094639D01*
X0082400Y0095237D02*
X0103600Y0095237D01*
X0103600Y0095836D02*
X0082400Y0095836D01*
X0082400Y0096434D02*
X0103753Y0096434D01*
X0104001Y0097033D02*
X0082400Y0097033D01*
X0082400Y0097631D02*
X0104284Y0097631D01*
X0104883Y0098230D02*
X0082400Y0098230D01*
X0082400Y0098828D02*
X0105628Y0098828D01*
X0106706Y0101223D02*
X0082400Y0101223D01*
X0082400Y0101821D02*
X0105329Y0101821D01*
X0104731Y0102420D02*
X0082400Y0102420D01*
X0082400Y0103018D02*
X0104186Y0103018D01*
X0103938Y0103617D02*
X0082400Y0103617D01*
X0082400Y0104215D02*
X0103690Y0104215D01*
X0103600Y0104814D02*
X0082400Y0104814D01*
X0082400Y0105412D02*
X0103600Y0105412D01*
X0103600Y0106011D02*
X0082400Y0106011D01*
X0082605Y0106609D02*
X0103826Y0106609D01*
X0104074Y0107208D02*
X0082887Y0107208D01*
X0083089Y0107806D02*
X0104459Y0107806D01*
X0105058Y0108405D02*
X0083089Y0108405D01*
X0083006Y0109003D02*
X0106050Y0109003D01*
X0123749Y0099427D02*
X0082400Y0099427D01*
X0082400Y0100026D02*
X0124315Y0100026D01*
X0124881Y0100624D02*
X0082400Y0100624D01*
X0082758Y0109602D02*
X0133365Y0109602D01*
X0133931Y0110200D02*
X0082293Y0110200D01*
X0081432Y0110799D02*
X0134496Y0110799D01*
X0068595Y0114988D02*
X0029054Y0114988D01*
X0029054Y0114390D02*
X0067997Y0114390D01*
X0067713Y0113791D02*
X0029054Y0113791D01*
X0029054Y0113193D02*
X0067511Y0113193D01*
X0067511Y0112594D02*
X0029054Y0112594D01*
X0029054Y0111996D02*
X0067593Y0111996D01*
X0067841Y0111397D02*
X0029054Y0111397D01*
X0029054Y0110799D02*
X0068200Y0110799D01*
X0068200Y0110200D02*
X0029054Y0110200D01*
X0029054Y0109602D02*
X0068200Y0109602D01*
X0068200Y0109003D02*
X0029054Y0109003D01*
X0029054Y0108405D02*
X0068200Y0108405D01*
X0068200Y0107806D02*
X0029054Y0107806D01*
X0029054Y0107208D02*
X0068200Y0107208D01*
X0068200Y0106609D02*
X0029054Y0106609D01*
X0029162Y0106011D02*
X0068200Y0106011D01*
X0068200Y0105412D02*
X0029760Y0105412D01*
X0030359Y0104814D02*
X0068200Y0104814D01*
X0068200Y0104215D02*
X0030957Y0104215D01*
X0031556Y0103617D02*
X0068200Y0103617D01*
X0068200Y0103018D02*
X0032154Y0103018D01*
X0032753Y0102420D02*
X0068200Y0102420D01*
X0068200Y0101821D02*
X0033351Y0101821D01*
X0033950Y0101223D02*
X0068200Y0101223D01*
X0068200Y0100624D02*
X0034548Y0100624D01*
X0035147Y0100026D02*
X0068200Y0100026D01*
X0068200Y0099427D02*
X0035745Y0099427D01*
X0036344Y0098828D02*
X0068200Y0098828D01*
X0068200Y0098230D02*
X0036942Y0098230D01*
X0037400Y0097631D02*
X0068200Y0097631D01*
X0068200Y0097033D02*
X0042818Y0097033D01*
X0043417Y0096434D02*
X0068200Y0096434D01*
X0068200Y0095836D02*
X0044015Y0095836D01*
X0044614Y0095237D02*
X0068200Y0095237D01*
X0068200Y0094639D02*
X0044754Y0094639D01*
X0044754Y0094040D02*
X0068200Y0094040D01*
X0068200Y0093442D02*
X0044754Y0093442D01*
X0044754Y0092843D02*
X0068200Y0092843D01*
X0068200Y0092245D02*
X0044754Y0092245D01*
X0044701Y0091646D02*
X0068200Y0091646D01*
X0068200Y0091048D02*
X0044102Y0091048D01*
X0043504Y0090449D02*
X0068200Y0090449D01*
X0068200Y0089851D02*
X0042905Y0089851D01*
X0041062Y0087457D02*
X0068200Y0087457D01*
X0068200Y0088055D02*
X0040463Y0088055D01*
X0039865Y0088654D02*
X0068200Y0088654D01*
X0068200Y0089252D02*
X0039266Y0089252D01*
X0041660Y0086858D02*
X0068200Y0086858D01*
X0068200Y0086260D02*
X0042259Y0086260D01*
X0042857Y0085661D02*
X0068200Y0085661D01*
X0068200Y0085063D02*
X0043456Y0085063D01*
X0044054Y0084464D02*
X0068200Y0084464D01*
X0068200Y0083866D02*
X0044653Y0083866D01*
X0037691Y0074888D02*
X0015300Y0074888D01*
X0015210Y0074290D02*
X0038289Y0074290D01*
X0038554Y0073691D02*
X0015051Y0073691D01*
X0014813Y0073093D02*
X0038554Y0073093D01*
X0038554Y0072494D02*
X0014479Y0072494D01*
X0014018Y0071895D02*
X0038554Y0071895D01*
X0038554Y0071297D02*
X0013367Y0071297D01*
X0011880Y0080275D02*
X0032304Y0080275D01*
X0022157Y0089851D02*
X0012778Y0089851D01*
X0012301Y0090449D02*
X0021559Y0090449D01*
X0021054Y0091048D02*
X0013453Y0091048D01*
X0014051Y0091646D02*
X0020933Y0091646D01*
X0020334Y0092245D02*
X0014650Y0092245D01*
X0014932Y0092843D02*
X0019736Y0092843D01*
X0019137Y0093442D02*
X0015180Y0093442D01*
X0015428Y0094040D02*
X0018539Y0094040D01*
X0017940Y0094639D02*
X0015500Y0094639D01*
X0015500Y0095237D02*
X0017342Y0095237D01*
X0016743Y0095836D02*
X0015500Y0095836D01*
X0015437Y0096434D02*
X0016145Y0096434D01*
X0015546Y0097033D02*
X0015189Y0097033D01*
X0031617Y0097033D02*
X0032200Y0097033D01*
X0032216Y0096434D02*
X0032798Y0096434D01*
X0032814Y0095836D02*
X0033200Y0095836D01*
X0037400Y0096434D02*
X0037892Y0096434D01*
X0037400Y0097033D02*
X0038491Y0097033D01*
X0024854Y0120375D02*
X0012122Y0120375D01*
X0006800Y0056933D02*
X0027190Y0056933D01*
X0026591Y0056334D02*
X0006800Y0056334D01*
X0006800Y0055736D02*
X0025993Y0055736D01*
X0025394Y0055137D02*
X0006800Y0055137D01*
X0006800Y0054539D02*
X0025354Y0054539D01*
X0025354Y0053940D02*
X0006800Y0053940D01*
X0006800Y0053342D02*
X0018961Y0053342D01*
X0017516Y0052743D02*
X0006800Y0052743D01*
X0006800Y0052145D02*
X0016570Y0052145D01*
X0015971Y0051546D02*
X0006800Y0051546D01*
X0006800Y0050948D02*
X0015373Y0050948D01*
X0014861Y0050349D02*
X0006800Y0050349D01*
X0006800Y0049751D02*
X0014613Y0049751D01*
X0014365Y0049152D02*
X0006800Y0049152D01*
X0006800Y0048554D02*
X0014117Y0048554D01*
X0013869Y0047955D02*
X0006800Y0047955D01*
X0006800Y0047357D02*
X0013839Y0047357D01*
X0013839Y0046758D02*
X0006800Y0046758D01*
X0006800Y0046159D02*
X0013839Y0046159D01*
X0013839Y0045561D02*
X0006800Y0045561D01*
X0006800Y0044962D02*
X0013878Y0044962D01*
X0014126Y0044364D02*
X0006800Y0044364D01*
X0006800Y0043765D02*
X0014373Y0043765D01*
X0014621Y0043167D02*
X0006800Y0043167D01*
X0006800Y0042568D02*
X0014869Y0042568D01*
X0015394Y0041970D02*
X0006800Y0041970D01*
X0006800Y0041371D02*
X0015992Y0041371D01*
X0016591Y0040773D02*
X0006800Y0040773D01*
X0006800Y0040174D02*
X0017567Y0040174D01*
X0019012Y0039576D02*
X0006800Y0039576D01*
X0006800Y0024613D02*
X0018989Y0024613D01*
X0017544Y0024015D02*
X0006800Y0024015D01*
X0006800Y0023416D02*
X0016581Y0023416D01*
X0015983Y0022818D02*
X0006800Y0022818D01*
X0006800Y0022219D02*
X0015384Y0022219D01*
X0014865Y0021621D02*
X0006800Y0021621D01*
X0006800Y0021022D02*
X0014618Y0021022D01*
X0014370Y0020424D02*
X0006800Y0020424D01*
X0006800Y0019825D02*
X0014122Y0019825D01*
X0013874Y0019226D02*
X0006800Y0019226D01*
X0006800Y0018628D02*
X0013839Y0018628D01*
X0013839Y0018029D02*
X0006800Y0018029D01*
X0006800Y0017431D02*
X0013839Y0017431D01*
X0013839Y0016832D02*
X0006800Y0016832D01*
X0006800Y0016234D02*
X0013873Y0016234D01*
X0014121Y0015635D02*
X0006800Y0015635D01*
X0006800Y0015037D02*
X0014369Y0015037D01*
X0014617Y0014438D02*
X0006800Y0014438D01*
X0006800Y0013840D02*
X0014865Y0013840D01*
X0015382Y0013241D02*
X0006800Y0013241D01*
X0006800Y0012643D02*
X0015980Y0012643D01*
X0016579Y0012044D02*
X0006800Y0012044D01*
X0027287Y0049751D02*
X0027303Y0049751D01*
X0025354Y0052145D02*
X0025330Y0052145D01*
X0025354Y0052743D02*
X0024383Y0052743D01*
X0025354Y0053342D02*
X0022938Y0053342D01*
X0055850Y0015635D02*
X0057850Y0015635D01*
X0057850Y0015037D02*
X0055850Y0015037D01*
X0055407Y0014438D02*
X0058210Y0014438D01*
X0058808Y0013840D02*
X0054808Y0013840D01*
X0054210Y0013241D02*
X0059407Y0013241D01*
X0060005Y0012643D02*
X0053611Y0012643D01*
X0147000Y0194590D02*
X0191362Y0194590D01*
X0190455Y0195189D02*
X0147000Y0195189D01*
X0147000Y0195787D02*
X0189858Y0195787D01*
X0189610Y0196386D02*
X0146867Y0196386D01*
X0146619Y0196984D02*
X0189362Y0196984D01*
X0189331Y0197583D02*
X0146364Y0197583D01*
X0145766Y0198181D02*
X0189331Y0198181D01*
X0189473Y0198780D02*
X0145089Y0198780D01*
M02*
