G75*
%MOIN*%
%OFA0B0*%
%FSLAX25Y25*%
%IPPOS*%
%LPD*%
%AMOC8*
5,1,8,0,0,1.08239X$1,22.5*
%
%ADD10C,0.00000*%
%ADD11C,0.04337*%
%ADD12C,0.05550*%
%ADD13C,0.11620*%
%ADD14OC8,0.05600*%
%ADD15R,0.06337X0.06337*%
%ADD16R,0.05550X0.05550*%
%ADD17C,0.05600*%
%ADD18C,0.07800*%
%ADD19C,0.05600*%
D10*
X0005300Y0010249D02*
X0005300Y0207099D01*
X0202150Y0207099D01*
X0202150Y0010249D01*
X0005300Y0010249D01*
X0174331Y0049749D02*
X0174333Y0049837D01*
X0174339Y0049925D01*
X0174349Y0050013D01*
X0174363Y0050101D01*
X0174380Y0050187D01*
X0174402Y0050273D01*
X0174427Y0050357D01*
X0174457Y0050441D01*
X0174489Y0050523D01*
X0174526Y0050603D01*
X0174566Y0050682D01*
X0174610Y0050759D01*
X0174657Y0050834D01*
X0174707Y0050906D01*
X0174761Y0050977D01*
X0174817Y0051044D01*
X0174877Y0051110D01*
X0174939Y0051172D01*
X0175005Y0051232D01*
X0175072Y0051288D01*
X0175143Y0051342D01*
X0175215Y0051392D01*
X0175290Y0051439D01*
X0175367Y0051483D01*
X0175446Y0051523D01*
X0175526Y0051560D01*
X0175608Y0051592D01*
X0175692Y0051622D01*
X0175776Y0051647D01*
X0175862Y0051669D01*
X0175948Y0051686D01*
X0176036Y0051700D01*
X0176124Y0051710D01*
X0176212Y0051716D01*
X0176300Y0051718D01*
X0176388Y0051716D01*
X0176476Y0051710D01*
X0176564Y0051700D01*
X0176652Y0051686D01*
X0176738Y0051669D01*
X0176824Y0051647D01*
X0176908Y0051622D01*
X0176992Y0051592D01*
X0177074Y0051560D01*
X0177154Y0051523D01*
X0177233Y0051483D01*
X0177310Y0051439D01*
X0177385Y0051392D01*
X0177457Y0051342D01*
X0177528Y0051288D01*
X0177595Y0051232D01*
X0177661Y0051172D01*
X0177723Y0051110D01*
X0177783Y0051044D01*
X0177839Y0050977D01*
X0177893Y0050906D01*
X0177943Y0050834D01*
X0177990Y0050759D01*
X0178034Y0050682D01*
X0178074Y0050603D01*
X0178111Y0050523D01*
X0178143Y0050441D01*
X0178173Y0050357D01*
X0178198Y0050273D01*
X0178220Y0050187D01*
X0178237Y0050101D01*
X0178251Y0050013D01*
X0178261Y0049925D01*
X0178267Y0049837D01*
X0178269Y0049749D01*
X0178267Y0049661D01*
X0178261Y0049573D01*
X0178251Y0049485D01*
X0178237Y0049397D01*
X0178220Y0049311D01*
X0178198Y0049225D01*
X0178173Y0049141D01*
X0178143Y0049057D01*
X0178111Y0048975D01*
X0178074Y0048895D01*
X0178034Y0048816D01*
X0177990Y0048739D01*
X0177943Y0048664D01*
X0177893Y0048592D01*
X0177839Y0048521D01*
X0177783Y0048454D01*
X0177723Y0048388D01*
X0177661Y0048326D01*
X0177595Y0048266D01*
X0177528Y0048210D01*
X0177457Y0048156D01*
X0177385Y0048106D01*
X0177310Y0048059D01*
X0177233Y0048015D01*
X0177154Y0047975D01*
X0177074Y0047938D01*
X0176992Y0047906D01*
X0176908Y0047876D01*
X0176824Y0047851D01*
X0176738Y0047829D01*
X0176652Y0047812D01*
X0176564Y0047798D01*
X0176476Y0047788D01*
X0176388Y0047782D01*
X0176300Y0047780D01*
X0176212Y0047782D01*
X0176124Y0047788D01*
X0176036Y0047798D01*
X0175948Y0047812D01*
X0175862Y0047829D01*
X0175776Y0047851D01*
X0175692Y0047876D01*
X0175608Y0047906D01*
X0175526Y0047938D01*
X0175446Y0047975D01*
X0175367Y0048015D01*
X0175290Y0048059D01*
X0175215Y0048106D01*
X0175143Y0048156D01*
X0175072Y0048210D01*
X0175005Y0048266D01*
X0174939Y0048326D01*
X0174877Y0048388D01*
X0174817Y0048454D01*
X0174761Y0048521D01*
X0174707Y0048592D01*
X0174657Y0048664D01*
X0174610Y0048739D01*
X0174566Y0048816D01*
X0174526Y0048895D01*
X0174489Y0048975D01*
X0174457Y0049057D01*
X0174427Y0049141D01*
X0174402Y0049225D01*
X0174380Y0049311D01*
X0174363Y0049397D01*
X0174349Y0049485D01*
X0174339Y0049573D01*
X0174333Y0049661D01*
X0174331Y0049749D01*
X0182831Y0060249D02*
X0182833Y0060337D01*
X0182839Y0060425D01*
X0182849Y0060513D01*
X0182863Y0060601D01*
X0182880Y0060687D01*
X0182902Y0060773D01*
X0182927Y0060857D01*
X0182957Y0060941D01*
X0182989Y0061023D01*
X0183026Y0061103D01*
X0183066Y0061182D01*
X0183110Y0061259D01*
X0183157Y0061334D01*
X0183207Y0061406D01*
X0183261Y0061477D01*
X0183317Y0061544D01*
X0183377Y0061610D01*
X0183439Y0061672D01*
X0183505Y0061732D01*
X0183572Y0061788D01*
X0183643Y0061842D01*
X0183715Y0061892D01*
X0183790Y0061939D01*
X0183867Y0061983D01*
X0183946Y0062023D01*
X0184026Y0062060D01*
X0184108Y0062092D01*
X0184192Y0062122D01*
X0184276Y0062147D01*
X0184362Y0062169D01*
X0184448Y0062186D01*
X0184536Y0062200D01*
X0184624Y0062210D01*
X0184712Y0062216D01*
X0184800Y0062218D01*
X0184888Y0062216D01*
X0184976Y0062210D01*
X0185064Y0062200D01*
X0185152Y0062186D01*
X0185238Y0062169D01*
X0185324Y0062147D01*
X0185408Y0062122D01*
X0185492Y0062092D01*
X0185574Y0062060D01*
X0185654Y0062023D01*
X0185733Y0061983D01*
X0185810Y0061939D01*
X0185885Y0061892D01*
X0185957Y0061842D01*
X0186028Y0061788D01*
X0186095Y0061732D01*
X0186161Y0061672D01*
X0186223Y0061610D01*
X0186283Y0061544D01*
X0186339Y0061477D01*
X0186393Y0061406D01*
X0186443Y0061334D01*
X0186490Y0061259D01*
X0186534Y0061182D01*
X0186574Y0061103D01*
X0186611Y0061023D01*
X0186643Y0060941D01*
X0186673Y0060857D01*
X0186698Y0060773D01*
X0186720Y0060687D01*
X0186737Y0060601D01*
X0186751Y0060513D01*
X0186761Y0060425D01*
X0186767Y0060337D01*
X0186769Y0060249D01*
X0186767Y0060161D01*
X0186761Y0060073D01*
X0186751Y0059985D01*
X0186737Y0059897D01*
X0186720Y0059811D01*
X0186698Y0059725D01*
X0186673Y0059641D01*
X0186643Y0059557D01*
X0186611Y0059475D01*
X0186574Y0059395D01*
X0186534Y0059316D01*
X0186490Y0059239D01*
X0186443Y0059164D01*
X0186393Y0059092D01*
X0186339Y0059021D01*
X0186283Y0058954D01*
X0186223Y0058888D01*
X0186161Y0058826D01*
X0186095Y0058766D01*
X0186028Y0058710D01*
X0185957Y0058656D01*
X0185885Y0058606D01*
X0185810Y0058559D01*
X0185733Y0058515D01*
X0185654Y0058475D01*
X0185574Y0058438D01*
X0185492Y0058406D01*
X0185408Y0058376D01*
X0185324Y0058351D01*
X0185238Y0058329D01*
X0185152Y0058312D01*
X0185064Y0058298D01*
X0184976Y0058288D01*
X0184888Y0058282D01*
X0184800Y0058280D01*
X0184712Y0058282D01*
X0184624Y0058288D01*
X0184536Y0058298D01*
X0184448Y0058312D01*
X0184362Y0058329D01*
X0184276Y0058351D01*
X0184192Y0058376D01*
X0184108Y0058406D01*
X0184026Y0058438D01*
X0183946Y0058475D01*
X0183867Y0058515D01*
X0183790Y0058559D01*
X0183715Y0058606D01*
X0183643Y0058656D01*
X0183572Y0058710D01*
X0183505Y0058766D01*
X0183439Y0058826D01*
X0183377Y0058888D01*
X0183317Y0058954D01*
X0183261Y0059021D01*
X0183207Y0059092D01*
X0183157Y0059164D01*
X0183110Y0059239D01*
X0183066Y0059316D01*
X0183026Y0059395D01*
X0182989Y0059475D01*
X0182957Y0059557D01*
X0182927Y0059641D01*
X0182902Y0059725D01*
X0182880Y0059811D01*
X0182863Y0059897D01*
X0182849Y0059985D01*
X0182839Y0060073D01*
X0182833Y0060161D01*
X0182831Y0060249D01*
X0191831Y0050749D02*
X0191833Y0050837D01*
X0191839Y0050925D01*
X0191849Y0051013D01*
X0191863Y0051101D01*
X0191880Y0051187D01*
X0191902Y0051273D01*
X0191927Y0051357D01*
X0191957Y0051441D01*
X0191989Y0051523D01*
X0192026Y0051603D01*
X0192066Y0051682D01*
X0192110Y0051759D01*
X0192157Y0051834D01*
X0192207Y0051906D01*
X0192261Y0051977D01*
X0192317Y0052044D01*
X0192377Y0052110D01*
X0192439Y0052172D01*
X0192505Y0052232D01*
X0192572Y0052288D01*
X0192643Y0052342D01*
X0192715Y0052392D01*
X0192790Y0052439D01*
X0192867Y0052483D01*
X0192946Y0052523D01*
X0193026Y0052560D01*
X0193108Y0052592D01*
X0193192Y0052622D01*
X0193276Y0052647D01*
X0193362Y0052669D01*
X0193448Y0052686D01*
X0193536Y0052700D01*
X0193624Y0052710D01*
X0193712Y0052716D01*
X0193800Y0052718D01*
X0193888Y0052716D01*
X0193976Y0052710D01*
X0194064Y0052700D01*
X0194152Y0052686D01*
X0194238Y0052669D01*
X0194324Y0052647D01*
X0194408Y0052622D01*
X0194492Y0052592D01*
X0194574Y0052560D01*
X0194654Y0052523D01*
X0194733Y0052483D01*
X0194810Y0052439D01*
X0194885Y0052392D01*
X0194957Y0052342D01*
X0195028Y0052288D01*
X0195095Y0052232D01*
X0195161Y0052172D01*
X0195223Y0052110D01*
X0195283Y0052044D01*
X0195339Y0051977D01*
X0195393Y0051906D01*
X0195443Y0051834D01*
X0195490Y0051759D01*
X0195534Y0051682D01*
X0195574Y0051603D01*
X0195611Y0051523D01*
X0195643Y0051441D01*
X0195673Y0051357D01*
X0195698Y0051273D01*
X0195720Y0051187D01*
X0195737Y0051101D01*
X0195751Y0051013D01*
X0195761Y0050925D01*
X0195767Y0050837D01*
X0195769Y0050749D01*
X0195767Y0050661D01*
X0195761Y0050573D01*
X0195751Y0050485D01*
X0195737Y0050397D01*
X0195720Y0050311D01*
X0195698Y0050225D01*
X0195673Y0050141D01*
X0195643Y0050057D01*
X0195611Y0049975D01*
X0195574Y0049895D01*
X0195534Y0049816D01*
X0195490Y0049739D01*
X0195443Y0049664D01*
X0195393Y0049592D01*
X0195339Y0049521D01*
X0195283Y0049454D01*
X0195223Y0049388D01*
X0195161Y0049326D01*
X0195095Y0049266D01*
X0195028Y0049210D01*
X0194957Y0049156D01*
X0194885Y0049106D01*
X0194810Y0049059D01*
X0194733Y0049015D01*
X0194654Y0048975D01*
X0194574Y0048938D01*
X0194492Y0048906D01*
X0194408Y0048876D01*
X0194324Y0048851D01*
X0194238Y0048829D01*
X0194152Y0048812D01*
X0194064Y0048798D01*
X0193976Y0048788D01*
X0193888Y0048782D01*
X0193800Y0048780D01*
X0193712Y0048782D01*
X0193624Y0048788D01*
X0193536Y0048798D01*
X0193448Y0048812D01*
X0193362Y0048829D01*
X0193276Y0048851D01*
X0193192Y0048876D01*
X0193108Y0048906D01*
X0193026Y0048938D01*
X0192946Y0048975D01*
X0192867Y0049015D01*
X0192790Y0049059D01*
X0192715Y0049106D01*
X0192643Y0049156D01*
X0192572Y0049210D01*
X0192505Y0049266D01*
X0192439Y0049326D01*
X0192377Y0049388D01*
X0192317Y0049454D01*
X0192261Y0049521D01*
X0192207Y0049592D01*
X0192157Y0049664D01*
X0192110Y0049739D01*
X0192066Y0049816D01*
X0192026Y0049895D01*
X0191989Y0049975D01*
X0191957Y0050057D01*
X0191927Y0050141D01*
X0191902Y0050225D01*
X0191880Y0050311D01*
X0191863Y0050397D01*
X0191849Y0050485D01*
X0191839Y0050573D01*
X0191833Y0050661D01*
X0191831Y0050749D01*
X0190831Y0164249D02*
X0190833Y0164337D01*
X0190839Y0164425D01*
X0190849Y0164513D01*
X0190863Y0164601D01*
X0190880Y0164687D01*
X0190902Y0164773D01*
X0190927Y0164857D01*
X0190957Y0164941D01*
X0190989Y0165023D01*
X0191026Y0165103D01*
X0191066Y0165182D01*
X0191110Y0165259D01*
X0191157Y0165334D01*
X0191207Y0165406D01*
X0191261Y0165477D01*
X0191317Y0165544D01*
X0191377Y0165610D01*
X0191439Y0165672D01*
X0191505Y0165732D01*
X0191572Y0165788D01*
X0191643Y0165842D01*
X0191715Y0165892D01*
X0191790Y0165939D01*
X0191867Y0165983D01*
X0191946Y0166023D01*
X0192026Y0166060D01*
X0192108Y0166092D01*
X0192192Y0166122D01*
X0192276Y0166147D01*
X0192362Y0166169D01*
X0192448Y0166186D01*
X0192536Y0166200D01*
X0192624Y0166210D01*
X0192712Y0166216D01*
X0192800Y0166218D01*
X0192888Y0166216D01*
X0192976Y0166210D01*
X0193064Y0166200D01*
X0193152Y0166186D01*
X0193238Y0166169D01*
X0193324Y0166147D01*
X0193408Y0166122D01*
X0193492Y0166092D01*
X0193574Y0166060D01*
X0193654Y0166023D01*
X0193733Y0165983D01*
X0193810Y0165939D01*
X0193885Y0165892D01*
X0193957Y0165842D01*
X0194028Y0165788D01*
X0194095Y0165732D01*
X0194161Y0165672D01*
X0194223Y0165610D01*
X0194283Y0165544D01*
X0194339Y0165477D01*
X0194393Y0165406D01*
X0194443Y0165334D01*
X0194490Y0165259D01*
X0194534Y0165182D01*
X0194574Y0165103D01*
X0194611Y0165023D01*
X0194643Y0164941D01*
X0194673Y0164857D01*
X0194698Y0164773D01*
X0194720Y0164687D01*
X0194737Y0164601D01*
X0194751Y0164513D01*
X0194761Y0164425D01*
X0194767Y0164337D01*
X0194769Y0164249D01*
X0194767Y0164161D01*
X0194761Y0164073D01*
X0194751Y0163985D01*
X0194737Y0163897D01*
X0194720Y0163811D01*
X0194698Y0163725D01*
X0194673Y0163641D01*
X0194643Y0163557D01*
X0194611Y0163475D01*
X0194574Y0163395D01*
X0194534Y0163316D01*
X0194490Y0163239D01*
X0194443Y0163164D01*
X0194393Y0163092D01*
X0194339Y0163021D01*
X0194283Y0162954D01*
X0194223Y0162888D01*
X0194161Y0162826D01*
X0194095Y0162766D01*
X0194028Y0162710D01*
X0193957Y0162656D01*
X0193885Y0162606D01*
X0193810Y0162559D01*
X0193733Y0162515D01*
X0193654Y0162475D01*
X0193574Y0162438D01*
X0193492Y0162406D01*
X0193408Y0162376D01*
X0193324Y0162351D01*
X0193238Y0162329D01*
X0193152Y0162312D01*
X0193064Y0162298D01*
X0192976Y0162288D01*
X0192888Y0162282D01*
X0192800Y0162280D01*
X0192712Y0162282D01*
X0192624Y0162288D01*
X0192536Y0162298D01*
X0192448Y0162312D01*
X0192362Y0162329D01*
X0192276Y0162351D01*
X0192192Y0162376D01*
X0192108Y0162406D01*
X0192026Y0162438D01*
X0191946Y0162475D01*
X0191867Y0162515D01*
X0191790Y0162559D01*
X0191715Y0162606D01*
X0191643Y0162656D01*
X0191572Y0162710D01*
X0191505Y0162766D01*
X0191439Y0162826D01*
X0191377Y0162888D01*
X0191317Y0162954D01*
X0191261Y0163021D01*
X0191207Y0163092D01*
X0191157Y0163164D01*
X0191110Y0163239D01*
X0191066Y0163316D01*
X0191026Y0163395D01*
X0190989Y0163475D01*
X0190957Y0163557D01*
X0190927Y0163641D01*
X0190902Y0163725D01*
X0190880Y0163811D01*
X0190863Y0163897D01*
X0190849Y0163985D01*
X0190839Y0164073D01*
X0190833Y0164161D01*
X0190831Y0164249D01*
X0190831Y0180249D02*
X0190833Y0180337D01*
X0190839Y0180425D01*
X0190849Y0180513D01*
X0190863Y0180601D01*
X0190880Y0180687D01*
X0190902Y0180773D01*
X0190927Y0180857D01*
X0190957Y0180941D01*
X0190989Y0181023D01*
X0191026Y0181103D01*
X0191066Y0181182D01*
X0191110Y0181259D01*
X0191157Y0181334D01*
X0191207Y0181406D01*
X0191261Y0181477D01*
X0191317Y0181544D01*
X0191377Y0181610D01*
X0191439Y0181672D01*
X0191505Y0181732D01*
X0191572Y0181788D01*
X0191643Y0181842D01*
X0191715Y0181892D01*
X0191790Y0181939D01*
X0191867Y0181983D01*
X0191946Y0182023D01*
X0192026Y0182060D01*
X0192108Y0182092D01*
X0192192Y0182122D01*
X0192276Y0182147D01*
X0192362Y0182169D01*
X0192448Y0182186D01*
X0192536Y0182200D01*
X0192624Y0182210D01*
X0192712Y0182216D01*
X0192800Y0182218D01*
X0192888Y0182216D01*
X0192976Y0182210D01*
X0193064Y0182200D01*
X0193152Y0182186D01*
X0193238Y0182169D01*
X0193324Y0182147D01*
X0193408Y0182122D01*
X0193492Y0182092D01*
X0193574Y0182060D01*
X0193654Y0182023D01*
X0193733Y0181983D01*
X0193810Y0181939D01*
X0193885Y0181892D01*
X0193957Y0181842D01*
X0194028Y0181788D01*
X0194095Y0181732D01*
X0194161Y0181672D01*
X0194223Y0181610D01*
X0194283Y0181544D01*
X0194339Y0181477D01*
X0194393Y0181406D01*
X0194443Y0181334D01*
X0194490Y0181259D01*
X0194534Y0181182D01*
X0194574Y0181103D01*
X0194611Y0181023D01*
X0194643Y0180941D01*
X0194673Y0180857D01*
X0194698Y0180773D01*
X0194720Y0180687D01*
X0194737Y0180601D01*
X0194751Y0180513D01*
X0194761Y0180425D01*
X0194767Y0180337D01*
X0194769Y0180249D01*
X0194767Y0180161D01*
X0194761Y0180073D01*
X0194751Y0179985D01*
X0194737Y0179897D01*
X0194720Y0179811D01*
X0194698Y0179725D01*
X0194673Y0179641D01*
X0194643Y0179557D01*
X0194611Y0179475D01*
X0194574Y0179395D01*
X0194534Y0179316D01*
X0194490Y0179239D01*
X0194443Y0179164D01*
X0194393Y0179092D01*
X0194339Y0179021D01*
X0194283Y0178954D01*
X0194223Y0178888D01*
X0194161Y0178826D01*
X0194095Y0178766D01*
X0194028Y0178710D01*
X0193957Y0178656D01*
X0193885Y0178606D01*
X0193810Y0178559D01*
X0193733Y0178515D01*
X0193654Y0178475D01*
X0193574Y0178438D01*
X0193492Y0178406D01*
X0193408Y0178376D01*
X0193324Y0178351D01*
X0193238Y0178329D01*
X0193152Y0178312D01*
X0193064Y0178298D01*
X0192976Y0178288D01*
X0192888Y0178282D01*
X0192800Y0178280D01*
X0192712Y0178282D01*
X0192624Y0178288D01*
X0192536Y0178298D01*
X0192448Y0178312D01*
X0192362Y0178329D01*
X0192276Y0178351D01*
X0192192Y0178376D01*
X0192108Y0178406D01*
X0192026Y0178438D01*
X0191946Y0178475D01*
X0191867Y0178515D01*
X0191790Y0178559D01*
X0191715Y0178606D01*
X0191643Y0178656D01*
X0191572Y0178710D01*
X0191505Y0178766D01*
X0191439Y0178826D01*
X0191377Y0178888D01*
X0191317Y0178954D01*
X0191261Y0179021D01*
X0191207Y0179092D01*
X0191157Y0179164D01*
X0191110Y0179239D01*
X0191066Y0179316D01*
X0191026Y0179395D01*
X0190989Y0179475D01*
X0190957Y0179557D01*
X0190927Y0179641D01*
X0190902Y0179725D01*
X0190880Y0179811D01*
X0190863Y0179897D01*
X0190849Y0179985D01*
X0190839Y0180073D01*
X0190833Y0180161D01*
X0190831Y0180249D01*
X0190831Y0197749D02*
X0190833Y0197837D01*
X0190839Y0197925D01*
X0190849Y0198013D01*
X0190863Y0198101D01*
X0190880Y0198187D01*
X0190902Y0198273D01*
X0190927Y0198357D01*
X0190957Y0198441D01*
X0190989Y0198523D01*
X0191026Y0198603D01*
X0191066Y0198682D01*
X0191110Y0198759D01*
X0191157Y0198834D01*
X0191207Y0198906D01*
X0191261Y0198977D01*
X0191317Y0199044D01*
X0191377Y0199110D01*
X0191439Y0199172D01*
X0191505Y0199232D01*
X0191572Y0199288D01*
X0191643Y0199342D01*
X0191715Y0199392D01*
X0191790Y0199439D01*
X0191867Y0199483D01*
X0191946Y0199523D01*
X0192026Y0199560D01*
X0192108Y0199592D01*
X0192192Y0199622D01*
X0192276Y0199647D01*
X0192362Y0199669D01*
X0192448Y0199686D01*
X0192536Y0199700D01*
X0192624Y0199710D01*
X0192712Y0199716D01*
X0192800Y0199718D01*
X0192888Y0199716D01*
X0192976Y0199710D01*
X0193064Y0199700D01*
X0193152Y0199686D01*
X0193238Y0199669D01*
X0193324Y0199647D01*
X0193408Y0199622D01*
X0193492Y0199592D01*
X0193574Y0199560D01*
X0193654Y0199523D01*
X0193733Y0199483D01*
X0193810Y0199439D01*
X0193885Y0199392D01*
X0193957Y0199342D01*
X0194028Y0199288D01*
X0194095Y0199232D01*
X0194161Y0199172D01*
X0194223Y0199110D01*
X0194283Y0199044D01*
X0194339Y0198977D01*
X0194393Y0198906D01*
X0194443Y0198834D01*
X0194490Y0198759D01*
X0194534Y0198682D01*
X0194574Y0198603D01*
X0194611Y0198523D01*
X0194643Y0198441D01*
X0194673Y0198357D01*
X0194698Y0198273D01*
X0194720Y0198187D01*
X0194737Y0198101D01*
X0194751Y0198013D01*
X0194761Y0197925D01*
X0194767Y0197837D01*
X0194769Y0197749D01*
X0194767Y0197661D01*
X0194761Y0197573D01*
X0194751Y0197485D01*
X0194737Y0197397D01*
X0194720Y0197311D01*
X0194698Y0197225D01*
X0194673Y0197141D01*
X0194643Y0197057D01*
X0194611Y0196975D01*
X0194574Y0196895D01*
X0194534Y0196816D01*
X0194490Y0196739D01*
X0194443Y0196664D01*
X0194393Y0196592D01*
X0194339Y0196521D01*
X0194283Y0196454D01*
X0194223Y0196388D01*
X0194161Y0196326D01*
X0194095Y0196266D01*
X0194028Y0196210D01*
X0193957Y0196156D01*
X0193885Y0196106D01*
X0193810Y0196059D01*
X0193733Y0196015D01*
X0193654Y0195975D01*
X0193574Y0195938D01*
X0193492Y0195906D01*
X0193408Y0195876D01*
X0193324Y0195851D01*
X0193238Y0195829D01*
X0193152Y0195812D01*
X0193064Y0195798D01*
X0192976Y0195788D01*
X0192888Y0195782D01*
X0192800Y0195780D01*
X0192712Y0195782D01*
X0192624Y0195788D01*
X0192536Y0195798D01*
X0192448Y0195812D01*
X0192362Y0195829D01*
X0192276Y0195851D01*
X0192192Y0195876D01*
X0192108Y0195906D01*
X0192026Y0195938D01*
X0191946Y0195975D01*
X0191867Y0196015D01*
X0191790Y0196059D01*
X0191715Y0196106D01*
X0191643Y0196156D01*
X0191572Y0196210D01*
X0191505Y0196266D01*
X0191439Y0196326D01*
X0191377Y0196388D01*
X0191317Y0196454D01*
X0191261Y0196521D01*
X0191207Y0196592D01*
X0191157Y0196664D01*
X0191110Y0196739D01*
X0191066Y0196816D01*
X0191026Y0196895D01*
X0190989Y0196975D01*
X0190957Y0197057D01*
X0190927Y0197141D01*
X0190902Y0197225D01*
X0190880Y0197311D01*
X0190863Y0197397D01*
X0190849Y0197485D01*
X0190839Y0197573D01*
X0190833Y0197661D01*
X0190831Y0197749D01*
X0037331Y0201749D02*
X0037333Y0201837D01*
X0037339Y0201925D01*
X0037349Y0202013D01*
X0037363Y0202101D01*
X0037380Y0202187D01*
X0037402Y0202273D01*
X0037427Y0202357D01*
X0037457Y0202441D01*
X0037489Y0202523D01*
X0037526Y0202603D01*
X0037566Y0202682D01*
X0037610Y0202759D01*
X0037657Y0202834D01*
X0037707Y0202906D01*
X0037761Y0202977D01*
X0037817Y0203044D01*
X0037877Y0203110D01*
X0037939Y0203172D01*
X0038005Y0203232D01*
X0038072Y0203288D01*
X0038143Y0203342D01*
X0038215Y0203392D01*
X0038290Y0203439D01*
X0038367Y0203483D01*
X0038446Y0203523D01*
X0038526Y0203560D01*
X0038608Y0203592D01*
X0038692Y0203622D01*
X0038776Y0203647D01*
X0038862Y0203669D01*
X0038948Y0203686D01*
X0039036Y0203700D01*
X0039124Y0203710D01*
X0039212Y0203716D01*
X0039300Y0203718D01*
X0039388Y0203716D01*
X0039476Y0203710D01*
X0039564Y0203700D01*
X0039652Y0203686D01*
X0039738Y0203669D01*
X0039824Y0203647D01*
X0039908Y0203622D01*
X0039992Y0203592D01*
X0040074Y0203560D01*
X0040154Y0203523D01*
X0040233Y0203483D01*
X0040310Y0203439D01*
X0040385Y0203392D01*
X0040457Y0203342D01*
X0040528Y0203288D01*
X0040595Y0203232D01*
X0040661Y0203172D01*
X0040723Y0203110D01*
X0040783Y0203044D01*
X0040839Y0202977D01*
X0040893Y0202906D01*
X0040943Y0202834D01*
X0040990Y0202759D01*
X0041034Y0202682D01*
X0041074Y0202603D01*
X0041111Y0202523D01*
X0041143Y0202441D01*
X0041173Y0202357D01*
X0041198Y0202273D01*
X0041220Y0202187D01*
X0041237Y0202101D01*
X0041251Y0202013D01*
X0041261Y0201925D01*
X0041267Y0201837D01*
X0041269Y0201749D01*
X0041267Y0201661D01*
X0041261Y0201573D01*
X0041251Y0201485D01*
X0041237Y0201397D01*
X0041220Y0201311D01*
X0041198Y0201225D01*
X0041173Y0201141D01*
X0041143Y0201057D01*
X0041111Y0200975D01*
X0041074Y0200895D01*
X0041034Y0200816D01*
X0040990Y0200739D01*
X0040943Y0200664D01*
X0040893Y0200592D01*
X0040839Y0200521D01*
X0040783Y0200454D01*
X0040723Y0200388D01*
X0040661Y0200326D01*
X0040595Y0200266D01*
X0040528Y0200210D01*
X0040457Y0200156D01*
X0040385Y0200106D01*
X0040310Y0200059D01*
X0040233Y0200015D01*
X0040154Y0199975D01*
X0040074Y0199938D01*
X0039992Y0199906D01*
X0039908Y0199876D01*
X0039824Y0199851D01*
X0039738Y0199829D01*
X0039652Y0199812D01*
X0039564Y0199798D01*
X0039476Y0199788D01*
X0039388Y0199782D01*
X0039300Y0199780D01*
X0039212Y0199782D01*
X0039124Y0199788D01*
X0039036Y0199798D01*
X0038948Y0199812D01*
X0038862Y0199829D01*
X0038776Y0199851D01*
X0038692Y0199876D01*
X0038608Y0199906D01*
X0038526Y0199938D01*
X0038446Y0199975D01*
X0038367Y0200015D01*
X0038290Y0200059D01*
X0038215Y0200106D01*
X0038143Y0200156D01*
X0038072Y0200210D01*
X0038005Y0200266D01*
X0037939Y0200326D01*
X0037877Y0200388D01*
X0037817Y0200454D01*
X0037761Y0200521D01*
X0037707Y0200592D01*
X0037657Y0200664D01*
X0037610Y0200739D01*
X0037566Y0200816D01*
X0037526Y0200895D01*
X0037489Y0200975D01*
X0037457Y0201057D01*
X0037427Y0201141D01*
X0037402Y0201225D01*
X0037380Y0201311D01*
X0037363Y0201397D01*
X0037349Y0201485D01*
X0037339Y0201573D01*
X0037333Y0201661D01*
X0037331Y0201749D01*
X0019831Y0201749D02*
X0019833Y0201837D01*
X0019839Y0201925D01*
X0019849Y0202013D01*
X0019863Y0202101D01*
X0019880Y0202187D01*
X0019902Y0202273D01*
X0019927Y0202357D01*
X0019957Y0202441D01*
X0019989Y0202523D01*
X0020026Y0202603D01*
X0020066Y0202682D01*
X0020110Y0202759D01*
X0020157Y0202834D01*
X0020207Y0202906D01*
X0020261Y0202977D01*
X0020317Y0203044D01*
X0020377Y0203110D01*
X0020439Y0203172D01*
X0020505Y0203232D01*
X0020572Y0203288D01*
X0020643Y0203342D01*
X0020715Y0203392D01*
X0020790Y0203439D01*
X0020867Y0203483D01*
X0020946Y0203523D01*
X0021026Y0203560D01*
X0021108Y0203592D01*
X0021192Y0203622D01*
X0021276Y0203647D01*
X0021362Y0203669D01*
X0021448Y0203686D01*
X0021536Y0203700D01*
X0021624Y0203710D01*
X0021712Y0203716D01*
X0021800Y0203718D01*
X0021888Y0203716D01*
X0021976Y0203710D01*
X0022064Y0203700D01*
X0022152Y0203686D01*
X0022238Y0203669D01*
X0022324Y0203647D01*
X0022408Y0203622D01*
X0022492Y0203592D01*
X0022574Y0203560D01*
X0022654Y0203523D01*
X0022733Y0203483D01*
X0022810Y0203439D01*
X0022885Y0203392D01*
X0022957Y0203342D01*
X0023028Y0203288D01*
X0023095Y0203232D01*
X0023161Y0203172D01*
X0023223Y0203110D01*
X0023283Y0203044D01*
X0023339Y0202977D01*
X0023393Y0202906D01*
X0023443Y0202834D01*
X0023490Y0202759D01*
X0023534Y0202682D01*
X0023574Y0202603D01*
X0023611Y0202523D01*
X0023643Y0202441D01*
X0023673Y0202357D01*
X0023698Y0202273D01*
X0023720Y0202187D01*
X0023737Y0202101D01*
X0023751Y0202013D01*
X0023761Y0201925D01*
X0023767Y0201837D01*
X0023769Y0201749D01*
X0023767Y0201661D01*
X0023761Y0201573D01*
X0023751Y0201485D01*
X0023737Y0201397D01*
X0023720Y0201311D01*
X0023698Y0201225D01*
X0023673Y0201141D01*
X0023643Y0201057D01*
X0023611Y0200975D01*
X0023574Y0200895D01*
X0023534Y0200816D01*
X0023490Y0200739D01*
X0023443Y0200664D01*
X0023393Y0200592D01*
X0023339Y0200521D01*
X0023283Y0200454D01*
X0023223Y0200388D01*
X0023161Y0200326D01*
X0023095Y0200266D01*
X0023028Y0200210D01*
X0022957Y0200156D01*
X0022885Y0200106D01*
X0022810Y0200059D01*
X0022733Y0200015D01*
X0022654Y0199975D01*
X0022574Y0199938D01*
X0022492Y0199906D01*
X0022408Y0199876D01*
X0022324Y0199851D01*
X0022238Y0199829D01*
X0022152Y0199812D01*
X0022064Y0199798D01*
X0021976Y0199788D01*
X0021888Y0199782D01*
X0021800Y0199780D01*
X0021712Y0199782D01*
X0021624Y0199788D01*
X0021536Y0199798D01*
X0021448Y0199812D01*
X0021362Y0199829D01*
X0021276Y0199851D01*
X0021192Y0199876D01*
X0021108Y0199906D01*
X0021026Y0199938D01*
X0020946Y0199975D01*
X0020867Y0200015D01*
X0020790Y0200059D01*
X0020715Y0200106D01*
X0020643Y0200156D01*
X0020572Y0200210D01*
X0020505Y0200266D01*
X0020439Y0200326D01*
X0020377Y0200388D01*
X0020317Y0200454D01*
X0020261Y0200521D01*
X0020207Y0200592D01*
X0020157Y0200664D01*
X0020110Y0200739D01*
X0020066Y0200816D01*
X0020026Y0200895D01*
X0019989Y0200975D01*
X0019957Y0201057D01*
X0019927Y0201141D01*
X0019902Y0201225D01*
X0019880Y0201311D01*
X0019863Y0201397D01*
X0019849Y0201485D01*
X0019839Y0201573D01*
X0019833Y0201661D01*
X0019831Y0201749D01*
D11*
X0021800Y0201749D03*
X0039300Y0201749D03*
X0184800Y0060249D03*
X0193800Y0050749D03*
X0176300Y0049749D03*
X0192800Y0164249D03*
X0192800Y0180249D03*
X0192800Y0197749D03*
D12*
X0041028Y0038398D03*
X0036304Y0035249D03*
X0041028Y0032099D03*
X0036304Y0028950D03*
X0041028Y0025800D03*
D13*
X0020950Y0017729D03*
X0020950Y0046469D03*
D14*
X0029454Y0053398D03*
X0040654Y0053398D03*
X0051950Y0058347D03*
X0061950Y0058347D03*
X0056950Y0048898D03*
X0061950Y0041398D03*
X0051950Y0041398D03*
X0051950Y0027146D03*
X0061950Y0027146D03*
X0061950Y0016497D03*
X0051950Y0016497D03*
X0070650Y0035052D03*
X0061950Y0070198D03*
X0051950Y0070198D03*
X0040654Y0093398D03*
X0029454Y0093398D03*
X0110650Y0035052D03*
X0120450Y0048245D03*
X0121450Y0020044D03*
X0111450Y0020044D03*
X0156450Y0020694D03*
X0166450Y0020694D03*
X0160450Y0048245D03*
X0156394Y0101099D03*
X0177556Y0119898D03*
D15*
X0102698Y0017548D03*
X0071202Y0017548D03*
D16*
X0079076Y0017548D03*
X0086950Y0017548D03*
X0094824Y0017548D03*
D17*
X0177556Y0099898D03*
X0156394Y0121099D03*
D18*
X0158800Y0088249D03*
X0158800Y0078249D03*
X0158800Y0068249D03*
X0137800Y0036249D03*
X0137800Y0016249D03*
X0184800Y0015749D03*
X0184800Y0035749D03*
X0197800Y0075249D03*
X0197800Y0085249D03*
X0197800Y0095249D03*
X0197800Y0105249D03*
X0197800Y0115249D03*
X0197800Y0125249D03*
X0197800Y0135249D03*
X0197800Y0145249D03*
X0010906Y0156398D03*
X0010906Y0166398D03*
X0010906Y0176398D03*
X0010906Y0186398D03*
X0010906Y0196398D03*
X0010300Y0145249D03*
X0010300Y0135249D03*
X0010300Y0125249D03*
X0010300Y0115249D03*
X0010300Y0105249D03*
X0010300Y0095249D03*
X0010300Y0085249D03*
X0010300Y0075249D03*
D19*
X0107700Y0075249D02*
X0112900Y0075249D01*
X0112900Y0085249D02*
X0107700Y0085249D01*
X0107700Y0095249D02*
X0112900Y0095249D01*
X0112900Y0105249D02*
X0107700Y0105249D01*
X0107700Y0115249D02*
X0112900Y0115249D01*
X0112900Y0125249D02*
X0107700Y0125249D01*
X0107700Y0135249D02*
X0112900Y0135249D01*
X0112900Y0145249D02*
X0107700Y0145249D01*
X0107700Y0155249D02*
X0112900Y0155249D01*
X0112900Y0165249D02*
X0107700Y0165249D01*
X0107700Y0175249D02*
X0112900Y0175249D01*
X0112900Y0185249D02*
X0107700Y0185249D01*
X0107700Y0195249D02*
X0112900Y0195249D01*
X0137700Y0195249D02*
X0142900Y0195249D01*
X0142900Y0185249D02*
X0137700Y0185249D01*
X0137700Y0175249D02*
X0142900Y0175249D01*
X0142900Y0165249D02*
X0137700Y0165249D01*
X0137700Y0155249D02*
X0142900Y0155249D01*
X0142900Y0145249D02*
X0137700Y0145249D01*
X0137700Y0135249D02*
X0142900Y0135249D01*
X0142900Y0125249D02*
X0137700Y0125249D01*
X0137700Y0115249D02*
X0142900Y0115249D01*
X0142900Y0105249D02*
X0137700Y0105249D01*
X0137700Y0095249D02*
X0142900Y0095249D01*
X0142900Y0085249D02*
X0137700Y0085249D01*
X0137700Y0075249D02*
X0142900Y0075249D01*
X0142900Y0065249D02*
X0137700Y0065249D01*
X0112900Y0065249D02*
X0107700Y0065249D01*
M02*
