%
M48
M72
T01C0.01378
T02C0.03150
T03C0.03200
T04C0.03937
T05C0.04000
T06C0.07480
%
T01
X55300Y190249
X55300Y180249
X45300Y160249
X70300Y112749
X80300Y108249
X55300Y80249
X75300Y50249
X57800Y34249
X50800Y34749
X15300Y100249
X120800Y93249
X125300Y80249
X125300Y70249
X145800Y55249
X150300Y69749
T02
X94824Y17548
X86950Y17548
X79076Y17548
X41028Y25800
X36304Y28950
X41028Y32099
X36304Y35249
X41028Y38398
T03
X110300Y195249
X110300Y185249
X110300Y175249
X110300Y165249
X110300Y155249
X110300Y145249
X110300Y135249
X110300Y125249
X110300Y115249
X110300Y105249
X110300Y95249
X110300Y85249
X110300Y75249
X110300Y65249
X120450Y48245
X110650Y35052
X111450Y20044
X121450Y20044
X156450Y20694
X166450Y20694
X160450Y48245
X177556Y99898
X177556Y119898
X156394Y121099
X140300Y125249
X140300Y135249
X140300Y145249
X140300Y155249
X140300Y165249
X140300Y175249
X140300Y185249
X140300Y195249
X140300Y115249
X140300Y105249
X140300Y95249
X140300Y85249
X140300Y75249
X140300Y65249
X156394Y101099
X70650Y35052
X61950Y41398
X56950Y48898
X51950Y41398
X40654Y53398
X29454Y53398
X51950Y58347
X61950Y58347
X61950Y70198
X51950Y70198
X40654Y93398
X29454Y93398
X51950Y27146
X61950Y27146
X61950Y16497
X51950Y16497
T04
X71202Y17548
X102698Y17548
X176300Y49749
X184800Y60249
X193800Y50749
X192800Y164249
X192800Y180249
X192800Y197749
X39300Y201749
X21800Y201749
T05
X10906Y196398
X10906Y186398
X10906Y176398
X10906Y166398
X10906Y156398
X10300Y145249
X10300Y135249
X10300Y125249
X10300Y115249
X10300Y105249
X10300Y95249
X10300Y85249
X10300Y75249
X158800Y88249
X158800Y78249
X158800Y68249
X184800Y35749
X184800Y15749
X137800Y16249
X137800Y36249
X197800Y75249
X197800Y85249
X197800Y95249
X197800Y105249
X197800Y115249
X197800Y125249
X197800Y135249
X197800Y145249
T06
X20950Y46469
X20950Y17729
M30
